<svg xmlns="http://www.w3.org/2000/svg" width="16" height="16" viewBox="0 0 16 16">
  <g id="ic_menu_4" transform="translate(-28 -322)">
    <g id="Rounded_Rectangle_62_copy" data-name="Rounded Rectangle 62 copy" transform="translate(3 64)" fill="none">
      <path d="M27,258h3.993a2.04,2.04,0,0,1,2,2H39a2,2,0,0,1,2,2v12H25V260A2,2,0,0,1,27,258Z" stroke="none"/>
      <path d="M 26.99989700317383 258.9996948242188 C 26.44855499267578 258.9996948242188 26.00000381469727 259.4483337402344 26.00000381469727 259.9997863769531 L 26.00000381469727 272.9996032714844 L 39.99989700317383 272.9996032714844 L 39.99989700317383 261.9997863769531 C 39.99989700317383 261.4483947753906 39.55134582519531 260.9997863769531 39.00000381469727 260.9997863769531 L 32.99150466918945 260.9997863769531 L 32.01597595214844 261.0216979980469 L 31.99268341064453 260.051025390625 C 31.98886489868164 260.007568359375 31.95691299438477 259.7008056640625 31.80063629150391 259.425537109375 C 31.63116073608398 259.1270446777344 31.38968658447266 258.9996948242188 30.99321365356445 258.9996948242188 L 26.99989700317383 258.9996948242188 M 26.99989700317383 257.9996948242188 C 26.99989700317383 257.9996948242188 29.08700180053711 257.9996948242188 30.99321365356445 257.9996948242188 C 32.89960861206055 257.9996948242188 32.99150466918945 259.9997863769531 32.99150466918945 259.9997863769531 L 39.00000381469727 259.9997863769531 C 40.10460662841797 259.9997863769531 40.99989700317383 260.8952026367188 40.99989700317383 261.9997863769531 L 40.99989700317383 273.9996032714844 L 25.00000381469727 273.9996032714844 L 25.00000381469727 259.9997863769531 C 25.00000381469727 258.8952941894531 25.89529418945313 257.9996948242188 26.99989700317383 257.9996948242188 Z" stroke="none" fill="#959595"/>
    </g>
    <line id="Shape_18_copy" data-name="Shape 18 copy" y2="5" transform="translate(36 328)" fill="none" stroke="#959595" stroke-width="1"/>
    <path id="Shape_19_copy" data-name="Shape 19 copy" d="M30,266l3,3,3-3" transform="translate(3 64)" fill="none" stroke="#959595" stroke-width="1"/>
  </g>
</svg>
