<svg xmlns="http://www.w3.org/2000/svg" width="16" height="16" viewBox="0 0 16 16">
  <g id="ic_menu_13_active" transform="translate(-162 -223)">
    <path id="Rounded_Rectangle_62_copy" data-name="Rounded Rectangle 62 copy" d="M27,229h3.993a2.04,2.04,0,0,1,2,2H39a2,2,0,0,1,2,2v12H25V231A2,2,0,0,1,27,229Z" transform="translate(137 -6)" fill="#0572b7"/>
    <path id="Rounded_Rectangle_62" data-name="Rounded Rectangle 62" d="M2,0H12a2,2,0,0,1,2,2V12a0,0,0,0,1,0,0H0a0,0,0,0,1,0,0V2A2,2,0,0,1,2,0Z" transform="translate(164 227)" fill="#1491df"/>
  </g>
</svg>
