<svg xmlns="http://www.w3.org/2000/svg" width="16" height="16" viewBox="0 0 16 16">
  <g id="ic_menu_13" transform="translate(-109 -223)">
    <g id="Rounded_Rectangle_62_copy" data-name="Rounded Rectangle 62 copy" transform="translate(84 -6)" fill="none">
      <path d="M27,229h3.993a2.04,2.04,0,0,1,2,2H39a2,2,0,0,1,2,2v12H25V231A2,2,0,0,1,27,229Z" stroke="none"/>
      <path d="M 26.99989700317383 229.9998931884766 C 26.44855499267578 229.9998931884766 26.00000381469727 230.4485015869141 26.00000381469727 230.9998931884766 L 26.00000381469727 243.9998931884766 L 39.99989700317383 243.9998931884766 L 39.99989700317383 232.9998931884766 C 39.99989700317383 232.4485015869141 39.55134582519531 231.9998931884766 39.00000381469727 231.9998931884766 L 32.99150466918945 231.9998931884766 L 32.01597595214844 232.0217895507813 L 31.99268341064453 231.0511322021484 C 31.98886489868164 231.0076599121094 31.95691299438477 230.7009429931641 31.80063629150391 230.4257049560547 C 31.63116073608398 230.1272277832031 31.38968658447266 229.9998931884766 30.99321365356445 229.9998931884766 L 26.99989700317383 229.9998931884766 M 26.99989700317383 228.9998931884766 C 26.99989700317383 228.9998931884766 29.08700180053711 228.9998931884766 30.99321365356445 228.9998931884766 C 32.89960861206055 228.9998931884766 32.99150466918945 230.9998931884766 32.99150466918945 230.9998931884766 L 39.00000381469727 230.9998931884766 C 40.10460662841797 230.9998931884766 40.99989700317383 231.8952941894531 40.99989700317383 232.9998931884766 L 40.99989700317383 244.9998931884766 L 25.00000381469727 244.9998931884766 L 25.00000381469727 230.9998931884766 C 25.00000381469727 229.8952941894531 25.89529418945313 228.9998931884766 26.99989700317383 228.9998931884766 Z" stroke="none" fill="#959595"/>
    </g>
    <g id="Rounded_Rectangle_62" data-name="Rounded Rectangle 62" transform="translate(111 227)" fill="none" stroke="#959595" stroke-width="1">
      <path d="M2,0H12a2,2,0,0,1,2,2V12a0,0,0,0,1,0,0H0a0,0,0,0,1,0,0V2A2,2,0,0,1,2,0Z" stroke="none"/>
      <path d="M2,.5H12A1.5,1.5,0,0,1,13.5,2v9a.5.5,0,0,1-.5.5H1A.5.5,0,0,1,.5,11V2A1.5,1.5,0,0,1,2,.5Z" fill="none"/>
    </g>
  </g>
</svg>
