<svg xmlns="http://www.w3.org/2000/svg" width="16" height="16" viewBox="0 0 16 16">
  <g id="ic_menu_15_active" transform="translate(-173 -279)">
    <path id="Rounded_Rectangle_62_copy_3" data-name="Rounded Rectangle 62 copy 3" d="M37,281a2,2,0,0,0-2-2s.022-1.2.022-1.548a4,4,0,1,0-4.043,0c0,.723.022,1.548.022,1.548a2,2,0,0,0-2,2v1h8Z" transform="translate(148 9)" fill="#1491df"/>
    <path id="Rounded_Rectangle_62_copy_2" data-name="Rounded Rectangle 62 copy 2" d="M27,286H39a2,2,0,0,0,2-2v-3H25v3A2,2,0,0,0,27,286Z" transform="translate(148 9)" fill="#0572b7"/>
  </g>
</svg>
