<svg xmlns="http://www.w3.org/2000/svg" width="28" height="28" viewBox="0 0 28 28">
  <g id="ic_nav_chat" transform="translate(-1513 -18)" fill="none">
    <path d="M1527,18a14,14,0,0,1,12.126,21c.405,1.345,1.874,6.123,1.874,6.123s-4.362-1.716-5.3-2.159A14,14,0,1,1,1527,18Z" stroke="none"/>
    <path d="M 1526.999877929688 21 C 1524.061767578125 21 1521.29931640625 22.14422988891602 1519.2216796875 24.22184753417969 C 1517.144165039063 26.29946136474609 1515.999877929688 29.061767578125 1515.999877929688 32 C 1515.999877929688 34.93815612792969 1517.144165039063 37.70053863525391 1519.2216796875 39.77815246582031 C 1521.29931640625 41.85577011108398 1524.061767578125 43 1526.999877929688 43 C 1529.512084960938 43 1531.87646484375 42.17607879638672 1533.837646484375 40.61723327636719 L 1535.302001953125 39.45330810546875 L 1536.266357421875 39.91143035888672 C 1536.261840820313 39.89649963378906 1536.257446289063 39.88197326660156 1536.253173828125 39.86776733398438 L 1535.87841796875 38.62400054931641 L 1536.529052734375 37.49969482421875 C 1537.4912109375 35.83699798583984 1537.999877929688 33.93523025512695 1537.999877929688 32 C 1537.999877929688 29.061767578125 1536.855712890625 26.29946136474609 1534.778076171875 24.22184753417969 C 1532.700439453125 22.14422988891602 1529.938110351563 21 1526.999877929688 21 M 1526.999877929688 18 C 1534.73193359375 18 1540.999877929688 24.26800155639648 1540.999877929688 32 C 1540.999877929688 34.55092239379883 1540.317626953125 36.94253921508789 1539.125610351563 39.0023078918457 C 1539.53076171875 40.34677124023438 1540.999877929688 45.12492370605469 1540.999877929688 45.12492370605469 C 1540.999877929688 45.12492370605469 1536.637939453125 43.40930938720703 1535.704345703125 42.96576690673828 C 1533.314575195313 44.86523056030273 1530.289794921875 46 1526.999877929688 46 C 1519.267944335938 46 1512.999877929688 39.7319221496582 1512.999877929688 32 C 1512.999877929688 24.26800155639648 1519.267944335938 18 1526.999877929688 18 Z" stroke="none" fill="#e9eaee"/>
  </g>
</svg>
