<svg width="12" height="13" viewBox="0 0 12 13" fill="none" xmlns="http://www.w3.org/2000/svg">
<path d="M3.07854 12.0016C3.06219 12.0016 3.04619 12.0016 3.03019 12.0016L1.23482 11.9289C0.930983 11.9153 0.643239 11.7885 0.42821 11.5734C0.213181 11.3583 0.0864408 11.0705 0.0729284 10.7667L0.000918941 8.97168C-0.00558084 8.80471 0.0224549 8.6382 0.0832711 8.48257C0.144087 8.32694 0.236375 8.18554 0.354357 8.06721L7.80125 0.620667C7.9979 0.423899 8.23139 0.267808 8.48838 0.161311C8.74537 0.0548144 9.02083 0 9.29901 0C9.5772 0 9.85266 0.0548144 10.1096 0.161311C10.3666 0.267808 10.6001 0.423899 10.7968 0.620667L11.3812 1.20474C11.7775 1.60248 12 2.14105 12 2.70251C12 3.26396 11.7775 3.80254 11.3812 4.20027L3.93396 11.6472C3.707 11.8739 3.39937 12.0014 3.07854 12.0016V12.0016ZM9.29919 0.869743C9.13517 0.869165 8.97267 0.901153 8.82112 0.963855C8.66956 1.02656 8.53196 1.11872 8.41629 1.23501L0.969394 8.68225C0.936171 8.71556 0.910185 8.75537 0.893065 8.79919C0.875944 8.843 0.868059 8.88989 0.869903 8.93689L0.941913 10.7319C0.94573 10.8174 0.981361 10.8983 1.0418 10.9588C1.10225 11.0193 1.18313 11.055 1.26856 11.0589L3.06497 11.1306C3.11196 11.1326 3.15885 11.1249 3.20265 11.1077C3.24644 11.0906 3.28617 11.0645 3.31927 11.0311L10.7665 3.58523C11.0003 3.35086 11.1315 3.03335 11.1315 2.70233C11.1315 2.37131 11.0003 2.05381 10.7665 1.81943L10.1821 1.23501C10.0664 1.11874 9.9288 1.02658 9.77725 0.963882C9.62569 0.901181 9.4632 0.869184 9.29919 0.869743V0.869743Z" fill="currentColor"/>
<path d="M7.17086 2.03934L6.55591 2.6543L9.34633 5.44472L9.96129 4.82977L7.17086 2.03934Z" fill="currentColor"/>
</svg>
