<svg width="12" height="12" viewBox="0 0 12 12" fill="none" xmlns="http://www.w3.org/2000/svg">
<path fill-rule="evenodd" clip-rule="evenodd" d="M0 4.5C0 4.22386 0.223858 4 0.5 4H11.5C11.7761 4 12 4.22386 12 4.5C12 4.77614 11.7761 5 11.5 5H0.5C0.223858 5 0 4.77614 0 4.5Z" fill="#71717A"/>
<path fill-rule="evenodd" clip-rule="evenodd" d="M0 10.5C0 10.2239 0.223858 10 0.5 10H11.5C11.7761 10 12 10.2239 12 10.5C12 10.7761 11.7761 11 11.5 11H0.5C0.223858 11 0 10.7761 0 10.5Z" fill="#71717A"/>
<path fill-rule="evenodd" clip-rule="evenodd" d="M0 1.5C0 1.22386 0.223858 1 0.5 1H11.5C11.7761 1 12 1.22386 12 1.5C12 1.77614 11.7761 2 11.5 2H0.5C0.223858 2 0 1.77614 0 1.5Z" fill="#71717A"/>
<path fill-rule="evenodd" clip-rule="evenodd" d="M0 7.5C0 7.22386 0.223858 7 0.5 7H11.5C11.7761 7 12 7.22386 12 7.5C12 7.77614 11.7761 8 11.5 8H0.5C0.223858 8 0 7.77614 0 7.5Z" fill="#71717A"/>
</svg>
