<svg width="38" height="38" viewBox="0 0 38 38" fill="none" xmlns="http://www.w3.org/2000/svg">
<path d="M3.61756 28.9601C3.69222 28.6964 3.65538 28.4136 3.51563 28.1778C1.27996 24.4059 0.497955 19.9477 1.31641 15.6401C2.13487 11.3324 4.49751 7.4717 7.96077 4.78261C11.424 2.09351 15.7498 0.761016 20.1259 1.03527C24.502 1.30952 28.6275 3.17165 31.7279 6.27209C34.8283 9.37253 36.6905 13.498 36.9647 17.8741C37.239 22.2502 35.9065 26.576 33.2174 30.0392C30.5283 33.5025 26.6676 35.8651 22.3599 36.6836C18.0523 37.502 13.5941 36.72 9.82218 34.4844C9.5864 34.3446 9.3036 34.3078 9.03988 34.3824L2.46221 36.2448L2.46219 36.2448L2.45391 36.2472C2.3566 36.2756 2.25342 36.2774 2.1552 36.2523C2.05697 36.2271 1.96732 36.1761 1.89563 36.1044L1.18926 36.8107L1.89562 36.1044C1.82394 36.0327 1.77285 35.943 1.74772 35.8448C1.7226 35.7466 1.72436 35.6434 1.75282 35.5461L1.75285 35.5461L1.7552 35.5378L3.61756 28.9601Z" stroke="currentColor" stroke-width="2" stroke-linecap="round" stroke-linejoin="round"/>
<path d="M19 21C20.1046 21 21 20.1046 21 19C21 17.8954 20.1046 17 19 17C17.8954 17 17 17.8954 17 19C17 20.1046 17.8954 21 19 21Z" fill="currentColor"/>
<path d="M29 21C30.1046 21 31 20.1046 31 19C31 17.8954 30.1046 17 29 17C27.8954 17 27 17.8954 27 19C27 20.1046 27.8954 21 29 21Z" fill="currentColor"/>
<path d="M9 21C10.1046 21 11 20.1046 11 19C11 17.8954 10.1046 17 9 17C7.89543 17 7 17.8954 7 19C7 20.1046 7.89543 21 9 21Z" fill="currentColor"/>
</svg>
