<svg width="32" height="32" viewBox="0 0 32 32" fill="none" xmlns="http://www.w3.org/2000/svg">
<path fill-rule="evenodd" clip-rule="evenodd" d="M16 9C12.134 9 9 12.134 9 16C9 19.866 12.134 23 16 23C19.866 23 23 19.866 23 16C23 12.134 19.866 9 16 9ZM7 16C7 11.0294 11.0294 7 16 7C20.9706 7 25 11.0294 25 16C25 20.9706 20.9706 25 16 25C11.0294 25 7 20.9706 7 16Z" fill="#309387"/>
<path fill-rule="evenodd" clip-rule="evenodd" d="M16 0C16.5523 0 17 0.447715 17 1V3.5C17 4.05228 16.5523 4.5 16 4.5C15.4477 4.5 15 4.05228 15 3.5V1C15 0.447715 15.4477 0 16 0Z" fill="#309387"/>
<path fill-rule="evenodd" clip-rule="evenodd" d="M4.31138 4.31138C4.72656 3.89621 5.39969 3.89621 5.81486 4.31138L7.68862 6.18514C8.10379 6.60031 8.10379 7.27344 7.68862 7.68862C7.27344 8.10379 6.60031 8.10379 6.18514 7.68862L4.31138 5.81486C3.89621 5.39969 3.89621 4.72656 4.31138 4.31138Z" fill="#309387"/>
<path fill-rule="evenodd" clip-rule="evenodd" d="M0 16C0 15.4477 0.447715 15 1 15H3.5C4.05228 15 4.5 15.4477 4.5 16C4.5 16.5523 4.05228 17 3.5 17H1C0.447715 17 0 16.5523 0 16Z" fill="#309387"/>
<path fill-rule="evenodd" clip-rule="evenodd" d="M7.68862 24.3114C8.1038 24.7266 8.1038 25.3997 7.68862 25.8149L5.81486 27.6886C5.39969 28.1038 4.72656 28.1038 4.31138 27.6886C3.89621 27.2734 3.89621 26.6003 4.31138 26.1851L6.18514 24.3114C6.60031 23.8962 7.27344 23.8962 7.68862 24.3114Z" fill="#309387"/>
<path fill-rule="evenodd" clip-rule="evenodd" d="M16 27.5C16.5523 27.5 17 27.9477 17 28.5V31C17 31.5523 16.5523 32 16 32C15.4477 32 15 31.5523 15 31V28.5C15 27.9477 15.4477 27.5 16 27.5Z" fill="#309387"/>
<path fill-rule="evenodd" clip-rule="evenodd" d="M24.3114 24.3114C24.7266 23.8962 25.3997 23.8962 25.8149 24.3114L27.6886 26.1851C28.1038 26.6003 28.1038 27.2734 27.6886 27.6886C27.2734 28.1038 26.6003 28.1038 26.1851 27.6886L24.3114 25.8149C23.8962 25.3997 23.8962 24.7266 24.3114 24.3114Z" fill="#309387"/>
<path fill-rule="evenodd" clip-rule="evenodd" d="M27.5002 16C27.5002 15.4477 27.9479 15 28.5002 15H31.0002C31.5525 15 32.0002 15.4477 32.0002 16C32.0002 16.5523 31.5525 17 31.0002 17H28.5002C27.9479 17 27.5002 16.5523 27.5002 16Z" fill="#309387"/>
<path fill-rule="evenodd" clip-rule="evenodd" d="M27.6886 4.31138C28.1038 4.72656 28.1038 5.39969 27.6886 5.81486L25.8149 7.68862C25.3997 8.1038 24.7266 8.1038 24.3114 7.68862C23.8962 7.27344 23.8962 6.60031 24.3114 6.18514L26.1851 4.31138C26.6003 3.89621 27.2734 3.89621 27.6886 4.31138Z" fill="#309387"/>
</svg>
