<svg width="32" height="32" viewBox="0 0 32 32" fill="none" xmlns="http://www.w3.org/2000/svg">
<path fill-rule="evenodd" clip-rule="evenodd" d="M16 2C15.9006 2 15.8095 2.03639 15.7438 2.09478L15.7413 2.09698L2.11431 14.1253C2.07761 14.1601 2.04964 14.2 2.03061 14.2419C2.01158 14.2839 2.00146 14.3279 2 14.3718V29.6755C2 29.752 2.03102 29.8315 2.09614 29.8947C2.16225 29.959 2.25795 30 2.36364 30H10.5455C10.6511 30 10.7468 29.959 10.8129 29.8947C10.8781 29.8315 10.9091 29.752 10.9091 29.6755V21.7283C10.9091 21.1023 11.1654 20.508 11.6117 20.0744C12.0571 19.6419 12.6551 19.4038 13.2727 19.4038H18.7273C19.3449 19.4038 19.9429 19.6419 20.3883 20.0744C20.8346 20.508 21.0909 21.1023 21.0909 21.7283V29.6755C21.0909 29.752 21.1219 29.8315 21.1871 29.8947C21.2532 29.959 21.3489 30 21.4545 30H29.6364C29.742 30 29.8378 29.959 29.9039 29.8947C29.969 29.8315 30 29.752 30 29.6755V14.3718C29.9985 14.3279 29.9884 14.2839 29.9694 14.2419C29.9504 14.2 29.9224 14.1601 29.8857 14.1253L16.2587 2.09698L16.2562 2.09478C16.1905 2.03639 16.0994 2 16 2ZM14.4167 0.598527C14.8535 0.210937 15.4186 0 16 0C16.5815 0 17.1466 0.210996 17.5835 0.598688C17.5839 0.599044 17.5843 0.5994 17.5847 0.599756L31.2186 12.6341L31.2328 12.647C31.4681 12.8628 31.6584 13.1239 31.7907 13.4156C31.9231 13.7074 31.9945 14.0232 31.9999 14.344L32 14.3607V29.6755C32 30.3015 31.7437 30.8958 31.2973 31.3294C30.852 31.762 30.254 32 29.6364 32H21.4545C20.8369 32 20.2389 31.762 19.7936 31.3294C19.3472 30.8958 19.0909 30.3015 19.0909 29.6755V21.7283C19.0909 21.6518 19.0599 21.5723 18.9948 21.5091C18.9287 21.4449 18.833 21.4038 18.7273 21.4038H13.2727C13.167 21.4038 13.0713 21.4449 13.0052 21.5091C12.9401 21.5723 12.9091 21.6518 12.9091 21.7283V29.6755C12.9091 30.3015 12.6528 30.8958 12.2064 31.3294C11.7611 31.762 11.1631 32 10.5455 32H2.36364C1.746 32 1.14801 31.762 0.702656 31.3294C0.256312 30.8958 0 30.3015 0 29.6755V14.3607L0.0001387 14.344C0.00548327 14.0232 0.0768988 13.7074 0.209289 13.4156C0.341645 13.1239 0.531851 12.8628 0.767189 12.647L0.781421 12.6341L14.4153 0.599756C14.4158 0.599346 14.4162 0.598937 14.4167 0.598527Z" fill="#F4CE2E"/>
</svg>
