<svg width="32" height="32" viewBox="0 0 32 32" fill="none" xmlns="http://www.w3.org/2000/svg">
<path fill-rule="evenodd" clip-rule="evenodd" d="M16 0C16.2791 0 16.5455 0.116638 16.7348 0.32172L28.7348 13.3217C29.0042 13.6136 29.0753 14.0372 28.916 14.4011C28.7567 14.7649 28.3972 15 28 15H23.6059L31.6689 22.2567C31.9767 22.5337 32.0819 22.9717 31.9336 23.3583C31.7853 23.7448 31.414 24 31 24H0.999981C0.585929 24 0.2147 23.7448 0.0663602 23.3583C-0.0819796 22.9717 0.0232536 22.5337 0.331016 22.2567L8.39402 15H3.99998C3.60278 15 3.24324 14.7649 3.08393 14.4011C2.92463 14.0372 2.99577 13.6136 3.26518 13.3217L15.2652 0.32172C15.4545 0.116638 15.7209 0 16 0ZM6.28397 13H11C11.414 13 11.7853 13.2552 11.9336 13.6417C12.0819 14.0283 11.9767 14.4663 11.6689 14.7433L3.60594 22H28.394L20.331 14.7433C20.0233 14.4663 19.918 14.0283 20.0664 13.6417C20.2147 13.2552 20.5859 13 21 13H25.716L16 2.47432L6.28397 13Z" fill="#32A24C"/>
<path fill-rule="evenodd" clip-rule="evenodd" d="M16 23C16.5523 23 17 23.4477 17 24V31C17 31.5523 16.5523 32 16 32C15.4477 32 15 31.5523 15 31V24C15 23.4477 15.4477 23 16 23Z" fill="#32A24C"/>
</svg>
