<svg width="20" height="20" viewBox="0 0 20 20" fill="none" xmlns="http://www.w3.org/2000/svg">
<path d="M10 9C10.5523 9 11 8.55228 11 8C11 7.44772 10.5523 7 10 7C9.44772 7 9 7.44772 9 8C9 8.55228 9.44772 9 10 9Z" fill="currentColor"/>
<path d="M15 9C15.5523 9 16 8.55228 16 8C16 7.44772 15.5523 7 15 7C14.4477 7 14 7.44772 14 8C14 8.55228 14.4477 9 15 9Z" fill="currentColor"/>
<path d="M5 9C5.55228 9 6 8.55228 6 8C6 7.44772 5.55228 7 5 7C4.44772 7 4 7.44772 4 8C4 8.55228 4.44772 9 5 9Z" fill="currentColor"/>
<path fill-rule="evenodd" clip-rule="evenodd" d="M18 1H2C1.44772 1 1 1.44772 1 2V14C1 14.5523 1.44772 15 2 15H5.17157C5.96722 15 6.73028 15.3161 7.29289 15.8787L9.29289 17.8787C9.68342 18.2692 10.3166 18.2692 10.7071 17.8787L12.7071 15.8787C13.2697 15.3161 14.0328 15 14.8284 15H18C18.5523 15 19 14.5523 19 14V2C19 1.44772 18.5523 1 18 1ZM2 0C0.895431 0 0 0.895431 0 2V14C0 15.1046 0.89543 16 2 16H5.17157C5.70201 16 6.21071 16.2107 6.58579 16.5858L8.58579 18.5858C9.36683 19.3668 10.6332 19.3668 11.4142 18.5858L13.4142 16.5858C13.7893 16.2107 14.298 16 14.8284 16H18C19.1046 16 20 15.1046 20 14V2C20 0.895431 19.1046 0 18 0H2Z" fill="currentColor"/>
</svg>
