<svg xmlns="http://www.w3.org/2000/svg" width="25" height="25" viewBox="0 0 25 25">
  <path id="ic_menu_dashboard" d="M6,25a6,6,0,0,1-6-6V6A6,6,0,0,1,6,0H19a6,6,0,0,1,6,6V19a6,6,0,0,1-6,6ZM1.5,6V19A4.505,4.505,0,0,0,6,23.5H19A4.505,4.505,0,0,0,23.5,19V6A4.505,4.505,0,0,0,19,1.5H6A4.505,4.505,0,0,0,1.5,6ZM18,18.25v-2.5a.75.75,0,0,1,1.5,0v2.5a.75.75,0,0,1-1.5,0Zm-4,0v-7.5a.75.75,0,1,1,1.5,0v7.5a.75.75,0,1,1-1.5,0Zm-4,0V6.75a.75.75,0,0,1,1.5,0v11.5a.75.75,0,0,1-1.5,0Zm-4,0v-4.5a.75.75,0,1,1,1.5,0v4.5a.75.75,0,1,1-1.5,0Z" fill="#fff"/>
</svg>
