<svg xmlns="http://www.w3.org/2000/svg" width="25" height="25" viewBox="0 0 25 25">
  <path id="ic_meu_system" d="M6,25a6,6,0,0,1-6-6V6A6,6,0,0,1,6,0H19a6,6,0,0,1,6,6V19a6,6,0,0,1-6,6ZM1.5,6V19A4.505,4.505,0,0,0,6,23.5H19A4.505,4.505,0,0,0,23.5,19V6A4.505,4.505,0,0,0,19,1.5H6A4.505,4.505,0,0,0,1.5,6ZM9,19a3,3,0,0,1,0-6h7a3,3,0,0,1,0,6ZM7.5,16A1.5,1.5,0,0,0,9,17.5h7a1.5,1.5,0,0,0,0-3H9A1.5,1.5,0,0,0,7.5,16ZM9,12A3,3,0,0,1,9,6h7a3,3,0,1,1,0,6ZM7.5,9A1.5,1.5,0,0,0,9,10.5h7a1.5,1.5,0,0,0,0-3H9A1.5,1.5,0,0,0,7.5,9Z" fill="#e8f7ff"/>
</svg>
