<svg xmlns="http://www.w3.org/2000/svg" width="25" height="25" viewBox="0 0 25 25">
  <path id="ic_menu_province" d="M0,12.5A12.5,12.5,0,1,1,12.5,25,12.5,12.5,0,0,1,0,12.5ZM4.721,4.721A11,11,0,1,0,20.278,20.278,11,11,0,0,0,4.721,4.721Zm7.511,14.21C12.02,18.815,7,16.016,7,11.417a5.5,5.5,0,0,1,11,0c0,4.6-5.019,7.4-5.233,7.515a.558.558,0,0,1-.535,0ZM8.5,11.417c0,3,2.866,5.175,4,5.92,1.134-.745,4-2.925,4-5.92a4,4,0,0,0-8,0ZM10,11.5A2.5,2.5,0,1,1,12.5,14,2.5,2.5,0,0,1,10,11.5Zm1.5,0a1,1,0,1,0,1-1A1,1,0,0,0,11.5,11.5Z" fill="#fff"/>
</svg>
