<svg id="Calendar" xmlns="http://www.w3.org/2000/svg" xmlns:xlink="http://www.w3.org/1999/xlink" width="24" height="24" viewBox="0 0 24 24">
  <defs>
    <pattern id="pattern" preserveAspectRatio="none" width="100%" height="100%" viewBox="0 0 0 0">
      <image/>
    </pattern>
  </defs>
  <rect id="Layer_1" data-name="Layer 1" fill="url(#pattern)"/>
  <g id="Rounded_Rectangle_110" data-name="Rounded Rectangle 110" fill="none">
    <path d="M24,5V21a3,3,0,0,1-3,3H3a3,3,0,0,1-3-3V5A3,3,0,0,1,3,2H21A3,3,0,0,1,24,5Z" stroke="none"/>
    <path d="M 3 4 C 2.448579788208008 4 2 4.448579788208008 2 5 L 2 21 C 2 21.55142211914062 2.448579788208008 22 3 22 L 21 22 C 21.55142211914062 22 22 21.55142211914062 22 21 L 22 5 C 22 4.448579788208008 21.55142211914062 4 21 4 L 3 4 M 3 2 L 21 2 C 22.65689468383789 2 24 3.343105316162109 24 5 L 24 21 C 24 22.65689468383789 22.65689468383789 24 21 24 L 3 24 C 1.343105316162109 24 0 22.65689468383789 0 21 L 0 5 C 0 3.343105316162109 1.343105316162109 2 3 2 Z" stroke="none" fill="#ce9f95"/>
  </g>
  <path id="Check" d="M10.337,16.582l6.141-9.268a.917.917,0,0,1,1.261-.037c.6.487-.033,1.246-.033,1.246L11.156,18.6a1.033,1.033,0,0,1-1.637,0L6.243,14.165a.924.924,0,0,1,0-1.209.94.94,0,0,1,1.228,0Z" fill="#ce9f95"/>
  <rect id="Rectangle_80" data-name="Rectangle 80" width="2" height="4" transform="translate(6)" fill="#ce9f95"/>
  <rect id="Rectangle_80_copy" data-name="Rectangle 80 copy" width="2" height="4" transform="translate(16)" fill="#ce9f95"/>
</svg>
