<svg xmlns="http://www.w3.org/2000/svg" width="25" height="25" viewBox="0 0 25 25">
  <path id="ic_menu_rating" d="M6,25a6,6,0,0,1-6-6V6A6,6,0,0,1,6,0H19a6,6,0,0,1,6,6V19a6,6,0,0,1-6,6ZM1.5,6V19A4.505,4.505,0,0,0,6,23.5H19A4.505,4.505,0,0,0,23.5,19V6A4.505,4.505,0,0,0,19,1.5H6A4.505,4.505,0,0,0,1.5,6ZM8.556,18.146a.945.945,0,0,1-.385-.924l.574-3.543L6.267,11.123A.946.946,0,0,1,6.8,9.531l3.383-.518,1.471-3.152a.936.936,0,0,1,1.7,0L14.82,9.013l3.382.518a.945.945,0,0,1,.531,1.592l-2.479,2.555.575,3.543a.939.939,0,0,1-1.38.979L12.5,16.562,9.551,18.2a.935.935,0,0,1-.995-.055Zm4.672-2.9,1.936,1.075-.391-2.408a1.5,1.5,0,0,1,.4-1.285l1.731-1.783-2.316-.355a1.5,1.5,0,0,1-1.131-.849L12.5,7.587l-.961,2.059a1.5,1.5,0,0,1-1.131.849l-2.316.355,1.731,1.783a1.5,1.5,0,0,1,.4,1.285l-.391,2.408,1.935-1.075a1.5,1.5,0,0,1,1.457,0Z" fill="#e8f7ff"/>
</svg>
