<svg xmlns="http://www.w3.org/2000/svg" width="25" height="25" viewBox="0 0 25 25">
  <path id="ic_menu_help" d="M0,12.5A12.5,12.5,0,1,1,12.5,25,12.5,12.5,0,0,1,0,12.5ZM4.721,4.721A11,11,0,1,0,20.278,20.278,11,11,0,0,0,4.721,4.721Zm6.627,14.227a.64.64,0,0,1-.305-.179.671.671,0,0,1-.159-.329,2.516,2.516,0,0,1-.042-.512,2.669,2.669,0,0,1,.042-.521.624.624,0,0,1,.159-.329.673.673,0,0,1,.305-.169,1.906,1.906,0,0,1,.489-.051,1.872,1.872,0,0,1,.474.051.58.58,0,0,1,.46.5,2.669,2.669,0,0,1,.042.521,2.516,2.516,0,0,1-.042.512.69.69,0,0,1-.155.329.608.608,0,0,1-.305.179,1.872,1.872,0,0,1-.474.051A1.906,1.906,0,0,1,11.348,18.949Zm.112-3.26a.88.88,0,0,1-.225-.047.246.246,0,0,1-.122-.089.231.231,0,0,1-.037-.131l-.057-2.6a1.071,1.071,0,0,1,.032-.353.577.577,0,0,1,.127-.225.444.444,0,0,1,.216-.122,1.266,1.266,0,0,1,.3-.032H11.9a2.559,2.559,0,0,0,1.042-.193,1.918,1.918,0,0,0,.7-.512,2,2,0,0,0,.39-.752,3.281,3.281,0,0,0,.122-.9,3.07,3.07,0,0,0-.15-.982,2.121,2.121,0,0,0-.451-.769,2.02,2.02,0,0,0-.756-.5A2.949,2.949,0,0,0,11.724,7.3a3.471,3.471,0,0,0-.954.117,4.895,4.895,0,0,0-.709.258q-.3.142-.493.254a.654.654,0,0,1-.286.112.237.237,0,0,1-.117-.028.226.226,0,0,1-.09-.108.792.792,0,0,1-.056-.216A2.57,2.57,0,0,1,9,7.343,1.566,1.566,0,0,1,9.028,7a.411.411,0,0,1,.122-.206,1.878,1.878,0,0,1,.362-.235,3.8,3.8,0,0,1,.648-.268A6.764,6.764,0,0,1,11,6.085,5.131,5.131,0,0,1,11.94,6a4.7,4.7,0,0,1,1.728.286,3.321,3.321,0,0,1,1.193.775,3.077,3.077,0,0,1,.695,1.146A4.257,4.257,0,0,1,15.782,9.6a4.23,4.23,0,0,1-.235,1.465,3.174,3.174,0,0,1-.657,1.09,2.972,2.972,0,0,1-1.014.7,3.954,3.954,0,0,1-1.315.3l-.067,2.264a.228.228,0,0,1-.164.212,1.457,1.457,0,0,1-.531.07A3.318,3.318,0,0,1,11.461,15.689Z" fill="#fff"/>
</svg>
