<svg xmlns="http://www.w3.org/2000/svg" width="25" height="25" viewBox="0 0 25 25">
  <path id="ic_menu_calendar" d="M6,25a6,6,0,0,1-6-6V9A6,6,0,0,1,6,3V.75a.75.75,0,0,1,1.5,0V3h10V.75a.75.75,0,0,1,1.5,0V3a6,6,0,0,1,6,6V19a6,6,0,0,1-6,6ZM1.5,9V19A4.505,4.505,0,0,0,6,23.5H19A4.505,4.505,0,0,0,23.5,19V9q0-.126-.007-.25H1.507Q1.5,8.874,1.5,9ZM23.146,7.25A4.507,4.507,0,0,0,19,4.5H6A4.507,4.507,0,0,0,1.854,7.25ZM17,18.75A2.25,2.25,0,1,1,19.25,21,2.253,2.253,0,0,1,17,18.75Zm1.5,0a.75.75,0,1,0,.75-.75A.751.751,0,0,0,18.5,18.75Zm-8,0A2.25,2.25,0,1,1,12.75,21,2.253,2.253,0,0,1,10.5,18.75Zm1.5,0A.75.75,0,1,0,12.75,18,.751.751,0,0,0,12,18.75Zm-8,0A2.25,2.25,0,1,1,6.25,21,2.253,2.253,0,0,1,4,18.75Zm1.5,0A.75.75,0,1,0,6.25,18,.751.751,0,0,0,5.5,18.75Zm11.5-6A2.25,2.25,0,1,1,19.25,15,2.252,2.252,0,0,1,17,12.75Zm1.5,0A.75.75,0,1,0,19.25,12,.75.75,0,0,0,18.5,12.75Zm-8,0A2.25,2.25,0,1,1,12.75,15,2.252,2.252,0,0,1,10.5,12.75Zm1.5,0A.75.75,0,1,0,12.75,12,.751.751,0,0,0,12,12.75Zm-8,0A2.25,2.25,0,1,1,6.25,15,2.253,2.253,0,0,1,4,12.75Zm1.5,0A.75.75,0,1,0,6.25,12,.751.751,0,0,0,5.5,12.75Z" fill="#fff"/>
</svg>
