<svg xmlns="http://www.w3.org/2000/svg" width="25" height="25" viewBox="0 0 25 25">
  <path id="ic_menu_setting" d="M9.7,22.114v-.086a1.007,1.007,0,0,0-.662-.919l-.044-.018A1.015,1.015,0,0,0,8.584,21a1,1,0,0,0-.706.287l-.061.06a2.888,2.888,0,1,1-4.083-4.084l.06-.06A1.007,1.007,0,0,0,4,16.093l0-.007a1.012,1.012,0,0,0-.926-.614H2.886a2.886,2.886,0,0,1,0-5.773h.086a1.008,1.008,0,0,0,.919-.662c.005-.015.012-.03.018-.044a1.007,1.007,0,0,0-.2-1.114l-.06-.061A2.888,2.888,0,1,1,7.733,3.734l.06.06A1.015,1.015,0,0,0,8.907,4a.713.713,0,0,1,.2-.057,1.015,1.015,0,0,0,.507-.873V2.886a2.886,2.886,0,0,1,5.773,0v.1A1.011,1.011,0,0,0,16,3.906l.007,0A1.015,1.015,0,0,0,16.416,4a1,1,0,0,0,.706-.287l.061-.06a2.888,2.888,0,1,1,4.083,4.084l-.06.06a1.007,1.007,0,0,0-.2,1.114.744.744,0,0,1,.057.2,1.014,1.014,0,0,0,.873.507h.179a2.886,2.886,0,0,1,0,5.773h-.1a1.01,1.01,0,0,0-.923.614l0,.007a1.007,1.007,0,0,0,.2,1.114l.06.061a2.888,2.888,0,1,1-4.084,4.083l-.06-.06a1,1,0,0,0-.706-.287,1.015,1.015,0,0,0-.409.086l-.007,0a1.011,1.011,0,0,0-.614.926v.179a2.886,2.886,0,0,1-5.773,0Zm-.122-2.4A2.5,2.5,0,0,1,11.2,22v.114a1.386,1.386,0,0,0,2.773,0v-.182a2.525,2.525,0,0,1,4.287-1.8l.006.005.064.064a1.388,1.388,0,0,0,1.963-1.962l-.065-.064-.005-.006a2.527,2.527,0,0,1,1.794-4.287h.1a1.386,1.386,0,0,0,0-2.773h-.182a2.51,2.51,0,0,1-2.3-1.522.748.748,0,0,1-.058-.229,2.5,2.5,0,0,1,.563-2.62l.005-.006.064-.064a1.388,1.388,0,1,0-1.962-1.963l-.064.065-.006.005a2.527,2.527,0,0,1-4.287-1.794v-.1a1.386,1.386,0,0,0-2.773,0v.182a2.511,2.511,0,0,1-1.522,2.3.748.748,0,0,1-.229.058,2.512,2.512,0,0,1-2.62-.563l-.006-.005-.064-.065A1.388,1.388,0,1,0,4.709,6.756l.065.065.005.005a2.5,2.5,0,0,1,.512,2.75A2.5,2.5,0,0,1,3,11.2H2.886a1.386,1.386,0,0,0,0,2.773h.182a2.527,2.527,0,0,1,1.8,4.287l-.005.006-.065.064a1.388,1.388,0,0,0,1.962,1.963l.065-.065.005-.005a2.514,2.514,0,0,1,2.75-.512ZM9,12.5A3.5,3.5,0,1,1,12.5,16,3.5,3.5,0,0,1,9,12.5Zm1.5,0a2,2,0,1,0,2-2A2,2,0,0,0,10.5,12.5Z" fill="#fff"/>
</svg>
