<svg xmlns="http://www.w3.org/2000/svg" width="23.991" height="24.015" viewBox="0 0 23.991 24.015">
  <path id="Shape_5" data-name="Shape 5" d="M59.882,498.015a1.034,1.034,0,0,1-.6-.193l-1-2.671-.121.007c-.057,0-.116.008-.175.008s-.117,0-.173-.008l-.121-.007-1,2.671a1.036,1.036,0,0,1-.6.193,1.048,1.048,0,0,1-.862-.456l-.042-2.849c-.181-.06-.369-.131-.558-.208l-1.839,2.157a1.039,1.039,0,0,1-.272.036A1.055,1.055,0,0,1,51.5,495.9l.923-2.7c-.141-.112-.284-.236-.451-.387l-2.46,1.391a1.064,1.064,0,0,1-.956-1.157l1.777-2.215-.032-.053c-.092-.15-.187-.306-.271-.465l-2.77.452a1.074,1.074,0,0,1-.508-1.418l2.408-1.461c-.035-.171-.06-.351-.084-.524l-.01-.071-2.765-.538a1.08,1.08,0,0,1,0-1.509l2.765-.538.01-.071c.024-.174.049-.353.084-.524l-2.408-1.461a1.075,1.075,0,0,1,.508-1.418l2.77.453c.087-.165.185-.324.279-.479l.024-.039-1.777-2.216a1.064,1.064,0,0,1,.956-1.157l2.46,1.391c.172-.156.315-.279.451-.387l-.923-2.7a1.055,1.055,0,0,1,1.015-.792,1.039,1.039,0,0,1,.272.036l1.839,2.157c.2-.081.381-.149.558-.208l.042-2.85a1.048,1.048,0,0,1,.862-.455,1.037,1.037,0,0,1,.6.193l1,2.671.121-.007c.056,0,.115-.008.173-.008s.117,0,.174.008l.121.007,1-2.671a1.034,1.034,0,0,1,.6-.193,1.049,1.049,0,0,1,.862.455l.041,2.85c.177.059.36.127.559.208l1.838-2.157a1.04,1.04,0,0,1,.272-.036,1.056,1.056,0,0,1,1.016.792l-.923,2.7c.141.112.284.236.451.387l2.459-1.391a1.064,1.064,0,0,1,.956,1.156l-1.777,2.216.009.015c.1.162.2.329.295.5l2.77-.453a1.075,1.075,0,0,1,.508,1.418l-2.408,1.461c.036.173.061.353.085.528l.009.067,2.765.538a1.08,1.08,0,0,1,0,1.509l-2.765.538-.009.067c-.024.175-.049.355-.085.528l2.408,1.461a1.074,1.074,0,0,1-.508,1.418l-2.77-.452c-.088.167-.188.33-.285.488l-.019.031,1.777,2.215a1.064,1.064,0,0,1-.956,1.156L64,492.82c-.172.156-.315.279-.451.387l.923,2.7a1.056,1.056,0,0,1-1.016.792,1.04,1.04,0,0,1-.272-.036L61.345,494.5c-.2.083-.388.151-.559.208l-.041,2.849A1.048,1.048,0,0,1,59.882,498.015ZM58,479a7,7,0,1,0,7,7A7.008,7.008,0,0,0,58,479Z" transform="translate(-45.988 -474)" fill="#d29f96"/>
</svg>
