<svg xmlns="http://www.w3.org/2000/svg" width="25" height="25" viewBox="0 0 25 25">
  <path id="ic_menu_sector" d="M6,25a6,6,0,0,1-6-6V6A6,6,0,0,1,6,0H19a6,6,0,0,1,6,6V19a6,6,0,0,1-6,6ZM1.5,6V19A4.505,4.505,0,0,0,6,23.5H19A4.505,4.505,0,0,0,23.5,19V6A4.505,4.505,0,0,0,19,1.5H6A4.505,4.505,0,0,0,1.5,6ZM6,16a3,3,0,0,1,2.25-2.906V6.75a.75.75,0,1,1,1.5,0v6.344a3.007,3.007,0,0,1,2.1,1.961,4.769,4.769,0,0,0,3.207-3.207,3,3,0,1,1,1.527.1,6.272,6.272,0,0,1-4.638,4.638A3,3,0,0,1,6,16Zm1.5,0A1.5,1.5,0,1,0,9,14.5,1.5,1.5,0,0,0,7.5,16Zm7-7A1.5,1.5,0,1,0,16,7.5,1.5,1.5,0,0,0,14.5,9Z" fill="#fff"/>
</svg>
