<?xml version="1.0" ?><!DOCTYPE svg  PUBLIC '-//W3C//DTD SVG 1.1//EN'  'http://www.w3.org/Graphics/SVG/1.1/DTD/svg11.dtd'><svg height="512px" style="enable-background:new 0 0 512 512;" version="1.1" viewBox="0 0 512 512" width="512px" xml:space="preserve" xmlns="http://www.w3.org/2000/svg" xmlns:xlink="http://www.w3.org/1999/xlink"><g id="_x35_0_x2C__Microsoft_x2C__Excel"><g><rect height="240" style="fill:#FFFFFF;" width="170" x="288.5" y="136"/><path d="M338.5,441c11.05,0,20,8.95,20,20s-8.95,20-20,20c-11.051,0-20-8.95-20-20S327.449,441,338.5,441z" style="fill:#FFFFFF;"/><circle cx="393.5" cy="76" r="30" style="fill:#FFFFFF;"/><rect height="30" style="fill:#9BC9FF;" width="80" x="353.5" y="166"/><circle cx="461" cy="103.5" r="7.5" style="fill:#1E81CE;"/><circle cx="461" cy="413.5" r="7.5" style="fill:#1E81CE;"/><rect height="30" style="fill:#9BC9FF;" width="80" x="353.5" y="316"/><rect height="30" style="fill:#9BC9FF;" width="80" x="353.5" y="266"/><rect height="30" style="fill:#9BC9FF;" width="80" x="353.5" y="216"/><circle cx="396" cy="448.5" r="7.5" style="fill:#1E81CE;"/><circle cx="331" cy="33.5" r="7.5" style="fill:#1E81CE;"/><rect height="30" style="fill:#9BC9FF;" width="40" x="288.5" y="316"/><rect height="30" style="fill:#9BC9FF;" width="40" x="288.5" y="266"/><rect height="30" style="fill:#9BC9FF;" width="40" x="288.5" y="216"/><rect height="30" style="fill:#9BC9FF;" width="40" x="288.5" y="166"/><path d="M48.5,96v320l240,30c0-115.501,0-271.952,0-380L48.5,96z" style="fill:#9BC9FF;"/><polygon points="233.5,171 183.5,256 233.5,341 203.5,341 168.5,281.5 133.5,341 103.5,341 153.5,256     103.5,171 133.5,171 168.5,230.5 203.5,171   " style="fill:#FFFFFF;"/><circle cx="116" cy="33.5" r="7.5" style="fill:#1E81CE;"/><circle cx="111" cy="458.5" r="7.5" style="fill:#1E81CE;"/><path d="M233.5,346h-30c-1.772,0-3.411-0.938-4.31-2.465l-30.69-52.174l-30.69,52.174    c-0.898,1.527-2.538,2.465-4.31,2.465h-30c-1.793,0-3.45-0.961-4.34-2.518s-0.879-3.472,0.031-5.018L147.699,256L99.19,173.535    c-0.91-1.546-0.921-3.46-0.031-5.018c0.891-1.557,2.547-2.518,4.34-2.518h30c1.772,0,3.411,0.938,4.31,2.465l30.69,52.174    l30.69-52.174c0.898-1.527,2.538-2.465,4.31-2.465h30c1.793,0,3.45,0.961,4.34,2.518c0.891,1.557,0.879,3.472-0.031,5.018    L189.301,256l48.509,82.465c0.91,1.546,0.921,3.461,0.031,5.018S235.293,346,233.5,346z M206.36,336h18.398l-45.567-77.465    c-0.92-1.564-0.92-3.506,0-5.07L224.758,176H206.36l-33.55,57.035c-0.898,1.527-2.538,2.465-4.31,2.465s-3.411-0.938-4.31-2.465    L130.64,176h-18.398l45.567,77.465c0.92,1.564,0.92,3.506,0,5.07L112.242,336h18.398l33.55-57.035    c0.898-1.527,2.538-2.465,4.31-2.465s3.411,0.938,4.31,2.465L206.36,336z" style="fill:#1E81CE;"/><path d="M288.5,451c-0.206,0-0.413-0.013-0.62-0.039l-240-30c-2.502-0.313-4.38-2.439-4.38-4.961V96    c0-2.521,1.878-4.648,4.38-4.961l240-30c1.425-0.179,2.854,0.264,3.929,1.213c1.076,0.949,1.691,2.314,1.691,3.749v70    c0,2.761-2.238,5-5,5s-5-2.239-5-5V71.664l-230,28.75v311.172l230,28.75V376c0-2.762,2.238-5,5-5s5,2.238,5,5v70    c0,1.435-0.615,2.799-1.691,3.748C290.891,450.56,289.711,451,288.5,451z" style="fill:#1E81CE;"/><path d="M458.5,381h-170c-2.762,0-5-2.238-5-5v-30c0-2.762,2.238-5,5-5s5,2.238,5,5v25h160V141h-160v25    c0,2.761-2.238,5-5,5s-5-2.239-5-5v-30c0-2.761,2.238-5,5-5h170c2.762,0,5,2.239,5,5v240C463.5,378.762,461.262,381,458.5,381z" style="fill:#1E81CE;"/><path d="M288.5,221c-2.762,0-5-2.239-5-5v-20c0-2.761,2.238-5,5-5s5,2.239,5,5v20    C293.5,218.761,291.262,221,288.5,221z" style="fill:#1E81CE;"/><path d="M288.5,271c-2.762,0-5-2.238-5-5v-20c0-2.761,2.238-5,5-5s5,2.239,5,5v20    C293.5,268.762,291.262,271,288.5,271z" style="fill:#1E81CE;"/><path d="M288.5,321c-2.762,0-5-2.238-5-5v-20c0-2.762,2.238-5,5-5s5,2.238,5,5v20    C293.5,318.762,291.262,321,288.5,321z" style="fill:#1E81CE;"/><path d="M328.5,201h-40c-2.762,0-5-2.239-5-5v-30c0-2.761,2.238-5,5-5h40c2.762,0,5,2.239,5,5v30    C333.5,198.761,331.262,201,328.5,201z M293.5,191h30v-20h-30V191z" style="fill:#1E81CE;"/><path d="M433.5,201h-80c-2.762,0-5-2.239-5-5v-30c0-2.761,2.238-5,5-5h80c2.762,0,5,2.239,5,5v30    C438.5,198.761,436.262,201,433.5,201z M358.5,191h70v-20h-70V191z" style="fill:#1E81CE;"/><path d="M328.5,251h-40c-2.762,0-5-2.239-5-5v-30c0-2.761,2.238-5,5-5h40c2.762,0,5,2.239,5,5v30    C333.5,248.761,331.262,251,328.5,251z M293.5,241h30v-20h-30V241z" style="fill:#1E81CE;"/><path d="M433.5,251h-80c-2.762,0-5-2.239-5-5v-30c0-2.761,2.238-5,5-5h80c2.762,0,5,2.239,5,5v30    C438.5,248.761,436.262,251,433.5,251z M358.5,241h70v-20h-70V241z" style="fill:#1E81CE;"/><path d="M328.5,301h-40c-2.762,0-5-2.238-5-5v-30c0-2.762,2.238-5,5-5h40c2.762,0,5,2.238,5,5v30    C333.5,298.762,331.262,301,328.5,301z M293.5,291h30v-20h-30V291z" style="fill:#1E81CE;"/><path d="M433.5,301h-80c-2.762,0-5-2.238-5-5v-30c0-2.762,2.238-5,5-5h80c2.762,0,5,2.238,5,5v30    C438.5,298.762,436.262,301,433.5,301z M358.5,291h70v-20h-70V291z" style="fill:#1E81CE;"/><path d="M328.5,351h-40c-2.762,0-5-2.238-5-5v-30c0-2.762,2.238-5,5-5h40c2.762,0,5,2.238,5,5v30    C333.5,348.762,331.262,351,328.5,351z M293.5,341h30v-20h-30V341z" style="fill:#1E81CE;"/><path d="M433.5,351h-80c-2.762,0-5-2.238-5-5v-30c0-2.762,2.238-5,5-5h80c2.762,0,5,2.238,5,5v30    C438.5,348.762,436.262,351,433.5,351z M358.5,341h70v-20h-70V341z" style="fill:#1E81CE;"/><path d="M393.5,111c-19.299,0-35-15.701-35-35s15.701-35,35-35s35,15.701,35,35S412.799,111,393.5,111z     M393.5,51c-13.785,0-25,11.215-25,25s11.215,25,25,25s25-11.215,25-25S407.285,51,393.5,51z" style="fill:#1E81CE;"/><path d="M338.5,486c-13.785,0-25-11.215-25-25s11.215-25,25-25s25,11.215,25,25S352.285,486,338.5,486z     M338.5,446c-8.271,0-15,6.729-15,15s6.729,15,15,15s15-6.729,15-15S346.771,446,338.5,446z" style="fill:#1E81CE;"/></g></g><g id="Layer_1"/></svg>