<svg xmlns="http://www.w3.org/2000/svg" width="25" height="25" viewBox="0 0 25 25">
  <g id="ic_menu_web" transform="translate(-2 -2)">
    <path id="Path_49" data-name="Path 49" d="M14.5,27A12.5,12.5,0,1,0,2,14.5,12.511,12.511,0,0,0,14.5,27ZM4.823,19.48,9.9,19.44a18.1,18.1,0,0,0,2.8,5.786A10.9,10.9,0,0,1,4.823,19.48Zm6.371-8.407h6.331a17.1,17.1,0,0,1,.04,6.714l-6.371.04A16.569,16.569,0,0,1,11.194,11.073Zm3.165,13.69A16.183,16.183,0,0,1,11.6,19.44l5.544-.04A17.034,17.034,0,0,1,14.359,24.762Zm1.613.524a17.777,17.777,0,0,0,2.843-5.907l5.423-.04A10.914,10.914,0,0,1,15.972,25.286ZM25.387,14.5a11.244,11.244,0,0,1-.484,3.226l-5.706.04a18.223,18.223,0,0,0-.04-6.694h5.665A10.717,10.717,0,0,1,25.387,14.5Zm-1.25-5.04H18.774a18.539,18.539,0,0,0-2.8-5.746A10.84,10.84,0,0,1,24.137,9.46Zm-7.036,0H11.617a16.657,16.657,0,0,1,2.742-5.222A16.657,16.657,0,0,1,17.1,9.46Zm-4.4-5.685A17.915,17.915,0,0,0,9.944,9.46H4.863A10.849,10.849,0,0,1,12.706,3.774Zm-3.145,7.3a18.55,18.55,0,0,0-.02,6.754l-5.383.04A10.428,10.428,0,0,1,3.613,14.5a10.717,10.717,0,0,1,.565-3.427Z" fill="#e8f7ff"/>
  </g>
</svg>
