<svg id="img_symbol" xmlns="http://www.w3.org/2000/svg" width="40" height="84" viewBox="0 0 40 84">
  <path id="rect2887" d="M20.664,0S19.5.547,19.322,1.1c-.248.821.738,1.614.671,2.469-.047,1.115-1.161,2-1.208,3.112,0,.841.886,1.525.7,2.339-.121.52-.557,1.176-1.087,1.163S17.464,9.5,17.39,9.021c-.134-.923,1.134-1.607,1.141-2.531,0-.643-.792-1.115-.765-1.751a2.55,2.55,0,0,1,.577-1.04s-1.4.725-1.65,1.423c-.161.513.443,1.026.382,1.559-.148,1.306-1.731,2.189-1.778,3.5a4.826,4.826,0,0,0,4.7,4.87,4.993,4.993,0,0,0,3.441-1.368A5.359,5.359,0,0,0,24.9,10.177c0-1.122-1.073-2.052-1.08-3.173,0-.616.671-1.149.57-1.758-.121-.793-1.4-1.942-1.4-1.942a5.286,5.286,0,0,1,.195,1.621c-.134.725-.959,1.231-1.04,1.949s.825,1.368.671,2.141c-.081.486-.4,1.156-.886,1.163s-.859-.684-.959-1.163c-.215-1.06.946-2.052.892-3.119-.081-1.676-1.637-2.989-1.59-4.671A5.165,5.165,0,0,1,20.664,0Zm-.671,16.708a7.634,7.634,0,1,0,7.514,7.653,7.709,7.709,0,0,0-2.2-5.42,7.415,7.415,0,0,0-5.319-2.233ZM9.5,25.415q-.052.518-.054,1.04a10.55,10.55,0,0,0,21.1,0,7.109,7.109,0,0,0-.047-1.005,10.854,10.854,0,0,1-21-.034ZM0,38.922V83.966H9.259V38.922Zm10.835,0L20,45.037l9.165-6.114Zm19.886,0V83.966H40V38.922ZM10.835,46.6v3.878H29.165V46.6Zm7.682,5.273a6.8,6.8,0,0,0-1.174.144c-4.026.841-6.81,4.863-6.81,9.281a9.6,9.6,0,0,0,6.71,9.213,5.2,5.2,0,0,1-2.483-4.316v-.109a5.176,5.176,0,0,1,3.234-4.788,5.066,5.066,0,0,1,2.013-.376h.054a4.318,4.318,0,0,0,3.1-1.283,4.489,4.489,0,0,0,1.3-3.142v-.048c-.288-3.173-3.113-4.658-5.891-4.541Zm4.2.164a5.208,5.208,0,0,1,2.5,4.309v.048a5.128,5.128,0,0,1-5.226,5.225h-.047a4.417,4.417,0,0,0-4.374,4.459h0c.3,3.167,3.113,4.651,5.891,4.541a7.556,7.556,0,0,0,1.174-.15c3.992-.828,6.8-4.849,6.8-9.226a9.6,9.6,0,0,0-6.71-9.213Zm-2.684,2.544a1.725,1.725,0,1,1-.034,0Zm0,9.828a1.765,1.765,0,1,1-1.718,1.778h0a1.743,1.743,0,0,1,1.664-1.751Zm-9.145,8.009v3.878H29.218V72.414Zm0,5.471L20.054,84l9.165-6.114Z" fill="#fff"/>
</svg>
