<svg xmlns="http://www.w3.org/2000/svg" width="238" height="300" viewBox="0 0 238 300">
  <g id="ic_object_501" transform="translate(-1554 -1040)">
    <path id="Path_96" data-name="Path 96" d="M142.241,20C76.907,20,23.5,73.46,23.5,138.858c0,53.979,37.333,101.73,89.185,115.225l23.852,61.765A6.252,6.252,0,0,0,142.759,320h0a6.738,6.738,0,0,0,6.222-4.152l22.3-61.246c52.37-12.976,90.222-60.727,90.222-115.225C260.981,73.46,208.093,20,142.241,20Z" transform="translate(1530.5 1020)" fill="#efd9ff"/>
    <path id="_3078503_building_city_cityscape_metropolis_office_icon" data-name="3078503_building_city_cityscape_metropolis_office_icon" d="M131.137,66.5a17.863,17.863,0,0,0,.281-3.031,17.365,17.365,0,1,0-34.706,0,17.861,17.861,0,0,0,.281,3.031,18.383,18.383,0,0,0-6.881,13.988c0,9.639,8.213,17.7,19.106,19.561V121.53h-27.3v-97.8a3.419,3.419,0,0,0-3.431-3.445H30.525a3.419,3.419,0,0,0-3.431,3.445v97.9H18V132.28H129.337V121.53H118.894V100.049C129.806,98.185,138,90.127,138,80.488A18.421,18.421,0,0,0,131.138,66.5ZM59.475,35.887a2.048,2.048,0,0,1,2.044-2.052h8.063a2.048,2.048,0,0,1,2.044,2.052v8.1a2.048,2.048,0,0,1-2.044,2.127H61.519a2.048,2.048,0,0,1-2.044-2.052Zm0,20.088a2.048,2.048,0,0,1,2.044-2.052h8.063a2.048,2.048,0,0,1,2.044,2.052v8.1a2.048,2.048,0,0,1-2.044,2.052H61.519a2.048,2.048,0,0,1-2.044-2.052Zm0,20.088a2.048,2.048,0,0,1,2.044-2.071h8.063a2.048,2.048,0,0,1,2.044,2.071V84.14a2.048,2.048,0,0,1-2.044,2.071H61.519a2.048,2.048,0,0,1-2.044-2.071Zm0,20.069a2.048,2.048,0,0,1,2.044-2.052h8.063a2.048,2.048,0,0,1,2.044,2.052v8.1a2.048,2.048,0,0,1-2.044,2.127H61.519a2.048,2.048,0,0,1-2.044-2.052ZM37.388,35.887a2.048,2.048,0,0,1,2.044-2.052h8.062a2.048,2.048,0,0,1,2.044,2.052v8.1a2.048,2.048,0,0,1-2.044,2.127H39.431a2.048,2.048,0,0,1-2.044-2.052Zm0,20.088a2.048,2.048,0,0,1,2.044-2.052h8.062a2.048,2.048,0,0,1,2.044,2.052v8.1a2.048,2.048,0,0,1-2.044,2.052H39.431a2.048,2.048,0,0,1-2.044-2.052Zm0,20.088a2.048,2.048,0,0,1,2.044-2.071h8.062a2.048,2.048,0,0,1,2.044,2.071V84.14a2.048,2.048,0,0,1-2.044,2.071H39.431a2.048,2.048,0,0,1-2.044-2.071Zm0,20.069a2.048,2.048,0,0,1,2.044-2.052h8.062a2.048,2.048,0,0,1,2.044,2.052v8.1a2.048,2.048,0,0,1-2.044,2.127H39.431a2.048,2.048,0,0,1-2.044-2.052Z" transform="translate(1595 1084.72)" fill="#5f2d82"/>
  </g>
</svg>
