<svg xmlns="http://www.w3.org/2000/svg" width="238" height="300" viewBox="0 0 238 300">
  <g id="ic_object_705" transform="translate(-1236 -2240)">
    <path id="Path_104" data-name="Path 104" d="M142.241,20C76.907,20,23.5,73.46,23.5,138.858c0,53.979,37.333,101.73,89.185,115.225l23.852,61.765A6.252,6.252,0,0,0,142.759,320h0a6.738,6.738,0,0,0,6.222-4.152l22.3-61.246c52.37-12.976,90.222-60.727,90.222-115.225C260.981,73.46,208.093,20,142.241,20Z" transform="translate(1212.5 2220)" fill="#fbf5d7"/>
    <g id="_1880377_garden_wheelbarrow_agriculture_farming_flower_icon" data-name="1880377_garden_wheelbarrow_agriculture_farming_flower_icon" transform="translate(1286 2303.5)">
      <g id="Group_1" data-name="Group 1" transform="translate(9 16.5)">
        <path id="Path_35" data-name="Path 35" d="M80.187,25.891A13.421,13.421,0,0,0,56.97,21.457a16.841,16.841,0,0,0-9.913-3.391,16.3,16.3,0,0,0-15.13,9.913A16,16,0,0,0,18.1,39.2L86.97,31.37A10.208,10.208,0,0,0,80.187,25.891Z" transform="translate(5.639 -16.5)" fill="#8f5806"/>
        <path id="Path_36" data-name="Path 36" d="M117.522,18.5,103.174,31.738h-.783L31.435,39.681a5.3,5.3,0,0,0-2.087,9.532L43.174,58.48l-2.087,1.853A19.765,19.765,0,0,0,28.3,55.3,20.225,20.225,0,0,0,9,75.425,19.857,19.857,0,0,0,28.565,95.283,19.857,19.857,0,0,0,48.13,75.425,19.1,19.1,0,0,0,44.739,64.57l3.13-2.648,13.565,9a5.2,5.2,0,0,0,2.87.794h.783l12.261-1.853L90.13,88.4a6.88,6.88,0,0,0,6,3.442h1.043a6.959,6.959,0,0,0,6.783-6.884l-3.391-19.063a5.275,5.275,0,0,0,2.087-3.177l4.435-24.359a4.641,4.641,0,0,0-.261-2.648l12.261-11.65H129v-5.3H117.522Zm-88.7,69.634A12.618,12.618,0,0,1,16.3,75.425a12.523,12.523,0,1,1,25.043,0A12.618,12.618,0,0,1,28.826,88.134Zm68.348-1.853H96.13a1.432,1.432,0,0,1-1.3-.794L83.348,68.806,95.87,66.952l3.13,18A1.741,1.741,0,0,1,97.174,86.281Z" transform="translate(-9 -13.283)" fill="#8f5806"/>
        <circle id="Ellipse_6" data-name="Ellipse 6" cx="3.913" cy="3.913" r="3.913" transform="translate(15.913 57.485)" fill="#8f5806"/>
      </g>
    </g>
  </g>
</svg>
