<svg xmlns="http://www.w3.org/2000/svg" width="238" height="300" viewBox="0 0 238 300">
  <g id="ic_object_403" transform="translate(-754 -1940)">
    <path id="Path_89" data-name="Path 89" d="M142.241,20C76.907,20,23.5,73.46,23.5,138.858c0,53.979,37.333,101.73,89.185,115.225l23.852,61.765A6.252,6.252,0,0,0,142.759,320h0a6.738,6.738,0,0,0,6.222-4.152l22.3-61.246c52.37-12.976,90.222-60.727,90.222-115.225C260.981,73.46,208.093,20,142.241,20Z" transform="translate(730.5 1920)" fill="#d4f7fc"/>
    <g id="Group_29" data-name="Group 29" transform="translate(432 866)">
      <path id="Path_56" data-name="Path 56" d="M41,349H155.667v-8H41Z" transform="translate(342.667 867.873)" fill="#1ac1d8"/>
      <path id="Path_57" data-name="Path 57" d="M149.667,121.333c-15.439,0-28-10.766-28-24a1.333,1.333,0,1,0-2.667,0c0,13.234-12.561,24-28,24s-28-10.766-28-24a1.333,1.333,0,1,0-2.667,0c0,13.234-12.561,24-28,24a1.333,1.333,0,0,0,0,2.667,33.782,33.782,0,0,0,17.187-4.6,1.319,1.319,0,0,1,.147.6v38.667H60.333v-52a1.328,1.328,0,0,0,2.335.871c.107.224.331.447.331.668v50.461H76.333v-37.92h0q1.3.617,2.669,1.127v36.794H89.667V124c.442,0,.886.027,1.333.027s.891-.027,1.333-.027v34.667H103V121.873q1.368-.508,2.667-1.126v37.92H119V108.205h0q.171-.332.331-.668a1.328,1.328,0,0,0,2.336-.871v52h10.667V120a1.319,1.319,0,0,1,.147-.6,33.782,33.782,0,0,0,17.187,4.6,1.333,1.333,0,1,0,0-2.667Z" transform="translate(350 1048)" fill="#1ac1d8"/>
      <path id="Path_58" data-name="Path 58" d="M367,405h-9.333V381h-16v24h-9.333a1.333,1.333,0,0,0,0,2.667H367A1.333,1.333,0,1,0,367,405Z" transform="translate(130 838.333)" fill="#1ac1d8"/>
      <path id="Path_59" data-name="Path 59" d="M77,405H67.667V381h-16v24H42.333a1.333,1.333,0,1,0,0,2.667H77A1.333,1.333,0,1,0,77,405Z" transform="translate(342.667 838.333)" fill="#1ac1d8"/>
    </g>
  </g>
</svg>
