<svg xmlns="http://www.w3.org/2000/svg" width="238" height="300" viewBox="0 0 238 300">
  <g id="ic_object_104" transform="translate(-992 -1040)">
    <path id="Path_74" data-name="Path 74" d="M142.241,20C76.907,20,23.5,73.46,23.5,138.858c0,53.979,37.333,101.73,89.185,115.225l23.852,61.765A6.252,6.252,0,0,0,142.759,320h0a6.738,6.738,0,0,0,6.222-4.152l22.3-61.246c52.37-12.976,90.222-60.727,90.222-115.225C260.981,73.46,208.093,20,142.241,20Z" transform="translate(968.5 1020)" fill="#cee6ff"/>
    <path id="Union_17" data-name="Union 17" d="M45,120H28a5.006,5.006,0,0,1-5-5V46.2l-2.533,1.421a3,3,0,0,1-2.936-5.233L56,20.8V11h8v9.8l38.468,21.58a3,3,0,1,1-2.936,5.233L97,46.2V115a5.005,5.005,0,0,1-5,5H75V95a5.006,5.006,0,0,0-5-5H50a5.005,5.005,0,0,0-5,5v25Zm0-60A15,15,0,1,0,60,45,15.016,15.016,0,0,0,45,60Zm59,60V78h11a5,5,0,0,1,5,5v32a5,5,0,0,1-5,5ZM5,120a5,5,0,0,1-5-5V83a5,5,0,0,1,5-5H16v42ZM56,11V5a5,5,0,0,1,5-5H74a5,5,0,0,1,5,5V6a5,5,0,0,1-5,5Z" transform="translate(1051 1101)" fill="#0b4d92"/>
  </g>
</svg>
