<svg xmlns="http://www.w3.org/2000/svg" width="238" height="300" viewBox="0 0 238 300">
  <g id="ic_object_502" transform="translate(-1792 -1040)">
    <path id="Path_97" data-name="Path 97" d="M142.241,20C76.907,20,23.5,73.46,23.5,138.858c0,53.979,37.333,101.73,89.185,115.225l23.852,61.765A6.252,6.252,0,0,0,142.759,320h0a6.738,6.738,0,0,0,6.222-4.152l22.3-61.246c52.37-12.976,90.222-60.727,90.222-115.225C260.981,73.46,208.093,20,142.241,20Z" transform="translate(1768.5 1020)" fill="#efd9ff"/>
    <g id="_6602703_health_healthcare_medical_icon" data-name="6602703_health_healthcare_medical_icon" transform="translate(1854.05 1100)">
      <path id="Path_29" data-name="Path 29" d="M111.559,18.942A4.127,4.127,0,0,0,108.03,17,27.032,27.032,0,0,0,86.069,27.874l-3.529,4.66A23.3,23.3,0,0,1,64.892,40.3H53.127a3.687,3.687,0,0,1-3.922-3.883,3.687,3.687,0,0,1,3.922-3.883h7.451c6.275,0,12.157-5.049,12.157-11.262v-.388A4.2,4.2,0,0,0,68.814,17H44.892C30.774,17,19.4,23.214,13.127,33.311L2.538,49.621a3.5,3.5,0,0,0,0,3.883L14.3,72.922a5.751,5.751,0,0,0,2.353,1.942h.784a5.611,5.611,0,0,0,2.353-.777A91.044,91.044,0,0,1,69.6,59.33a35.385,35.385,0,0,0,30.981-18.252l10.588-18.641C111.951,21.66,111.951,20.107,111.559,18.942Z" transform="translate(0 46.136)" fill="#5f2d82"/>
      <path id="Path_30" data-name="Path 30" d="M27.029,55.369H50.718c6.214,0,11.65,5.049,11.65,11.262v.777h0L86.447,42.553a24.857,24.857,0,0,0,0-34.563A24.909,24.909,0,0,0,69.748,1,24.506,24.506,0,0,0,52.66,8.379L50.718,10.32,48.777,8.379A23.821,23.821,0,0,0,31.689,1a23.627,23.627,0,0,0-16.7,7.379,24.857,24.857,0,0,0,0,34.563Zm4.272-23.3h6.214l6.6-6.6a4.747,4.747,0,0,1,3.5-1.165,4.953,4.953,0,0,1,2.718,1.942l3.883,7.767,4.66-11.262a3.383,3.383,0,0,1,3.107-2.33,3.786,3.786,0,0,1,3.5,1.553l7.767,11.65a3.932,3.932,0,0,1-6.6,4.272l-3.5-5.437L58.1,44.883A3.73,3.73,0,0,1,54.6,47.6h0a3.732,3.732,0,0,1-3.5-2.33L45.67,34.4l-3.883,3.883a2.932,2.932,0,0,1-2.718,1.553H31.3a3.669,3.669,0,0,1-3.883-3.883A3.669,3.669,0,0,1,31.3,32.068Z" transform="translate(18.513)" fill="#5f2d82"/>
    </g>
  </g>
</svg>
