<svg xmlns="http://www.w3.org/2000/svg" width="238" height="300" viewBox="0 0 238 300">
  <g id="ic_object_303" transform="translate(-750 -1640)">
    <path id="Path_78" data-name="Path 78" d="M142.241,20C76.907,20,23.5,73.46,23.5,138.858c0,53.979,37.333,101.73,89.185,115.225l23.852,61.765A6.252,6.252,0,0,0,142.759,320h0a6.738,6.738,0,0,0,6.222-4.152l22.3-61.246c52.37-12.976,90.222-60.727,90.222-115.225C260.981,73.46,208.093,20,142.241,20Z" transform="translate(726.5 1620)" fill="#fce1e3"/>
    <path id="Union_18" data-name="Union 18" d="M4.274,120a4.506,4.506,0,0,1,0-9H9V99.174A4.212,4.212,0,0,1,13.25,95H20V34H15.286A4.3,4.3,0,0,1,11,29.678V13.542a4.326,4.326,0,0,1,2.471-3.915A119.112,119.112,0,0,1,60,0a119.123,119.123,0,0,1,46.529,9.627A4.325,4.325,0,0,1,109,13.542V29.678A4.3,4.3,0,0,1,104.713,34H100V95h6.75A4.212,4.212,0,0,1,111,99.174V111h4.727a4.506,4.506,0,0,1,0,9Zm98.226-9v-7.652h-85V111ZM92,95V34H82V95ZM74,95V34H64V95ZM56,95V34H46V95ZM38,95V34H28V95ZM19.573,16.418v8.939h80.854V16.418A114.391,114.391,0,0,0,60,8.643,114.386,114.386,0,0,0,19.573,16.418Z" transform="translate(809 1701)" fill="#ef4453"/>
  </g>
</svg>
