<svg xmlns="http://www.w3.org/2000/svg" width="238" height="300" viewBox="0 0 238 300">
  <g id="ic_object_301" transform="translate(-274 -1640)">
    <path id="Path_80" data-name="Path 80" d="M142.241,20C76.907,20,23.5,73.46,23.5,138.858c0,53.979,37.333,101.73,89.185,115.225l23.852,61.765A6.252,6.252,0,0,0,142.759,320h0a6.738,6.738,0,0,0,6.222-4.152l22.3-61.246c52.37-12.976,90.222-60.727,90.222-115.225C260.981,73.46,208.093,20,142.241,20Z" transform="translate(250.5 1620)" fill="#fce1e3"/>
    <path id="Path_114" data-name="Path 114" d="M135,67.5a5,5,0,0,0,5-5v-22.5a5,5,0,0,0-3.1-4.65l-55-22.5a5.5,5.5,0,0,0-3.8,0l-55,22.5a5,5,0,0,0-3.1,4.65V62.5a5,5,0,0,0,5,5H35v25H25a5,5,0,0,0-5,5v20a5,5,0,0,0,5,5H135a5,5,0,0,0,5-5v-20a5,5,0,0,0-5-5H125v-25Zm-36.65,0H115v25H98.35ZM80,37.493a5,5,0,1,1-5,5A5,5,0,0,1,80,37.493Zm-8.35,30h16.7v25H71.65ZM45,67.5H61.65v25H45Z" transform="translate(313 1693.498)" fill="#ef4453"/>
  </g>
</svg>
