<svg xmlns="http://www.w3.org/2000/svg" width="238" height="300" viewBox="0 0 238 300">
  <g id="ic_object_307" transform="translate(-1702 -1640)">
    <path id="Path_82" data-name="Path 82" d="M142.241,20C76.907,20,23.5,73.46,23.5,138.858c0,53.979,37.333,101.73,89.185,115.225l23.852,61.765A6.252,6.252,0,0,0,142.759,320h0a6.738,6.738,0,0,0,6.222-4.152l22.3-61.246c52.37-12.976,90.222-60.727,90.222-115.225C260.981,73.46,208.093,20,142.241,20Z" transform="translate(1678.5 1620)" fill="#fce1e3"/>
    <g id="Group_38" data-name="Group 38" transform="translate(-0.467 0.231)">
      <path id="Path_126" data-name="Path 126" d="M1804.333,1736.388s1.745-24.422,4.361-30.789,7.239-5.408,10.9-2.965,10.815,9.158,25.556,10.554a63.022,63.022,0,0,0,28-3.4c2.355-.959,9.071-.262,8.111,7.675s-2.355,35.586-10.2,46.576-27.3,22.241-27.3,22.241,3.576-10.03-.785-33.493-6.454-27.213-15.525-26.951-9.856,4.1-15.961,7.5S1804.333,1736.388,1804.333,1736.388Z" transform="translate(0.112)" fill="#ef4453"/>
      <path id="Subtraction_50" data-name="Subtraction 50" d="M46.666,87.584A31.572,31.572,0,0,1,35.8,85.658a40.3,40.3,0,0,1-13.349-8.424C17.286,72.478,13.194,68.185,10,62.692,6.56,56.763,4.281,49.6,2.832,40.156Q2.625,38.8,2.427,37.52C1.037,28.495.032,21.973,0,17.513c-.032-4.588.984-6.9,3.4-7.744A6.635,6.635,0,0,1,5.583,9.46a41.627,41.627,0,0,1,7.271,1.071c.671.134,1.364.273,2.083.412A69.6,69.6,0,0,0,28.3,12.425a46.983,46.983,0,0,0,9.567-.955A72.692,72.692,0,0,0,58.743,3.352C62.36,1.406,64.974,0,67.167,0c.138,0,.276.006.409.017,2.1.183,3.522,1.858,4.6,5.43,1.02,3.374,1.7,8.283,2.571,14.5.306,2.2.623,4.47.991,6.945,1.254,8.433,1.434,15.134.567,21.09a53.074,53.074,0,0,1-5.9,17.348,63.627,63.627,0,0,1-11.225,15.45C54.9,85.038,50.91,87.447,47.96,87.56,47.527,87.576,47.092,87.584,46.666,87.584Zm-15.647-32.6a1.5,1.5,0,0,0-1.509,1.212c-.388,1.1.193,2.907,1.554,4.829C33.7,64.743,38.8,68.5,44.278,68.5a11.484,11.484,0,0,0,2.273-.226C53.8,66.8,56,57.893,55.887,54.056c-.037-1.288-.317-2.095-.748-2.156a1.223,1.223,0,0,0-.173-.012,5.774,5.774,0,0,0-2.61,1.291,22.071,22.071,0,0,1-9.49,3.955,13.814,13.814,0,0,1-2.149.169,17.007,17.007,0,0,1-5.882-1.161c-.362-.13-.7-.258-1.031-.382A9.093,9.093,0,0,0,31.019,54.981Zm-7.4-24.809a19.424,19.424,0,0,0-2.692.191c-5.1.716-8.263,4.267-8.752,7.405a3.175,3.175,0,0,0,1.505,3.6,4.014,4.014,0,0,0,1.746.451h.005c1.255,0,2.211-.76,3.422-1.721a14.9,14.9,0,0,1,4.018-2.486,4.741,4.741,0,0,1,1.748-.329,8.54,8.54,0,0,1,3.452.938l.3.134a6.89,6.89,0,0,0,2.556.8A2.336,2.336,0,0,0,33,37.609a3.556,3.556,0,0,0-.1-3.653C31.5,31.657,27.861,30.172,23.614,30.172Zm33.329-5.031a12.99,12.99,0,0,0-2.208.19,11.262,11.262,0,0,0-5.7,2.792,8.417,8.417,0,0,0-2.682,4.419,3.4,3.4,0,0,0,1.542,3.793,3.453,3.453,0,0,0,1.723.593c.973,0,1.583-.76,2.289-1.641a6.329,6.329,0,0,1,4.441-2.844,11.187,11.187,0,0,1,1.309-.076,17.485,17.485,0,0,1,3.848.507l.462.1a12.14,12.14,0,0,0,2.483.4,1.964,1.964,0,0,0,2.028-1.342,3.009,3.009,0,0,0-.5-2.822C64.661,27.255,61.275,25.141,56.943,25.141Z" transform="translate(1761.467 1733.185)" fill="#ef4453"/>
    </g>
  </g>
</svg>
