<svg xmlns="http://www.w3.org/2000/svg" width="238" height="300" viewBox="0 0 238 300">
  <g id="ic_object_703" transform="translate(-760 -2240)">
    <path id="Path_106" data-name="Path 106" d="M142.241,20C76.907,20,23.5,73.46,23.5,138.858c0,53.979,37.333,101.73,89.185,115.225l23.852,61.765A6.252,6.252,0,0,0,142.759,320h0a6.738,6.738,0,0,0,6.222-4.152l22.3-61.246c52.37-12.976,90.222-60.727,90.222-115.225C260.981,73.46,208.093,20,142.241,20Z" transform="translate(736.5 2220)" fill="#fbf5d7"/>
    <path id="Path_123" data-name="Path 123" d="M118.143,116.618h-6.667V73.247a21.928,21.928,0,0,0-10.638-18.723L72.267,37.434a21.926,21.926,0,0,0-22.543,0L21.152,54.524A21.94,21.94,0,0,0,10.524,73.247v43.371H3.857a2.848,2.848,0,1,0,0,5.7H118.143a2.848,2.848,0,1,0,0-5.7ZM16.238,73.247A16.218,16.218,0,0,1,24.1,59.4l28.571-17.09a16.186,16.186,0,0,1,16.657,0L97.9,59.4a16.206,16.206,0,0,1,7.857,13.843v43.371H78.143V75.792a2.849,2.849,0,0,0-2.857-2.848H46.714a2.849,2.849,0,0,0-2.857,2.848v40.826H16.238Z" transform="translate(818 2282.685)" fill="#8f5806"/>
  </g>
</svg>
