<svg xmlns="http://www.w3.org/2000/svg" width="238" height="300" viewBox="0 0 238 300">
  <g id="ic_object_701" transform="translate(-284 -2240)">
    <path id="Path_105" data-name="Path 105" d="M142.241,20C76.907,20,23.5,73.46,23.5,138.858c0,53.979,37.333,101.73,89.185,115.225l23.852,61.765A6.252,6.252,0,0,0,142.759,320h0a6.738,6.738,0,0,0,6.222-4.152l22.3-61.246c52.37-12.976,90.222-60.727,90.222-115.225C260.981,73.46,208.093,20,142.241,20Z" transform="translate(260.5 2220)" fill="#fbf5d7"/>
    <path id="_9004766_shield_security_protection_secure_icon" data-name="9004766_shield_security_protection_secure_icon" d="M109.347,46.644l-4.481-29.28C72.319,17.364,56.045,1,56.045,1S39.772,17.364,7.224,17.364L2.744,46.644a60.1,60.1,0,0,0,30.4,61.811L56.045,121l22.9-12.545a60.1,60.1,0,0,0,30.4-61.811ZM81.579,48.493,49.031,81.22a5.4,5.4,0,0,1-7.67,0L30.512,70.311a5.475,5.475,0,0,1,0-7.713,5.4,5.4,0,0,1,7.671,0L45.2,69.651,73.908,40.78a5.4,5.4,0,0,1,7.671,0,5.476,5.476,0,0,1,0,7.714Z" transform="translate(346.955 2300)" fill="#8f5806"/>
  </g>
</svg>
