<svg xmlns="http://www.w3.org/2000/svg" width="238" height="300" viewBox="0 0 238 300">
  <g id="ic_object_402" transform="translate(-516 -1940)">
    <path id="Path_88" data-name="Path 88" d="M142.241,20C76.907,20,23.5,73.46,23.5,138.858c0,53.979,37.333,101.73,89.185,115.225l23.852,61.765A6.252,6.252,0,0,0,142.759,320h0a6.738,6.738,0,0,0,6.222-4.152l22.3-61.246c52.37-12.976,90.222-60.727,90.222-115.225C260.981,73.46,208.093,20,142.241,20Z" transform="translate(492.5 1920)" fill="#d4f7fc"/>
    <path id="_8673820_ic_fluent_road_cone_filled_icon" data-name="8673820_ic_fluent_road_cone_filled_icon" d="M57.165,2a7.5,7.5,0,0,0-7.292,5.731C45.727,24.782,40.666,43.425,35.563,62H66.5a4.5,4.5,0,0,1,0,9H33.087q-1.66,6.033-3.3,12H72.5a4.5,4.5,0,0,1,0,9H27.334c-1.952,7.19-3.835,14.225-5.594,21H6.5a4.5,4.5,0,0,0,0,9h111a4.5,4.5,0,0,0,0-9H102.257L74.142,7.568A7.5,7.5,0,0,0,66.9,2Z" transform="translate(573 1999)" fill="#1ac1d8"/>
  </g>
</svg>
