<svg xmlns="http://www.w3.org/2000/svg" width="238" height="300" viewBox="0 0 238 300">
  <g id="ic_object_704" transform="translate(-998 -2240)">
    <path id="Path_107" data-name="Path 107" d="M142.241,20C76.907,20,23.5,73.46,23.5,138.858c0,53.979,37.333,101.73,89.185,115.225l23.852,61.765A6.252,6.252,0,0,0,142.759,320h0a6.738,6.738,0,0,0,6.222-4.152l22.3-61.246c52.37-12.976,90.222-60.727,90.222-115.225C260.981,73.46,208.093,20,142.241,20Z" transform="translate(974.5 2220)" fill="#fbf5d7"/>
    <path id="_1522017_forrst_ecology_forest_network_plant_icon" data-name="1522017_forrst_ecology_forest_network_plant_icon" d="M60,120a60,60,0,1,1,60-60A60,60,0,0,1,60,120Zm.034-90L30.025,90H57.881V77.166l-7.118-4.625,1.224-1.425,5.894,3.827v-9.3h4.3V71.7l5.74-3.144,1.086,1.509L62.186,73.8v4.157l11.1-4.775.9,1.6-12,5.158V90H89.975Z" transform="translate(1057 2301)" fill="#8f5806" fill-rule="evenodd"/>
  </g>
</svg>
