<svg xmlns="http://www.w3.org/2000/svg" width="238" height="300" viewBox="0 0 238 300">
  <g id="ic_object_404" transform="translate(-992 -1940)">
    <path id="Path_90" data-name="Path 90" d="M142.241,20C76.907,20,23.5,73.46,23.5,138.858c0,53.979,37.333,101.73,89.185,115.225l23.852,61.765A6.252,6.252,0,0,0,142.759,320h0a6.738,6.738,0,0,0,6.222-4.152l22.3-61.246c52.37-12.976,90.222-60.727,90.222-115.225C260.981,73.46,208.093,20,142.241,20Z" transform="translate(968.5 1920)" fill="#d4f7fc"/>
    <path id="Union_21" data-name="Union 21" d="M11.112,120a7.5,7.5,0,0,1,0-15H92.593a7.5,7.5,0,0,1,0,15Zm40.74-15H11.112c16.732-21.563,14.55-63.75,14.55-63.75v0a7.516,7.516,0,0,1-2.189-14.573,7.512,7.512,0,0,1,.644-9.139c-.183-.273-.353-.562-.513-.854a7.312,7.312,0,0,1-5.085,2.071,7.5,7.5,0,0,1,0-15A7.312,7.312,0,0,1,23.6,5.82,11.059,11.059,0,0,1,44.148,8.7a7.275,7.275,0,0,1,4-1.2A7.455,7.455,0,0,1,55.555,15a7.582,7.582,0,0,1-.368,2.228A9.1,9.1,0,0,1,61.112,15a9.316,9.316,0,0,1,9.258,9.374,9.541,9.541,0,0,1-.185,1.877h7.594a7.5,7.5,0,0,1,.265,14.994v0S75.86,83.437,92.593,105Zm.185-78.749a9.537,9.537,0,0,1-.185-1.877,9.39,9.39,0,0,1,.625-3.313,7.192,7.192,0,0,1-1.055.635,9.413,9.413,0,0,1,.43,2.678,9.537,9.537,0,0,1-.185,1.877ZM0,18.75A3.728,3.728,0,0,1,3.7,15a3.75,3.75,0,0,1,0,7.5A3.728,3.728,0,0,1,0,18.75Z" transform="translate(1061 2001)" fill="#1ac1d8"/>
  </g>
</svg>
