<svg xmlns="http://www.w3.org/2000/svg" width="238" height="300" viewBox="0 0 238 300">
  <g id="ic_object_101" transform="translate(-278 -1040)">
    <path id="Path_71" data-name="Path 71" d="M142.241,20C76.907,20,23.5,73.46,23.5,138.858c0,53.979,37.333,101.73,89.185,115.225l23.852,61.765A6.252,6.252,0,0,0,142.759,320h0a6.738,6.738,0,0,0,6.222-4.152l22.3-61.246c52.37-12.976,90.222-60.727,90.222-115.225C260.981,73.46,208.093,20,142.241,20Z" transform="translate(254.5 1020)" fill="#cee6ff"/>
    <path id="_5310239_education_graduation_hat_icon" data-name="5310239_education_graduation_hat_icon" d="M127.464,133.234a1.9,1.9,0,0,1,.013.193c.032,3.525-4.174,7.761-10.959,11.045-5.5,2.661-14.985,5.833-28.963,5.833s-23.466-3.172-28.963-5.833c-6.785-3.284-10.991-7.52-10.959-11.045a1.9,1.9,0,0,1,.013-.193l2.9-26.175a1.838,1.838,0,0,1,2.579-1.477L84.117,119.5a8.4,8.4,0,0,0,6.876,0l30.989-13.915a1.838,1.838,0,0,1,2.579,1.477Zm17.607-49.912L90.992,59.04a8.4,8.4,0,0,0-6.876,0L30.038,83.322a4.212,4.212,0,0,0,0,7.682l54.079,24.283a8.4,8.4,0,0,0,6.876,0l44.889-20.157v15.752a4.205,4.205,0,0,0-2.1,3.642v27.361h8.4V114.524a4.205,4.205,0,0,0-2.1-3.641V93.244L145.071,91a4.212,4.212,0,0,0,0-7.682Z" transform="translate(309.446 1056.696)" fill="#0b4d92"/>
  </g>
</svg>
