<svg xmlns="http://www.w3.org/2000/svg" width="238" height="300" viewBox="0 0 238 300">
  <g id="ic_object_103" transform="translate(-754 -1040)">
    <path id="Path_72" data-name="Path 72" d="M142.241,20C76.907,20,23.5,73.46,23.5,138.858c0,53.979,37.333,101.73,89.185,115.225l23.852,61.765A6.252,6.252,0,0,0,142.759,320h0a6.738,6.738,0,0,0,6.222-4.152l22.3-61.246c52.37-12.976,90.222-60.727,90.222-115.225C260.981,73.46,208.093,20,142.241,20Z" transform="translate(730.5 1020)" fill="#cee6ff"/>
    <path id="Union_16" data-name="Union 16" d="M83,100H73V77a5.006,5.006,0,0,0-5-5H52a5.006,5.006,0,0,0-5,5v23H37V35L60,15,83,35v65h0ZM47,56a3,3,0,0,0,3,3H70a3,3,0,0,0,0-6H50A3,3,0,0,0,47,56Zm42,44V48h26a5,5,0,0,1,5,5v47Zm-38,0V80a3,3,0,0,1,3-3H66a3,3,0,0,1,3,3v20ZM0,100V53a5,5,0,0,1,5-5H31v52ZM60,7.817,28.888,34,25,29.454,60,0,95,29.454,91.112,34Z" transform="translate(813 1101)" fill="#0b4d92"/>
  </g>
</svg>
