<svg xmlns="http://www.w3.org/2000/svg" width="238" height="300" viewBox="0 0 238 300">
  <g id="ic_object_305" transform="translate(-1226 -1640)">
    <path id="Path_84" data-name="Path 84" d="M142.241,20C76.907,20,23.5,73.46,23.5,138.858c0,53.979,37.333,101.73,89.185,115.225l23.852,61.765A6.252,6.252,0,0,0,142.759,320h0a6.738,6.738,0,0,0,6.222-4.152l22.3-61.246c52.37-12.976,90.222-60.727,90.222-115.225C260.981,73.46,208.093,20,142.241,20Z" transform="translate(1202.5 1620)" fill="#fce1e3"/>
    <path id="Union_19" data-name="Union 19" d="M0,108v-3a9,9,0,0,1,9-9H111a9,9,0,0,1,9,9v3ZM100,88H64V5a5.006,5.006,0,0,1,5-5H95a5.006,5.006,0,0,1,5,5V88h0ZM76,19V59a3,3,0,0,0,3,3h6a3,3,0,0,0,3-3V19a3,3,0,0,0-3-3H79A3,3,0,0,0,76,19ZM56,88H20V5a5.006,5.006,0,0,1,5-5H51a5.006,5.006,0,0,1,5,5V88h0ZM32,19V59a3,3,0,0,0,3,3h6a3,3,0,0,0,3-3V19a3,3,0,0,0-3-3H35A3,3,0,0,0,32,19Z" transform="translate(1285 1707)" fill="#ef4453"/>
  </g>
</svg>
