<svg xmlns="http://www.w3.org/2000/svg" width="238" height="300" viewBox="0 0 238 300">
  <g id="ic_object_5" transform="translate(-1316 -1040)">
    <path id="Path_95" data-name="Path 95" d="M142.241,20C76.907,20,23.5,73.46,23.5,138.858c0,53.979,37.333,101.73,89.185,115.225l23.852,61.765A6.252,6.252,0,0,0,142.759,320h0a6.738,6.738,0,0,0,6.222-4.152l22.3-61.246c52.37-12.976,90.222-60.727,90.222-115.225C260.981,73.46,208.093,20,142.241,20Z" transform="translate(1292.5 1020)" fill="#efd9ff"/>
    <path id="_309034_worker_man_profile_user_icon" data-name="309034_worker_man_profile_user_icon" d="M114.3,63c0-36-31.2-45-31.2-45L73.5,36V12a5.669,5.669,0,0,0-6-6h-12a5.669,5.669,0,0,0-6,6V36l-9-18S9.3,27,9.3,63c0,0-7.2,1.2-7.2,15,0,0,18,6,60,6s60-6,60-6C121.5,64.2,114.3,63,114.3,63Z" transform="translate(1372.9 1116)" fill="#5f2d82"/>
  </g>
</svg>
