<svg xmlns="http://www.w3.org/2000/svg" width="238" height="300" viewBox="0 0 238 300">
  <g id="ic_object_6" transform="translate(-1281 -1340)">
    <path id="Path_99" data-name="Path 99" d="M142.241,20C76.907,20,23.5,73.46,23.5,138.858c0,53.979,37.333,101.73,89.185,115.225l23.852,61.765A6.252,6.252,0,0,0,142.759,320h0a6.738,6.738,0,0,0,6.222-4.152l22.3-61.246c52.37-12.976,90.222-60.727,90.222-115.225C260.981,73.46,208.093,20,142.241,20Z" transform="translate(1257.5 1320)" fill="#fbe6d3"/>
    <path id="Subtraction_48" data-name="Subtraction 48" d="M115,120H5a5.006,5.006,0,0,1-5-5V75H34V0H86V75h34v40A5.005,5.005,0,0,1,115,120ZM104,88a4,4,0,0,0-4,4v7a4,4,0,1,0,8,0V92A4.005,4.005,0,0,0,104,88ZM90,88a4.005,4.005,0,0,0-4,4v7a4,4,0,1,0,8,0V92A4,4,0,0,0,90,88ZM67,88a4,4,0,0,0-4,4v7a4,4,0,1,0,8,0V92A4.005,4.005,0,0,0,67,88ZM53,88a4.005,4.005,0,0,0-4,4v7a4,4,0,1,0,8,0V92A4,4,0,0,0,53,88ZM30,88a4.005,4.005,0,0,0-4,4v7a4,4,0,0,0,8,0V92A4.005,4.005,0,0,0,30,88ZM16,88a4,4,0,0,0-4,4v7a4,4,0,0,0,8,0V92A4,4,0,0,0,16,88ZM54.5,62.428,60,66l5.5-3.572h-11ZM66.437,39.711V66H72V39.711ZM48,39.711V66h5.556V39.711Zm6.5,19.551v2.258h11V59.261Zm5.465-6.3a2.61,2.61,0,0,0-2.621,2.612,3.145,3.145,0,0,0,3.106,2.679,3.348,3.348,0,0,0,.428-.029,4.124,4.124,0,0,0,.7-.085,5.407,5.407,0,0,0,4.085-5.4,5.589,5.589,0,0,0-4.031-5.37,2.99,2.99,0,0,1,1.492,2.513v.029a3.011,3.011,0,0,1-1.925,2.829,3.207,3.207,0,0,1-1.168.22h-.071Zm-.421-5.726a3.206,3.206,0,0,0-.435.03v.007a4.176,4.176,0,0,0-.7.085,5.4,5.4,0,0,0-4.089,5.394,5.6,5.6,0,0,0,4.04,5.377,2.989,2.989,0,0,1-1.5-2.517v-.035a3.02,3.02,0,0,1,1.929-2.83,3.173,3.173,0,0,1,1.156-.217h.064a2.61,2.61,0,0,0,2.627-2.616A3.133,3.133,0,0,0,59.547,47.232ZM54.5,44.192h0v2.265h11V44.192Zm0-4.481h0L60,43.28l5.5-3.569h-11Zm-.8-7.879h0c-.018.22-.027.417-.027.6a6.33,6.33,0,0,0,12.659,0,4.769,4.769,0,0,0-.032-.587,6.44,6.44,0,0,1-2.352,3.4A6.533,6.533,0,0,1,60,36.561h-.008a6.534,6.534,0,0,1-3.947-1.318A6.445,6.445,0,0,1,53.7,31.832Zm6.291-5.084a4.454,4.454,0,1,0,3.183,7.6,4.41,4.41,0,0,0,1.313-3.153A4.481,4.481,0,0,0,60,26.746H59.99Zm-.967-7.591h0c-.035.017-.859.427-.989.829a.646.646,0,0,0,.1.475l0,0a.819.819,0,0,1,.124.429,2.115,2.115,0,0,1-.536.992l0,0a1.929,1.929,0,0,0-.532,1.048,2.872,2.872,0,0,0,2.826,2.839h.014a3.021,3.021,0,0,0,2.048-.8,3.064,3.064,0,0,0,.88-2.043A1.921,1.921,0,0,0,62.637,22a2,2,0,0,1-.327-.92,1.024,1.024,0,0,1,.173-.475.888.888,0,0,0,.17-.543c-.073-.458-.828-1.13-.835-1.137a2.981,2.981,0,0,1,.112.945,1.333,1.333,0,0,1-.306.55,1.19,1.19,0,0,0-.3.588,1.1,1.1,0,0,0,.211.6,1.008,1.008,0,0,1,.207.651c-.049.26-.236.674-.533.68H61.2c-.289,0-.509-.406-.567-.68a1.493,1.493,0,0,1,.255-.954l0-.005a1.768,1.768,0,0,0,.276-.863,3.157,3.157,0,0,0-.48-1.307l0-.006a2.856,2.856,0,0,1-.473-1.409A2.806,2.806,0,0,1,60.4,17c-.006,0-.7.319-.805.643a1.017,1.017,0,0,0,.194.768,1.362,1.362,0,0,1,.225.669,2.031,2.031,0,0,1-.362.905,2.029,2.029,0,0,0-.363.915,1.3,1.3,0,0,0,.217.638,1.067,1.067,0,0,1,.2.725c-.066.275-.314.681-.638.681h-.012c-.332-.011-.568-.4-.61-.681a1.084,1.084,0,0,1,.337-.768,1.26,1.26,0,0,0,.353-.71.906.906,0,0,0-.229-.5.867.867,0,0,1-.228-.523,1.466,1.466,0,0,1,.339-.6Zm.97,37.48a1.041,1.041,0,0,1-.4-.078,1.026,1.026,0,0,1,.394-1.975,1.04,1.04,0,0,1,.96.634,1.015,1.015,0,0,1-.224,1.12A1.037,1.037,0,0,1,59.993,56.637Zm0-5.729a1.032,1.032,0,1,1,0-2.064,1.053,1.053,0,0,1,.734.306,1.02,1.02,0,0,1,.3.731A1.033,1.033,0,0,1,59.993,50.909Z" transform="translate(1340 1401)" fill="#f58929"/>
  </g>
</svg>
