<svg xmlns="http://www.w3.org/2000/svg" width="238" height="300" viewBox="0 0 238 300">
  <g id="ic_object_405" transform="translate(-1230 -1940)">
    <path id="Path_85" data-name="Path 85" d="M142.241,20C76.907,20,23.5,73.46,23.5,138.858c0,53.979,37.333,101.73,89.185,115.225l23.852,61.765A6.252,6.252,0,0,0,142.759,320h0a6.738,6.738,0,0,0,6.222-4.152l22.3-61.246c52.37-12.976,90.222-60.727,90.222-115.225C260.981,73.46,208.093,20,142.241,20Z" transform="translate(1206.5 1920)" fill="#d4f7fc"/>
    <path id="Union_22" data-name="Union 22" d="M112,116V84a4,4,0,0,1,8,0v32a4,4,0,0,1-8,0Zm-37-1A29.977,29.977,0,0,1,45,85V64H44a4,4,0,1,1,0-8H76a4,4,0,1,1,0,8H75V80a5.005,5.005,0,0,0,5,5h32v30H75Zm0-67H45V40a5.005,5.005,0,0,0-5-5H8v1a4,4,0,0,1-8,0V4A4,4,0,0,1,8,4V5H45A29.973,29.973,0,0,1,75,35V48Z" transform="translate(1289 2001)" fill="#1ac1d8"/>
  </g>
</svg>
