<svg xmlns="http://www.w3.org/2000/svg" width="238" height="300" viewBox="0 0 238 300">
  <g id="ic_object_102" transform="translate(-516 -1040)">
    <path id="Path_73" data-name="Path 73" d="M142.241,20C76.907,20,23.5,73.46,23.5,138.858c0,53.979,37.333,101.73,89.185,115.225l23.852,61.765A6.252,6.252,0,0,0,142.759,320h0a6.738,6.738,0,0,0,6.222-4.152l22.3-61.246c52.37-12.976,90.222-60.727,90.222-115.225C260.981,73.46,208.093,20,142.241,20Z" transform="translate(492.5 1020)" fill="#cee6ff"/>
    <path id="Union_15" data-name="Union 15" d="M46,90H5a5.006,5.006,0,0,1-5-5V25H34L60,0,86,25h34V85a5.005,5.005,0,0,1-5,5H74V53a5.005,5.005,0,0,0-5-5H51a5.006,5.006,0,0,0-5,5V90h0Zm54-28v7a4,4,0,0,0,8,0V62a4,4,0,0,0-8,0ZM86,62v7a4,4,0,0,0,8,0V62a4,4,0,0,0-8,0ZM26,62v7a4,4,0,0,0,8,0V62a4,4,0,0,0-8,0ZM12,62v7a4,4,0,0,0,8,0V62a4,4,0,0,0-8,0Zm88-21v7a4,4,0,0,0,8,0V41a4,4,0,1,0-8,0ZM86,41v7a4,4,0,0,0,8,0V41a4,4,0,1,0-8,0ZM26,41v7a4,4,0,0,0,8,0V41a4,4,0,1,0-8,0ZM12,41v7a4,4,0,0,0,8,0V41a4,4,0,1,0-8,0ZM50,29A10,10,0,1,0,60,19,10.011,10.011,0,0,0,50,29Zm1,61V56a3,3,0,0,1,3-3H66a3,3,0,0,1,3,3V90Z" transform="translate(575 1116)" fill="#0b4d92"/>
  </g>
</svg>
