<svg xmlns="http://www.w3.org/2000/svg" width="238" height="300" viewBox="0 0 238 300">
  <g id="ic_object_601" transform="translate(-1519 -1340)">
    <path id="Path_100" data-name="Path 100" d="M142.241,20C76.907,20,23.5,73.46,23.5,138.858c0,53.979,37.333,101.73,89.185,115.225l23.852,61.765A6.252,6.252,0,0,0,142.759,320h0a6.738,6.738,0,0,0,6.222-4.152l22.3-61.246c52.37-12.976,90.222-60.727,90.222-115.225C260.981,73.46,208.093,20,142.241,20Z" transform="translate(1495.5 1320)" fill="#fbe6d3"/>
    <g id="Home" transform="translate(1578 1410)">
      <path id="Path_13" data-name="Path 13" d="M121.668,65.117a4.232,4.232,0,0,1-3.943,2.635H104.865v34a4.282,4.282,0,0,1-4.286,4.25H79.147V76.251a17.146,17.146,0,0,0-34.291,0V106H23.425a4.282,4.282,0,0,1-4.286-4.25v-34H6.28a4.271,4.271,0,0,1-3.043-7.267L58.959,5.241a4.346,4.346,0,0,1,6.087,0l55.722,55.244A4.229,4.229,0,0,1,121.668,65.117Z" transform="translate(-2.002 -3.997)" fill="#f58929"/>
    </g>
  </g>
</svg>
