<svg xmlns="http://www.w3.org/2000/svg" width="238" height="300" viewBox="0 0 238 300">
  <g id="ic_object_304" transform="translate(-988 -1640)">
    <path id="Path_77" data-name="Path 77" d="M142.241,20C76.907,20,23.5,73.46,23.5,138.858c0,53.979,37.333,101.73,89.185,115.225l23.852,61.765A6.252,6.252,0,0,0,142.759,320h0a6.738,6.738,0,0,0,6.222-4.152l22.3-61.246c52.37-12.976,90.222-60.727,90.222-115.225C260.981,73.46,208.093,20,142.241,20Z" transform="translate(964.5 1620)" fill="#fce1e3"/>
    <path id="_8665131_baseball_sport_icon" data-name="8665131_baseball_sport_icon" d="M100.688,63.961c0-3.811,3.834-3.94,7.029-3.94h.687a50.369,50.369,0,0,1,11.531,1.367c0-.475.065-.92.065-1.389A60,60,0,0,0,60,0c-.492,0-1.148.06-1.43.071A48.461,48.461,0,0,1,60,11.214c0,1.406-.066,2.82-.183,4.219a3.752,3.752,0,0,1-7.491-.308c0-.406.168-1.676.168-3.912A40.926,40.926,0,0,0,51.037.738,59.926,59.926,0,0,0,.722,51.164,40.75,40.75,0,0,0,11.14,52.521c2.36,0,3.654-.19,4.083-.19a3.824,3.824,0,0,1,3.865,3.748c0,3.776-3.78,3.93-6.968,3.93L11.288,60A48.941,48.941,0,0,1,.073,58.568C.06,58.852,0,59.508,0,60a60,60,0,0,0,60,60c.484,0,.952-.06,1.434-.072A48.865,48.865,0,0,1,60,108.8c0-1.333.059-2.667.168-3.991a3.835,3.835,0,0,1,3.865-3.424,3.878,3.878,0,0,1,3.619,3.731c0,.553-.153,1.378-.153,3.684a40.972,40.972,0,0,0,1.455,10.467,59.952,59.952,0,0,0,50.32-50.391A41,41,0,0,0,108.789,67.5c-2.454,0-3.806.21-4.249.21C103.9,67.711,100.688,67.148,100.688,63.961ZM55.828,30.211c0,6.511-18.352,25.336-25.453,25.336a3.751,3.751,0,0,1-1.6-7.141c18.82-8.925,17.862-22.148,23.295-22.148A4.015,4.015,0,0,1,55.828,30.211Zm37.336,37.9a3.745,3.745,0,0,1-2.14,3.382C72.551,80.3,73.23,93.757,67.835,93.757A3.767,3.767,0,0,1,64.083,90c0-6.562,18.349-25.641,25.336-25.641A3.759,3.759,0,0,1,93.164,68.109Z" transform="translate(1047 1701)" fill="#ef4453"/>
  </g>
</svg>
