<svg xmlns="http://www.w3.org/2000/svg" width="40" height="40" viewBox="0 0 40 40">
  <g id="ic_dashboard_license" transform="translate(-1546 -361)">
    <g id="Rounded_Rectangle_62_copy_5" data-name="Rounded Rectangle 62 copy 5" transform="translate(540 253)" fill="none">
      <path d="M1036,136a4.739,4.739,0,0,0-5-5v-4a10.668,10.668,0,0,0,5-9,10,10,0,1,0-20,0,10.669,10.669,0,0,0,5,9v4a4.756,4.756,0,0,0-5,5v2h20Z" stroke="none"/>
      <path d="M 1034 135.9998016357422 C 1033.999877929688 134.1214904785156 1032.878295898438 133.0000152587891 1030.999877929688 133.0000152587891 L 1028.999877929688 133.0000152587891 L 1028.999877929688 131.0000152587891 L 1028.999877929688 127.0000152587891 L 1028.999877929688 125.8548049926758 L 1029.987548828125 125.2751770019531 C 1031.141845703125 124.5977020263672 1032.136474609375 123.5522308349609 1032.864013671875 122.2518081665039 C 1033.60693359375 120.9237518310547 1033.999633789063 119.4533843994141 1033.999633789063 117.9995956420898 C 1033.999633789063 113.5883865356445 1030.410888671875 109.9995956420898 1025.999755859375 109.9995956420898 C 1021.588500976563 109.9995956420898 1017.999694824219 113.5883865356445 1017.999694824219 117.9995956420898 C 1017.999694824219 119.4532775878906 1018.392456054688 120.9236526489258 1019.135498046875 122.2517013549805 C 1019.863159179688 123.5521240234375 1020.85791015625 124.5976486206055 1022.012329101563 125.2751235961914 L 1023 125.8548049926758 L 1023 127.0000152587891 L 1023 131.0000152587891 L 1023 133.0000152587891 L 1021 133.0000152587891 C 1020.096740722656 133.0000152587891 1019.341003417969 133.2720642089844 1018.814453125 133.7867584228516 C 1018.281616210938 134.3075866699219 1017.999938964844 135.07275390625 1017.999877929688 135.9998016357422 L 1034 135.9998016357422 M 1035.999633789063 137.9998016357422 L 1015.999694824219 137.9998016357422 L 1015.999877929688 136.0000152587891 C 1015.999877929688 132.9506988525391 1018.110595703125 131.0000152587891 1021 131.0000152587891 C 1021 131.0000152587891 1021 128.8077087402344 1021 127.0000152587891 C 1018.040771484375 125.2632827758789 1015.999694824219 121.6788101196289 1015.999694824219 117.9995956420898 C 1015.999694824219 112.4769134521484 1020.476928710938 107.9995956420898 1025.999755859375 107.9995956420898 C 1031.522705078125 107.9995956420898 1035.999633789063 112.4769134521484 1035.999633789063 117.9995956420898 C 1035.999633789063 121.6788101196289 1033.958984375 125.2632827758789 1030.999877929688 127.0000152587891 C 1030.999877929688 127.8701782226563 1030.999877929688 131.0000152587891 1030.999877929688 131.0000152587891 C 1033.889404296875 131.0000152587891 1036 132.9188079833984 1036 136.0000152587891 L 1035.999633789063 137.9998016357422 Z" stroke="none" fill="#c2c2c2"/>
    </g>
    <g id="Rounded_Rectangle_62_copy_4" data-name="Rounded Rectangle 62 copy 4" transform="translate(540 253)" fill="none">
      <path d="M1011,148h30a4.93,4.93,0,0,0,5-5v-7h-40v7A4.93,4.93,0,0,0,1011,148Z" stroke="none"/>
      <path d="M 1040.999877929688 145.9996948242188 C 1042.710205078125 145.9996948242188 1043.999877929688 144.7100830078125 1043.999877929688 143.0000305175781 L 1043.999755859375 137.9998168945313 L 1007.999938964844 137.9998168945313 L 1008 142.9999847412109 C 1008 144.7100830078125 1009.289672851563 145.9996948242188 1010.999816894531 145.9996948242188 L 1040.999877929688 145.9996948242188 M 1040.999877929688 147.9996948242188 L 1010.999816894531 147.9996948242188 C 1008.23828125 147.9996948242188 1006 145.8719177246094 1006 142.9999847412109 L 1005.999877929688 135.9998168945313 L 1045.999755859375 135.9998168945313 L 1045.999877929688 142.9999847412109 C 1045.999877929688 145.8719177246094 1043.761352539063 147.9996948242188 1040.999877929688 147.9996948242188 Z" stroke="none" fill="#d7d7d7"/>
    </g>
  </g>
</svg>
