<svg xmlns="http://www.w3.org/2000/svg" width="40" height="40" viewBox="0 0 40 40">
  <g id="ic_dashboard_org" transform="translate(-1554 -107)">
    <g id="Rounded_Rectangle_63_copy_3" data-name="Rounded Rectangle 63 copy 3" transform="translate(1559 107)" fill="none" stroke="#d7d7d7" stroke-width="2">
      <path d="M5,0H25a5,5,0,0,1,5,5V40a0,0,0,0,1,0,0H0a0,0,0,0,1,0,0V5A5,5,0,0,1,5,0Z" stroke="none"/>
      <path d="M5,1H25a4,4,0,0,1,4,4V38a1,1,0,0,1-1,1H2a1,1,0,0,1-1-1V5A4,4,0,0,1,5,1Z" fill="none"/>
    </g>
    <g id="Rounded_Rectangle_63_copy_4" data-name="Rounded Rectangle 63 copy 4" transform="translate(952 -1)" fill="none">
      <path d="M622,130h0a4.768,4.768,0,0,1,5,5.143V148H617V135A4.72,4.72,0,0,1,622,130Z" stroke="none"/>
      <path d="M 621.9998168945313 131.9996948242188 C 620.0933837890625 131.9996948242188 619 133.0932769775391 619 135.0000152587891 L 618.9998779296875 145.9996948242188 L 624.9996948242188 145.9996948242188 L 624.9996948242188 135.1424865722656 C 624.9996948242188 133.1452178955078 623.9063110351563 131.9996948242188 621.9998168945313 131.9996948242188 M 621.9998168945313 129.9996948242188 C 624.97998046875 129.9996948242188 626.9996948242188 131.9897003173828 626.9996948242188 135.1424865722656 L 626.9996948242188 147.9996948242188 L 616.9998779296875 147.9996948242188 L 617 135.0000152587891 C 617 132.0346984863281 618.9570922851563 129.9996948242188 621.9998168945313 129.9996948242188 Z" stroke="none" fill="#c2c2c2"/>
    </g>
    <rect id="Rectangle_34_copy_14" data-name="Rectangle 34 copy 14" width="40" height="2" transform="translate(1554 145)" fill="#c2c2c2"/>
    <rect id="Rectangle_34_copy_16" data-name="Rectangle 34 copy 16" width="10" height="2" transform="translate(1569 115)" fill="#c2c2c2"/>
    <rect id="Rectangle_34_copy_17" data-name="Rectangle 34 copy 17" width="10" height="2" transform="translate(1569 121)" fill="#c2c2c2"/>
  </g>
</svg>
