<svg xmlns="http://www.w3.org/2000/svg" width="16" height="15.993" viewBox="0 0 16 15.993">
  <g id="ic_menu_1" transform="translate(-25 -147)" fill="none">
    <path d="M40.295,151.709a8,8,0,0,0-6.559-4.676c0,.939-.008,6.873-.008,6.873S39.774,151.918,40.295,151.709ZM33,155v-8a7.989,7.989,0,1,0,7.63,5.587C40.01,152.8,33,155,33,155Z" stroke="none"/>
    <path d="M 31.99980163574219 148.0707855224609 C 28.61199188232422 148.5572509765625 25.99980163574219 151.4775695800781 25.99980163574219 154.9962005615234 C 25.99980163574219 158.8540954589844 29.13998413085938 161.9927062988281 32.99980163574219 161.9927062988281 C 36.859619140625 161.9927062988281 39.99980163574219 158.8540954589844 39.99980163574219 154.9962005615234 C 39.99980163574219 154.6164245605469 39.96955490112305 154.2396240234375 39.90949249267578 153.8686218261719 C 37.84049224853516 154.5260162353516 33.52713012695313 155.8788604736328 33.29903793334961 155.9503936767578 L 31.99980163574219 156.3578338623047 L 31.99980163574219 154.9962005615234 L 31.99980163574219 148.0707855224609 M 34.73458480834961 148.2165069580078 C 34.73322296142578 149.4430084228516 34.73075866699219 151.2714080810547 34.72902679443359 152.5227813720703 C 36.17346954345703 152.0459289550781 37.80167007446289 151.5055694580078 38.84987640380859 151.1518096923828 C 37.89125061035156 149.6966094970703 36.41971588134766 148.6471099853516 34.73458480834961 148.2165069580078 M 32.99980163574219 146.9996032714844 C 32.99980163574219 148.0220031738281 32.99980163574219 154.9962005615234 32.99980163574219 154.9962005615234 C 32.99980163574219 154.9962005615234 40.01040649414063 152.797607421875 40.63019561767578 152.5865020751953 C 40.87030029296875 153.3468933105469 40.99980163574219 154.1563873291016 40.99980163574219 154.9962005615234 C 40.99980163574219 159.41259765625 37.4180908203125 162.9927062988281 32.99980163574219 162.9927062988281 C 28.58159255981445 162.9927062988281 24.99980163574219 159.41259765625 24.99980163574219 154.9962005615234 C 24.99980163574219 150.5798187255859 28.58159255981445 146.9996032714844 32.99980163574219 146.9996032714844 Z M 33.73559188842773 147.0329895019531 C 36.66390609741211 147.2998199462891 39.13619613647461 149.1442108154297 40.29459381103516 151.7087097167969 C 39.77359008789063 151.9176025390625 33.72709274291992 153.9058074951172 33.72709274291992 153.9058074951172 C 33.72709274291992 153.9058074951172 33.73559188842773 147.9723052978516 33.73559188842773 147.0329895019531 Z" stroke="none" fill="#959595"/>
  </g>
</svg>
