<svg xmlns="http://www.w3.org/2000/svg" width="16" height="16" viewBox="0 0 16 16">
  <g id="ic_menu_10" transform="translate(-33 -569)">
    <g id="Rounded_Rectangle_29_copy_4" data-name="Rounded Rectangle 29 copy 4" transform="translate(8 -400)" fill="none">
      <path d="M25,969H38l3,3v13H25Z" stroke="none"/>
      <path d="M 26.00000381469727 969.9996948242188 L 26.00000381469727 983.9996948242188 L 39.99989700317383 983.9996948242188 L 39.99989700317383 972.4137573242188 L 37.58579254150391 969.9996948242188 L 26.00000381469727 969.9996948242188 M 25.00000381469727 968.9996948242188 L 38.00000381469727 968.9996948242188 L 40.99989700317383 971.9995727539063 L 40.99989700317383 984.9996948242188 L 25.00000381469727 984.9996948242188 L 25.00000381469727 968.9996948242188 Z" stroke="none" fill="#959595"/>
    </g>
    <path id="Rectangle_34_copy_25" data-name="Rectangle 34 copy 25" d="M33,977.73l-3.285,3.285-.73-.73L32.27,977l-3.285-3.285.73-.73L33,976.27l3.285-3.285.73.73L33.73,977l3.285,3.285-.73.73Z" transform="translate(8 -400)" fill="#959595"/>
  </g>
</svg>
