<svg xmlns="http://www.w3.org/2000/svg" width="15.989" height="15.989" viewBox="0 0 15.989 15.989">
  <g id="ic_menu_18" transform="translate(-25 -527)" fill="none">
    <path d="M39.54,542.99H26.45A1.452,1.452,0,0,1,25,541.54V528.45A1.452,1.452,0,0,1,26.45,527H39.54a1.452,1.452,0,0,1,1.45,1.45v13.09A1.452,1.452,0,0,1,39.54,542.99ZM29,538v1h8v-1Zm0-4v1h8v-1Z" stroke="none"/>
    <path d="M 39.53968811035156 541.9898071289063 C 39.78776931762695 541.9898071289063 39.98960876464844 541.7879638671875 39.98960876464844 541.5399169921875 L 39.98960876464844 528.4503173828125 C 39.98960876464844 528.2022705078125 39.78776931762695 528.0004272460938 39.53968811035156 528.0004272460938 L 26.45010948181152 528.0004272460938 C 26.2020320892334 528.0004272460938 26.00018882751465 528.2022705078125 26.00018882751465 528.4503173828125 L 26.00018882751465 541.5399169921875 C 26.00018882751465 541.7879638671875 26.2020320892334 541.9898071289063 26.45010948181152 541.9898071289063 L 39.53968811035156 541.9898071289063 M 27.99979400634766 537.0001831054688 L 28.99979400634766 537.0001831054688 L 36.99990081787109 537.0001831054688 L 37.99990081787109 537.0001831054688 L 37.99990081787109 538.0001831054688 L 37.99990081787109 539.0001220703125 L 37.99990081787109 540.0001220703125 L 36.99990081787109 540.0001220703125 L 28.99979400634766 540.0001220703125 L 27.99979400634766 540.0001220703125 L 27.99979400634766 539.0001220703125 L 27.99979400634766 538.0001831054688 L 27.99979400634766 537.0001831054688 M 27.99979400634766 532.9996948242188 L 28.99979400634766 532.9996948242188 L 36.99990081787109 532.9996948242188 L 37.99990081787109 532.9996948242188 L 37.99990081787109 533.9996948242188 L 37.99990081787109 534.9996337890625 L 37.99990081787109 535.9996337890625 L 36.99990081787109 535.9996337890625 L 28.99979400634766 535.9996337890625 L 27.99979400634766 535.9996337890625 L 27.99979400634766 534.9996337890625 L 27.99979400634766 533.9996948242188 L 27.99979400634766 532.9996948242188 M 39.53968811035156 542.9898071289063 L 26.45010948181152 542.9898071289063 C 25.65060997009277 542.9898071289063 25.00018882751465 542.3394165039063 25.00018882751465 541.5399169921875 L 25.00018882751465 528.4503173828125 C 25.00018882751465 527.6508178710938 25.65060997009277 527.0004272460938 26.45010948181152 527.0004272460938 L 39.53968811035156 527.0004272460938 C 40.33918762207031 527.0004272460938 40.98960876464844 527.6508178710938 40.98960876464844 528.4503173828125 L 40.98960876464844 541.5399169921875 C 40.98960876464844 542.3394165039063 40.33918762207031 542.9898071289063 39.53968811035156 542.9898071289063 Z M 28.99979400634766 538.0001831054688 L 28.99979400634766 539.0001220703125 L 36.99990081787109 539.0001220703125 L 36.99990081787109 538.0001831054688 L 28.99979400634766 538.0001831054688 Z M 28.99979400634766 533.9996948242188 L 28.99979400634766 534.9996337890625 L 36.99990081787109 534.9996337890625 L 36.99990081787109 533.9996948242188 L 28.99979400634766 533.9996948242188 Z" stroke="none" fill="#959595"/>
  </g>
</svg>
