<svg xmlns="http://www.w3.org/2000/svg" width="16" height="16" viewBox="0 0 16 16">
  <g id="ic_menu_15" transform="translate(-140 -276)">
    <g id="Rounded_Rectangle_62_copy_2" data-name="Rounded Rectangle 62 copy 2" transform="translate(115 6)" fill="none">
      <path d="M27,286H39a2,2,0,0,0,2-2v-3H25v3A2,2,0,0,0,27,286Z" stroke="none"/>
      <path d="M 39.00000381469727 284.9999084472656 C 39.55134582519531 284.9999084472656 39.99989700317383 284.5513000488281 39.99989700317383 283.9999084472656 L 39.99989700317383 281.9999084472656 L 26.00000381469727 281.9999084472656 L 26.00000381469727 283.9999084472656 C 26.00000381469727 284.5513000488281 26.44855499267578 284.9999084472656 26.99989700317383 284.9999084472656 L 39.00000381469727 284.9999084472656 M 39.00000381469727 285.9999084472656 L 26.99989700317383 285.9999084472656 C 25.89529228210449 285.9999084472656 25.00000381469727 285.1044921875 25.00000381469727 283.9999084472656 L 25.00000381469727 280.9999084472656 L 40.99989700317383 280.9999084472656 L 40.99989700317383 283.9999084472656 C 40.99989700317383 285.1044921875 40.10460662841797 285.9999084472656 39.00000381469727 285.9999084472656 Z" stroke="none" fill="#959595"/>
    </g>
    <g id="Rounded_Rectangle_62_copy_3" data-name="Rounded Rectangle 62 copy 3" transform="translate(115 6)" fill="none">
      <path d="M37,281a2,2,0,0,0-2-2s.022-1.2.022-1.548a4,4,0,1,0-4.043,0c0,.723.022,1.548.022,1.548a2,2,0,0,0-2,2v1h8Z" stroke="none"/>
      <path d="M 35.99990081787109 280.9999084472656 C 35.99990081787109 280.4485168457031 35.55129623413086 279.9999084472656 34.99990081787109 279.9999084472656 L 33.98163604736328 279.9999084472656 L 34.00005722045898 278.9817810058594 C 34.00027084350586 278.9699096679688 34.02161026000977 277.7872924804688 34.02161026000977 277.4520874023438 L 34.02161026000977 276.8794555664063 L 34.51548004150391 276.5896301269531 C 35.43111038208008 276.0523071289063 35.99990081787109 275.0599670410156 35.99990081787109 273.9999084472656 C 35.99990081787109 272.3456420898438 34.6541633605957 270.9997863769531 33.00000762939453 270.9997863769531 C 31.34574317932129 270.9997863769531 29.99990081787109 272.3456420898438 29.99990081787109 273.9999084472656 C 29.99990081787109 275.0599670410156 30.56876945495605 276.0522766113281 31.4844799041748 276.589599609375 L 31.97840118408203 276.8794250488281 L 31.97840118408203 277.4520874023438 C 31.97840118408203 278.1532287597656 31.99945259094238 278.9656066894531 31.99966430664063 278.9737243652344 L 32.02653121948242 279.9999084472656 L 31.0000057220459 279.9999084472656 C 30.44855880737305 279.9999084472656 29.99990081787109 280.4485168457031 29.99990081787109 280.9999084472656 L 35.99990081787109 280.9999084472656 M 36.99990081787109 281.9999084472656 L 28.99990081787109 281.9999084472656 L 28.99990081787109 280.9999084472656 C 28.99990081787109 279.8952941894531 29.89540100097656 278.9999084472656 31.0000057220459 278.9999084472656 C 31.0000057220459 278.9999084472656 30.97840118408203 278.17529296875 30.97840118408203 277.4520874023438 C 29.79469108581543 276.7575073242188 28.99990081787109 275.4714965820313 28.99990081787109 273.9999084472656 C 28.99990081787109 271.7908020019531 30.79079627990723 269.9997863769531 33.00000762939453 269.9997863769531 C 35.20911026000977 269.9997863769531 36.99990081787109 271.7908020019531 36.99990081787109 273.9999084472656 C 36.99990081787109 275.4714965820313 36.2051887512207 276.7575073242188 35.02161026000977 277.4520874023438 C 35.02161026000977 277.80029296875 34.99990081787109 278.9999084472656 34.99990081787109 278.9999084472656 C 36.10450744628906 278.9999084472656 36.99990081787109 279.8952941894531 36.99990081787109 280.9999084472656 L 36.99990081787109 281.9999084472656 Z" stroke="none" fill="#959595"/>
    </g>
  </g>
</svg>
