<svg xmlns="http://www.w3.org/2000/svg" width="16" height="16" viewBox="0 0 16 16">
  <g id="ic_menu_9_active" transform="translate(-75 -536)">
    <path id="Rounded_Rectangle_63_copy_3" data-name="Rounded Rectangle 63 copy 3" d="M2,0h8a2,2,0,0,1,2,2V16a0,0,0,0,1,0,0H0a0,0,0,0,1,0,0V2A2,2,0,0,1,2,0Z" transform="translate(77 536)" fill="#0572b7"/>
    <path id="Rounded_Rectangle_63_copy_4" data-name="Rounded Rectangle 63 copy 4" d="M33,627h0a2,2,0,0,1,2,2v5H31v-5A2,2,0,0,1,33,627Z" transform="translate(50 -82)" fill="#fff"/>
    <rect id="Rectangle_34_copy_14" data-name="Rectangle 34 copy 14" width="16" height="1" transform="translate(75 551)" fill="#0572b7"/>
    <rect id="Rectangle_34_copy_15" data-name="Rectangle 34 copy 15" width="4" height="1" transform="translate(81 542)" fill="#fff"/>
    <rect id="Rectangle_34_copy_16" data-name="Rectangle 34 copy 16" width="4" height="1" transform="translate(81 539)" fill="#fff"/>
  </g>
</svg>
