<svg width="60" height="60" viewBox="0 0 60 60" fill="none" xmlns="http://www.w3.org/2000/svg">
<path d="M60 0H0V60H60V0Z" fill="#10266D"/>
<path d="M9.22099 46.725H8.14799V43.879L7.36601 45.716H6.63103L5.84898 43.879V46.725H4.83403V42.431H6.07701L7.02898 44.551L7.97801 42.431H9.22099V46.725Z" fill="#F6F7F8"/>
<path d="M14.019 44.58C14.0528 45.1774 13.8535 45.7646 13.463 46.218C13.0479 46.6029 12.5022 46.8163 11.9361 46.815C11.37 46.8137 10.8254 46.5979 10.412 46.211C10.0529 45.742 9.85834 45.1677 9.85834 44.577C9.85834 43.9863 10.0529 43.412 10.412 42.943C10.8266 42.5577 11.3716 42.3436 11.9375 42.3436C12.5034 42.3436 13.0484 42.5577 13.463 42.943C13.8529 43.3963 14.0521 43.983 14.019 44.58ZM12.906 44.58C12.9105 44.3594 12.884 44.1392 12.827 43.926C12.7841 43.7669 12.7122 43.6171 12.615 43.484C12.5332 43.3751 12.4256 43.2882 12.302 43.231C12.1881 43.1818 12.0656 43.156 11.9415 43.1552C11.8175 43.1543 11.6946 43.1784 11.58 43.226C11.4579 43.2847 11.3511 43.371 11.268 43.478C11.1689 43.611 11.0959 43.7617 11.053 43.922C10.9465 44.3545 10.9465 44.8065 11.053 45.239C11.0967 45.3965 11.1689 45.5446 11.266 45.676C11.3474 45.7862 11.4555 45.8739 11.58 45.931C11.6944 45.9816 11.818 46.0078 11.943 46.008C12.0706 46.0077 12.1966 45.9794 12.312 45.925C12.435 45.8676 12.5413 45.7798 12.621 45.67C12.7168 45.5378 12.7888 45.3899 12.834 45.233C12.8901 45.019 12.9154 44.7981 12.909 44.577L12.906 44.58Z" fill="#F6F7F8"/>
<path d="M18.281 46.725H17.203V44.825H15.735V46.725H14.657V42.431H15.735V44.002H17.203V42.431H18.281V46.725Z" fill="#F6F7F8"/>
<path d="M22.066 43.25H20.249V46.72H19.166V42.426H22.066V43.25Z" fill="#F6F7F8"/>
<path d="M26.419 44.58C26.4529 45.1774 26.2536 45.7647 25.863 46.218C25.666 46.4209 25.428 46.5794 25.1649 46.6829C24.9017 46.7864 24.6194 46.8325 24.337 46.818C24.0546 46.8336 23.7722 46.7881 23.509 46.6846C23.2458 46.581 23.008 46.4219 22.812 46.218C22.4528 45.749 22.2581 45.1748 22.2581 44.584C22.2581 43.9933 22.4528 43.419 22.812 42.95C23.2265 42.5645 23.7715 42.3503 24.3375 42.3503C24.9035 42.3503 25.4485 42.5645 25.863 42.95C26.2513 43.4015 26.4505 43.9853 26.419 44.58ZM25.306 44.58C25.3107 44.3594 25.2841 44.1392 25.227 43.926C25.1841 43.7669 25.1123 43.617 25.015 43.484C24.9332 43.3751 24.8257 43.2882 24.702 43.231C24.5882 43.1818 24.4655 43.156 24.3415 43.1552C24.2175 43.1543 24.0945 43.1784 23.98 43.226C23.8578 43.2846 23.751 43.3709 23.668 43.478C23.5687 43.6109 23.4957 43.7616 23.453 43.922C23.3462 44.3545 23.3462 44.8065 23.453 45.239C23.4967 45.3965 23.5689 45.5446 23.666 45.676C23.7474 45.7862 23.8554 45.8739 23.98 45.931C24.0943 45.9816 24.218 46.0078 24.343 46.008C24.4706 46.0076 24.5965 45.9793 24.712 45.925C24.8345 45.8672 24.9404 45.7796 25.02 45.67C25.1158 45.5378 25.1879 45.3899 25.233 45.233C25.2885 45.0189 25.3131 44.798 25.306 44.577V44.58Z" fill="#F6F7F8"/>
<path d="M30.754 46.725H29.675V43.25H28.591C28.583 43.417 28.576 43.574 28.569 43.719C28.562 43.864 28.555 44.002 28.547 44.133C28.5327 44.4583 28.4993 44.7826 28.447 45.104C28.4106 45.3308 28.3557 45.5542 28.283 45.772C28.2324 45.9239 28.1654 46.0697 28.083 46.207C28.0251 46.2972 27.958 46.3814 27.883 46.458C27.7843 46.5542 27.6664 46.6285 27.537 46.676C27.4063 46.727 27.2673 46.7538 27.127 46.755C27.037 46.755 26.938 46.755 26.827 46.743C26.716 46.731 26.651 46.73 26.627 46.726V45.777H26.667L26.723 45.783C26.7466 45.7843 26.7704 45.7843 26.794 45.783C26.856 45.781 26.9176 45.773 26.978 45.759C27.0408 45.7493 27.0997 45.7223 27.148 45.681C27.3043 45.5137 27.4037 45.3012 27.432 45.074C27.4954 44.6811 27.5345 44.2847 27.549 43.887C27.561 43.651 27.568 43.438 27.571 43.25C27.574 43.062 27.581 42.788 27.592 42.428H30.759V46.722L30.754 46.725Z" fill="#F6F7F8"/>
<path d="M36.92 42.431L35.487 45.865C35.4193 46.0374 35.3233 46.1972 35.203 46.338C35.1096 46.4444 34.9978 46.5332 34.873 46.6C34.7645 46.6575 34.6478 46.6979 34.527 46.72C34.4071 46.7402 34.2856 46.7503 34.164 46.75C34.0307 46.75 33.8763 46.7473 33.701 46.742C33.525 46.736 33.407 46.731 33.347 46.725V45.813H33.413C33.43 45.813 33.457 45.822 33.494 45.828C33.531 45.834 33.577 45.84 33.632 45.846L33.782 45.857C33.836 45.857 33.882 45.863 33.929 45.863C34.0523 45.8635 34.1751 45.8473 34.294 45.815C34.3416 45.8058 34.3867 45.7865 34.4262 45.7584C34.4657 45.7302 34.4987 45.694 34.523 45.652L32.934 42.431H34.099L35.019 44.444L35.798 42.431H36.92Z" fill="#F6F7F8"/>
<path d="M41.021 46.725H39.943V43.25H38.858C38.851 43.417 38.843 43.574 38.837 43.719C38.831 43.864 38.823 44.002 38.815 44.133C38.8004 44.4583 38.767 44.7825 38.715 45.104C38.678 45.3307 38.6227 45.5541 38.55 45.772C38.4994 45.9239 38.4323 46.0697 38.35 46.207C38.2918 46.2971 38.2248 46.3812 38.15 46.458C38.0514 46.5543 37.9335 46.6286 37.804 46.676C37.6736 46.727 37.535 46.7537 37.395 46.755C37.304 46.755 37.206 46.755 37.095 46.743C36.984 46.731 36.919 46.73 36.895 46.726V45.777H36.935L36.991 45.783C37.0147 45.7843 37.0384 45.7843 37.062 45.783C37.1243 45.7811 37.1863 45.7731 37.247 45.759C37.3098 45.7494 37.3687 45.7223 37.417 45.681C37.5733 45.5137 37.6727 45.3012 37.701 45.074C37.7641 44.6811 37.8032 44.2847 37.818 43.887C37.8293 43.651 37.8363 43.4387 37.839 43.25C37.8417 43.0613 37.849 42.7873 37.861 42.428H41.027V46.722L41.021 46.725Z" fill="#F6F7F8"/>
<path d="M43.76 46.808C43.4778 46.822 43.1958 46.7773 42.9317 46.6768C42.6677 46.5763 42.4274 46.4221 42.226 46.224C42.0274 46.0013 41.8751 45.7414 41.7776 45.4594C41.6801 45.1773 41.6394 44.8788 41.658 44.581C41.628 43.9847 41.8326 43.4003 42.228 42.953C42.426 42.7483 42.6655 42.5882 42.9304 42.4835C43.1953 42.3788 43.4795 42.3319 43.764 42.346C43.9182 42.3451 44.0722 42.3549 44.225 42.375C44.3573 42.3936 44.4882 42.4206 44.617 42.456C44.7259 42.4888 44.8328 42.5282 44.937 42.574C45.052 42.624 45.146 42.667 45.217 42.704V43.728H45.108C45.056 43.6813 44.9893 43.626 44.908 43.562C44.8229 43.4931 44.7334 43.43 44.64 43.373C44.5356 43.3097 44.425 43.257 44.31 43.216C44.1894 43.1726 44.0622 43.1506 43.934 43.151C43.788 43.1496 43.643 43.1746 43.506 43.225C43.3649 43.2817 43.2381 43.3692 43.135 43.481C43.0165 43.6085 42.9268 43.7599 42.872 43.925C42.8002 44.1374 42.7664 44.3608 42.772 44.585C42.7657 44.814 42.802 45.0422 42.879 45.258C42.9394 45.4232 43.0349 45.5733 43.159 45.698C43.2647 45.8023 43.3921 45.8822 43.532 45.932C43.6639 45.9791 43.8029 46.0035 43.943 46.004C44.0818 46.0046 44.2196 45.9805 44.35 45.933C44.4642 45.893 44.5736 45.8404 44.676 45.776C44.7649 45.7215 44.8498 45.6607 44.93 45.594C45.003 45.532 45.067 45.478 45.12 45.429H45.22V46.439L44.946 46.564C44.8421 46.6111 44.7352 46.6512 44.626 46.684C44.5019 46.7221 44.3756 46.7531 44.248 46.777C44.0864 46.8003 43.9232 46.8106 43.76 46.808Z" fill="#F6F7F8"/>
<path d="M49.237 45.352C49.2392 45.5511 49.1982 45.7483 49.117 45.93C49.0439 46.0977 48.9318 46.2455 48.79 46.361C48.6324 46.4897 48.4505 46.5853 48.255 46.642C48.0266 46.7018 47.7911 46.7297 47.555 46.725H45.855V42.431H46.931V44.043H47.577C47.8057 44.0412 48.0343 44.0589 48.26 44.096C48.4636 44.1317 48.655 44.2176 48.817 44.346C48.9628 44.458 49.0746 44.6082 49.14 44.78C49.2075 44.963 49.2403 45.157 49.237 45.352ZM48.124 45.384C48.1242 45.3166 48.1165 45.2495 48.101 45.184C48.084 45.1175 48.0495 45.0567 48.001 45.008C47.9414 44.9495 47.8682 44.9065 47.788 44.883C47.666 44.849 47.5395 44.8338 47.413 44.838H46.928V45.931H47.413C47.5968 45.9408 47.779 45.8918 47.933 45.791C47.996 45.7443 48.0464 45.6826 48.0795 45.6116C48.1127 45.5405 48.1276 45.4623 48.123 45.384H48.124ZM50.636 46.725H49.554V42.431H50.633L50.636 46.725Z" fill="#F6F7F8"/>
<path d="M55.148 46.725H54.069V44.825H52.602V46.725H51.523V42.431H52.602V44.002H54.07V42.431H55.149L55.148 46.725Z" fill="#F6F7F8"/>
<path d="M8.44098 51.78C8.53888 51.8648 8.61764 51.9695 8.67199 52.087C8.7332 52.2275 8.76257 52.3798 8.75799 52.533C8.76521 52.7276 8.72382 52.921 8.63757 53.0956C8.55132 53.2702 8.42291 53.4205 8.26397 53.533C7.83982 53.7991 7.34272 53.9251 6.84301 53.893C6.57456 53.8937 6.30668 53.8686 6.04303 53.818C5.8038 53.774 5.56937 53.707 5.34301 53.618V52.658H5.44299C5.62185 52.7757 5.81298 52.8736 6.013 52.95C6.23188 53.042 6.46655 53.0906 6.70398 53.093C6.94454 53.1049 7.18381 53.051 7.39599 52.937C7.47877 52.8886 7.54657 52.8182 7.59192 52.7337C7.63726 52.6492 7.65842 52.5538 7.65301 52.458C7.65898 52.3788 7.64485 52.2993 7.612 52.2269C7.57914 52.1546 7.52861 52.0917 7.46502 52.044C7.25747 51.9357 7.02316 51.8892 6.78997 51.91H6.16699V51.143H6.75598C6.96059 51.1579 7.16531 51.1153 7.34698 51.02C7.40802 50.981 7.45763 50.9264 7.49066 50.8619C7.52369 50.7975 7.53901 50.7254 7.53503 50.653C7.53697 50.5859 7.51822 50.5198 7.48138 50.4636C7.44454 50.4074 7.39133 50.3639 7.32898 50.339C7.15543 50.2661 6.96812 50.232 6.78003 50.239C6.65625 50.2385 6.53276 50.2519 6.41198 50.279C6.29613 50.3056 6.18195 50.339 6.07 50.379C5.97156 50.4148 5.87568 50.4572 5.78302 50.506L5.583 50.606H5.48303V49.712C5.68284 49.6376 5.88766 49.5774 6.096 49.532C6.38864 49.4633 6.68843 49.4298 6.98901 49.432C7.42114 49.4026 7.85261 49.498 8.23199 49.707C8.36155 49.7874 8.4678 49.9003 8.5401 50.0346C8.61239 50.1688 8.64817 50.3196 8.64398 50.472C8.64871 50.7035 8.56789 50.9285 8.41699 51.104C8.26495 51.2814 8.06043 51.4057 7.833 51.459V51.502C7.93892 51.5244 8.04214 51.5579 8.14099 51.602C8.24991 51.6448 8.3512 51.7049 8.44098 51.78Z" fill="#F6F7F8"/>
<path d="M8.95699 53.812L10.407 49.518H11.584L13.034 53.812H11.924L11.656 52.935H10.306L10.038 53.812H8.95699ZM11.42 52.156L10.982 50.74L10.544 52.156H11.42Z" fill="#F6F7F8"/>
<path d="M15.312 53.896C15.0298 53.91 14.7478 53.8653 14.4838 53.7648C14.2197 53.6643 13.9794 53.5101 13.778 53.312C13.5795 53.0892 13.427 52.8294 13.3295 52.5473C13.232 52.2653 13.1914 51.9668 13.21 51.669C13.1799 51.0727 13.3845 50.4883 13.78 50.041C13.978 49.8363 14.2175 49.6762 14.4824 49.5715C14.7473 49.4669 15.0315 49.42 15.316 49.434C15.4701 49.4332 15.6242 49.4428 15.777 49.463C15.9092 49.4816 16.0402 49.5087 16.169 49.544C16.278 49.5768 16.3849 49.6162 16.489 49.662C16.6043 49.712 16.6976 49.7553 16.769 49.792V50.816H16.66C16.608 50.7693 16.5413 50.714 16.46 50.65C16.3749 50.5811 16.2854 50.518 16.192 50.461C16.0876 50.3976 15.977 50.345 15.862 50.304C15.7414 50.2606 15.6141 50.2386 15.486 50.239C15.3401 50.2373 15.1951 50.262 15.058 50.312C14.9168 50.3687 14.7901 50.4561 14.687 50.568C14.5682 50.6954 14.4781 50.8468 14.423 51.012C14.3514 51.2245 14.3175 51.4478 14.323 51.672C14.3167 51.901 14.353 52.1292 14.43 52.345C14.4907 52.51 14.5861 52.6601 14.71 52.785C14.816 52.8894 14.9437 52.9693 15.084 53.019C15.2159 53.0661 15.3549 53.0905 15.495 53.091C15.6335 53.0914 15.7709 53.0674 15.901 53.02C16.0152 52.9801 16.1246 52.9274 16.227 52.863C16.316 52.8086 16.4009 52.7478 16.481 52.681C16.554 52.619 16.618 52.565 16.671 52.516H16.771V53.526L16.497 53.651C16.3932 53.6981 16.2862 53.7382 16.177 53.771C16.0529 53.8091 15.9267 53.8401 15.799 53.864C15.6378 53.8876 15.4749 53.8983 15.312 53.896Z" fill="#F6F7F8"/>
<path d="M20.298 50.337H18.481V53.812H17.402V49.518H20.302L20.298 50.337Z" fill="#F6F7F8"/>
<path d="M24.452 53.812H23.39V50.983L21.741 53.812H20.741V49.518H21.803V52.076L23.328 49.518H24.45V53.812H24.452Z" fill="#F6F7F8"/>
<path d="M29.031 53.811H27.969V50.982L26.319 53.811H25.319V49.517H26.383V52.075L27.908 49.517H29.03V53.811H29.031ZM28.705 48.101C28.71 48.2588 28.679 48.4156 28.6144 48.5596C28.5498 48.7036 28.4532 48.8309 28.332 48.932C27.9851 49.1371 27.5895 49.2453 27.1865 49.2453C26.7835 49.2453 26.3879 49.1371 26.041 48.932C25.9186 48.8324 25.8206 48.7061 25.7545 48.5627C25.6885 48.4194 25.6562 48.2628 25.66 48.105H26.606C26.5953 48.2681 26.642 48.4297 26.738 48.562C26.8673 48.6551 27.0226 48.7052 27.182 48.7052C27.3413 48.7052 27.4967 48.6551 27.626 48.562C27.7218 48.43 27.7685 48.2687 27.758 48.106H28.704L28.705 48.101Z" fill="#F6F7F8"/>
<path d="M33.527 53.812H32.448V51.912H30.98V53.812H29.902V49.518H30.98V51.089H32.448V49.518H33.527V53.812Z" fill="#F6F7F8"/>
<path d="M39.04 50.337H37.223V53.812H36.144V49.518H39.044L39.04 50.337Z" fill="#F6F7F8"/>
<path d="M39.022 53.812L40.472 49.518H41.649L43.099 53.812H41.989L41.721 52.935H40.371L40.103 53.812H39.022ZM41.485 52.156L41.046 50.74L40.608 52.156H41.485Z" fill="#F6F7F8"/>
<path d="M46.304 51.78C46.402 51.8647 46.4807 51.9694 46.535 52.087C46.5966 52.2274 46.6264 52.3797 46.622 52.533C46.6291 52.7277 46.5875 52.9211 46.5011 53.0957C46.4147 53.2703 46.2861 53.4206 46.127 53.533C45.7031 53.799 45.2064 53.925 44.707 53.893C44.4385 53.8936 44.1707 53.8685 43.907 53.818C43.6678 53.774 43.4334 53.707 43.207 53.618V52.658H43.307C43.4855 52.7757 43.6763 52.8737 43.876 52.95C44.0949 53.042 44.3296 53.0906 44.567 53.093C44.8075 53.1048 45.0468 53.0509 45.259 52.937C45.3417 52.8885 45.4095 52.8181 45.4548 52.7336C45.5001 52.6491 45.5213 52.5538 45.516 52.458C45.5219 52.3788 45.5077 52.2993 45.4749 52.227C45.442 52.1547 45.3915 52.0917 45.328 52.044C45.1205 51.9357 44.8862 51.8892 44.653 51.91H44.036V51.143H44.624C44.8286 51.1579 45.0333 51.1153 45.215 51.02C45.2759 50.9809 45.3255 50.9263 45.3585 50.8619C45.3915 50.7974 45.4069 50.7253 45.403 50.653C45.4049 50.5859 45.3862 50.5198 45.3494 50.4636C45.3125 50.4074 45.2593 50.3639 45.197 50.339C45.0231 50.2662 44.8354 50.2321 44.647 50.239C44.5235 50.2386 44.4004 50.252 44.28 50.279C44.1641 50.3055 44.0499 50.3389 43.938 50.379C43.8395 50.4147 43.7436 50.4571 43.651 50.506L43.451 50.606H43.351V49.712C43.5508 49.6376 43.7557 49.5775 43.964 49.532C44.2567 49.4633 44.5564 49.4298 44.857 49.432C45.2892 49.4026 45.7206 49.498 46.1 49.707C46.2296 49.7873 46.3359 49.9002 46.4082 50.0345C46.4805 50.1687 46.5163 50.3196 46.512 50.472C46.5168 50.7033 46.4364 50.9282 46.286 51.104C46.134 51.2814 45.9294 51.4057 45.702 51.459V51.502C45.8079 51.5243 45.9112 51.5578 46.01 51.602C46.1169 51.6452 46.2161 51.7053 46.304 51.78Z" fill="#F6F7F8"/>
<path d="M46.821 53.812L48.272 49.518H49.448L50.898 53.812H49.786L49.518 52.935H48.168L47.9 53.812H46.821ZM49.284 52.156L48.846 50.74L48.408 52.156H49.284Z" fill="#F6F7F8"/>
<path d="M54.63 50.873C54.6296 51.0676 54.5958 51.2608 54.53 51.444C54.4735 51.6135 54.3799 51.7683 54.256 51.897C54.1816 51.9727 54.101 52.0419 54.015 52.104C53.9249 52.169 53.8276 52.2233 53.725 52.266C53.6135 52.3103 53.4979 52.3438 53.38 52.366C53.2426 52.3923 53.1029 52.405 52.963 52.404H52.398V53.804H51.32V49.51H52.987C53.2029 49.5066 53.4185 49.5295 53.629 49.578C53.8032 49.621 53.9686 49.6937 54.118 49.793C54.2793 49.9006 54.4088 50.0494 54.493 50.224C54.589 50.4266 54.6359 50.6489 54.63 50.873ZM53.522 50.899C53.525 50.7884 53.4951 50.6795 53.436 50.586C53.387 50.5059 53.3143 50.443 53.228 50.406C53.1353 50.3642 53.0363 50.3382 52.935 50.329C52.8417 50.323 52.7153 50.3197 52.556 50.319H52.403V51.605H52.478H52.767C52.846 51.6038 52.9249 51.5971 53.003 51.585C53.066 51.5737 53.1275 51.5549 53.186 51.529C53.2406 51.5069 53.2908 51.4751 53.334 51.435C53.4007 51.374 53.4518 51.2978 53.483 51.213C53.5136 51.1113 53.5268 51.0051 53.522 50.899Z" fill="#F6F7F8"/>
<path d="M30.281 2.41C30.281 2.41 29.781 2.63901 29.704 2.87601C29.597 3.21901 30.022 3.55599 30.004 3.91599C29.983 4.38699 29.504 4.76 29.485 5.233C29.471 5.576 29.863 5.884 29.785 6.22C29.733 6.44 29.547 6.72001 29.319 6.71301C29.091 6.70601 28.913 6.436 28.881 6.22C28.823 5.832 29.372 5.54199 29.375 5.14999C29.375 4.87999 29.033 4.682 29.048 4.41C29.0928 4.24647 29.1766 4.09619 29.292 3.97198C29.292 3.97198 28.677 4.27199 28.581 4.57199C28.51 4.78699 28.77 5.00501 28.746 5.23001C28.68 5.78201 27.999 6.15399 27.976 6.70999C27.9775 7.25006 28.1909 7.76797 28.5704 8.15228C28.9498 8.5366 29.465 8.75663 30.005 8.76501C30.5538 8.76738 31.0831 8.56152 31.486 8.189C31.8725 7.7913 32.0974 7.26418 32.117 6.70999C32.132 6.23699 31.653 5.84001 31.651 5.36301C31.651 5.10701 31.936 4.88301 31.897 4.62601C31.843 4.28901 31.297 3.80301 31.297 3.80301C31.3601 4.02527 31.3874 4.25615 31.378 4.487C31.321 4.798 30.966 5.001 30.94 5.311C30.914 5.621 31.295 5.90401 31.24 6.21701C31.203 6.41701 31.065 6.70499 30.857 6.70999C30.649 6.71499 30.489 6.42801 30.444 6.21701C30.352 5.76901 30.851 5.35701 30.828 4.89801C30.792 4.19201 30.121 3.637 30.142 2.927C30.1654 2.74932 30.2122 2.57549 30.281 2.41ZM29.991 9.466C29.3528 9.46541 28.7289 9.65415 28.1981 10.0083C27.6672 10.3625 27.2534 10.8662 27.009 11.4557C26.7645 12.0452 26.7005 12.6939 26.8249 13.3198C26.9493 13.9457 27.2566 14.5206 27.708 14.9718C28.1593 15.4229 28.7342 15.7301 29.3602 15.8543C29.9861 15.9785 30.6349 15.9143 31.2242 15.6696C31.8136 15.425 32.3172 15.011 32.6712 14.4801C33.0252 13.9492 33.2138 13.3252 33.213 12.687C33.212 11.8329 32.8721 11.0141 32.2681 10.4102C31.664 9.80636 30.8451 9.4668 29.991 9.466ZM25.469 13.147C25.457 13.29 25.449 13.438 25.449 13.584C25.449 14.789 25.9277 15.9447 26.7798 16.7968C27.6319 17.6488 28.7875 18.1275 29.9925 18.1275C31.1975 18.1275 32.3532 17.6488 33.2053 16.7968C34.0573 15.9447 34.536 14.789 34.536 13.584C34.5366 13.442 34.529 13.3001 34.513 13.159C34.2328 14.143 33.6392 15.0087 32.8222 15.6247C32.0053 16.2406 31.0096 16.5732 29.9865 16.5718C28.9633 16.5705 27.9686 16.2353 27.1533 15.6172C26.3379 14.999 25.7466 14.1318 25.469 13.147ZM21.378 18.853V37.886H25.366V18.853H21.378ZM26.046 18.853L29.991 21.437L33.94 18.853H26.046ZM34.613 18.853V37.886H38.606V18.853H34.613ZM26.046 22.097V23.737H33.94V22.097H26.046ZM29.355 24.325C29.1869 24.3314 29.0196 24.3521 28.855 24.387C27.9962 24.6099 27.2384 25.1175 26.7053 25.8268C26.1722 26.536 25.8954 27.4051 25.92 28.292C25.9211 29.1663 26.2038 30.017 26.7261 30.7182C27.2484 31.4193 27.9826 31.9337 28.82 32.185C28.5007 31.9974 28.2344 31.7316 28.0461 31.4127C27.8579 31.0938 27.7539 30.7322 27.744 30.362V30.337C27.7429 29.896 27.8744 29.4648 28.1213 29.0995C28.3683 28.7341 28.7193 28.4514 29.129 28.288C29.4012 28.1811 29.6916 28.1279 29.984 28.131H30.005C30.2535 28.1315 30.4997 28.0829 30.7293 27.9878C30.9588 27.8927 31.1673 27.7531 31.3427 27.577C31.518 27.4009 31.6567 27.1918 31.7508 26.9618C31.8449 26.7318 31.8926 26.4855 31.891 26.237C31.8089 25.6465 31.4956 25.1128 31.02 24.7533C30.5444 24.3938 29.9455 24.2379 29.355 24.32V24.325ZM31.165 24.394C31.4841 24.5816 31.7503 24.8472 31.9385 25.1659C32.1268 25.4846 32.2308 25.846 32.241 26.216V26.237C32.243 26.6778 32.1121 27.109 31.8654 27.4744C31.6187 27.8397 31.2676 28.1222 30.858 28.285C30.5849 28.3927 30.2936 28.4467 30 28.444H29.979C29.7303 28.4427 29.4838 28.4907 29.2538 28.5852C29.0238 28.6798 28.8148 28.819 28.6389 28.9949C28.4631 29.1708 28.3238 29.3797 28.2293 29.6098C28.1347 29.8398 28.0867 30.0863 28.088 30.335C28.1711 30.9253 28.4847 31.4587 28.9602 31.8184C29.4357 32.178 30.0343 32.3347 30.625 32.254C30.7952 32.2481 30.9644 32.2273 31.131 32.192C31.9892 31.9677 32.7462 31.4595 33.2786 30.75C33.8111 30.0406 34.0875 29.1717 34.063 28.285C34.062 27.411 33.7794 26.5606 33.257 25.8599C32.7346 25.1592 32.0004 24.6455 31.163 24.395L31.165 24.394ZM29.991 25.467C30.0889 25.4673 30.1859 25.4869 30.2762 25.5248C30.3665 25.5627 30.4484 25.6181 30.5172 25.6879C30.586 25.7576 30.6403 25.8402 30.677 25.9311C30.7137 26.0219 30.7321 26.1191 30.731 26.217C30.731 26.4142 30.6527 26.6033 30.5132 26.7427C30.3738 26.8822 30.1847 26.9605 29.9875 26.9605C29.7903 26.9605 29.6012 26.8822 29.4618 26.7427C29.3224 26.6033 29.244 26.4142 29.244 26.217C29.2438 26.1187 29.2628 26.0212 29.3002 25.9302C29.3376 25.8392 29.3926 25.7565 29.462 25.6868C29.5313 25.6171 29.6138 25.5617 29.7045 25.5238C29.7953 25.4859 29.8926 25.4663 29.991 25.466V25.467ZM29.986 29.622C30.1332 29.6216 30.2771 29.6649 30.3997 29.7465C30.5222 29.828 30.6177 29.9441 30.6741 30.08C30.7306 30.2159 30.7454 30.3655 30.7167 30.5098C30.6881 30.6542 30.6171 30.7867 30.513 30.8907C30.4089 30.9947 30.2762 31.0654 30.1318 31.0939C29.9875 31.1224 29.8379 31.1074 29.702 31.0508C29.5662 30.9941 29.4503 30.8984 29.3689 30.7758C29.2875 30.6532 29.2444 30.5092 29.245 30.362C29.245 30.1656 29.3229 29.9773 29.4617 29.8384C29.6004 29.6994 29.7886 29.6213 29.985 29.621L29.986 29.622ZM26.046 33.008V34.643H33.94V33.008H26.046ZM26.046 35.301L29.991 37.887L33.94 35.301H26.046Z" fill="#F3C30E"/>
</svg>
