<svg width="195" height="203" viewBox="0 0 195 203" fill="none" xmlns="http://www.w3.org/2000/svg">
<path fill-rule="evenodd" clip-rule="evenodd" d="M9.5 27C5.91015 27 3 29.9101 3 33.5V153.5C3 157.09 5.91015 160 9.5 160H185.5C189.09 160 192 157.09 192 153.5V33.5C192 29.9101 189.09 27 185.5 27H9.5ZM0 33.5C0 28.2533 4.25329 24 9.5 24H185.5C190.747 24 195 28.2533 195 33.5V153.5C195 158.747 190.747 163 185.5 163H9.5C4.25329 163 0 158.747 0 153.5V33.5Z" fill="#D4D4D8"/>
<path fill-rule="evenodd" clip-rule="evenodd" d="M128.563 160.329C129.21 159.811 130.154 159.916 130.671 160.563L162.671 200.563C163.189 201.21 163.084 202.154 162.437 202.671C161.79 203.189 160.846 203.084 160.329 202.437L128.329 162.437C127.811 161.79 127.916 160.846 128.563 160.329Z" fill="#D4D4D8"/>
<path fill-rule="evenodd" clip-rule="evenodd" d="M66.4371 160.329C67.084 160.846 67.1889 161.79 66.6714 162.437L34.6714 202.437C34.1538 203.084 33.2099 203.189 32.563 202.671C31.9161 202.154 31.8112 201.21 32.3288 200.563L64.3288 160.563C64.8463 159.916 65.7902 159.811 66.4371 160.329Z" fill="#D4D4D8"/>
<path fill-rule="evenodd" clip-rule="evenodd" d="M65.5 96C66.3284 96 67 96.6716 67 97.5V121.5C67 122.328 66.3284 123 65.5 123C64.6716 123 64 122.328 64 121.5V97.5C64 96.6716 64.6716 96 65.5 96Z" fill="#D4D4D8"/>
<path fill-rule="evenodd" clip-rule="evenodd" d="M97.5 80C98.3284 80 99 80.6716 99 81.5V121.5C99 122.328 98.3284 123 97.5 123C96.6716 123 96 122.328 96 121.5V81.5C96 80.6716 96.6716 80 97.5 80Z" fill="#D4D4D8"/>
<path fill-rule="evenodd" clip-rule="evenodd" d="M129.5 64C130.328 64 131 64.6716 131 65.5V121.5C131 122.328 130.328 123 129.5 123C128.672 123 128 122.328 128 121.5V65.5C128 64.6716 128.672 64 129.5 64Z" fill="#D4D4D8"/>
<path fill-rule="evenodd" clip-rule="evenodd" d="M97.5 0C98.3284 0 99 0.671573 99 1.5V25.5C99 26.3284 98.3284 27 97.5 27C96.6716 27 96 26.3284 96 25.5V1.5C96 0.671573 96.6716 0 97.5 0Z" fill="#D4D4D8"/>
</svg>
