<svg width="18" height="36" viewBox="0 0 18 36" fill="none" xmlns="http://www.w3.org/2000/svg">
<path d="M9.28101 0.410004C9.28101 0.410004 8.78098 0.639007 8.70398 0.876007C8.59698 1.21901 9.02197 1.55599 9.00397 1.91599C8.98297 2.38699 8.50399 2.76 8.48499 3.233C8.47099 3.576 8.86298 3.884 8.78498 4.22C8.73298 4.44 8.54697 4.72001 8.31897 4.71301C8.09097 4.70601 7.91299 4.436 7.88099 4.22C7.82299 3.832 8.372 3.54199 8.375 3.14999C8.375 2.87999 8.03298 2.682 8.04798 2.41C8.09282 2.24647 8.17655 2.09619 8.292 1.97198C8.292 1.97198 7.677 2.27199 7.581 2.57199C7.51 2.78699 7.76998 3.00501 7.74598 3.23001C7.67998 3.78201 6.99902 4.15399 6.97602 4.70999C6.97752 5.25006 7.19093 5.76797 7.57038 6.15228C7.94983 6.5366 8.465 6.75663 9.00501 6.76501C9.55378 6.76738 10.0831 6.56152 10.486 6.189C10.8725 5.7913 11.0974 5.26418 11.117 4.70999C11.132 4.23699 10.653 3.84001 10.651 3.36301C10.651 3.10701 10.936 2.88301 10.897 2.62601C10.843 2.28901 10.297 1.80301 10.297 1.80301C10.3601 2.02527 10.3874 2.25615 10.378 2.487C10.321 2.798 9.96601 3.001 9.94001 3.311C9.91401 3.621 10.295 3.90401 10.24 4.21701C10.203 4.41701 10.065 4.70499 9.857 4.70999C9.649 4.71499 9.48897 4.42801 9.44397 4.21701C9.35197 3.76901 9.85101 3.35701 9.82801 2.89801C9.79201 2.19201 9.12097 1.637 9.14197 0.927002C9.16542 0.749315 9.21219 0.57549 9.28101 0.410004V0.410004ZM8.99097 7.466C8.35283 7.46541 7.72889 7.65415 7.19806 8.00833C6.66723 8.36252 6.25341 8.86622 6.00898 9.45569C5.76454 10.0452 5.70047 10.6939 5.82489 11.3198C5.94932 11.9457 6.25665 12.5206 6.70795 12.9718C7.15926 13.4229 7.73424 13.7301 8.36017 13.8543C8.98611 13.9785 9.63485 13.9143 10.2242 13.6696C10.8136 13.425 11.3172 13.011 11.6712 12.4801C12.0252 11.9492 12.2138 11.3252 12.213 10.687C12.212 9.8329 11.8721 9.01407 11.2681 8.41022C10.664 7.80636 9.84508 7.4668 8.99097 7.466V7.466ZM4.469 11.147C4.457 11.29 4.44898 11.438 4.44898 11.584C4.44898 12.789 4.92772 13.9447 5.77979 14.7968C6.63186 15.6488 7.78749 16.1275 8.9925 16.1275C10.1975 16.1275 11.3532 15.6488 12.2053 14.7968C13.0573 13.9447 13.536 12.789 13.536 11.584C13.5366 11.442 13.529 11.3001 13.513 11.159C13.2328 12.143 12.6392 13.0087 11.8222 13.6247C11.0053 14.2406 10.0096 14.5732 8.98645 14.5718C7.96332 14.5705 6.96858 14.2353 6.15326 13.6172C5.33795 12.999 4.74659 12.1318 4.469 11.147ZM0.377995 16.853V35.886H4.36597V16.853H0.377995ZM5.04602 16.853L8.99097 19.437L12.94 16.853H5.04602ZM13.613 16.853V35.886H17.606V16.853H13.613ZM5.04602 20.097V21.737H12.94V20.097H5.04602ZM8.35498 22.325C8.18685 22.3314 8.01958 22.3521 7.85498 22.387C6.99619 22.6099 6.23841 23.1175 5.70533 23.8268C5.17224 24.536 4.89537 25.4051 4.91999 26.292C4.92111 27.1663 5.20377 28.017 5.72608 28.7182C6.24839 29.4193 6.9826 29.9337 7.82001 30.185C7.5007 29.9974 7.23439 29.7316 7.04615 29.4127C6.8579 29.0938 6.75393 28.7322 6.74402 28.362V28.337C6.74291 27.896 6.87437 27.4648 7.12134 27.0995C7.36831 26.7341 7.71934 26.4514 8.12897 26.288C8.40122 26.1811 8.69157 26.1279 8.98401 26.131H9.00501C9.25351 26.1315 9.49967 26.0829 9.72925 25.9878C9.95884 25.8927 10.1673 25.7531 10.3427 25.577C10.518 25.4009 10.6567 25.1918 10.7508 24.9618C10.8449 24.7318 10.8926 24.4855 10.891 24.237C10.8089 23.6465 10.4956 23.1128 10.02 22.7533C9.54444 22.3938 8.94548 22.2379 8.35498 22.32V22.325ZM10.165 22.394C10.4841 22.5816 10.7503 22.8472 10.9385 23.1659C11.1268 23.4846 11.2308 23.846 11.241 24.216V24.237C11.243 24.6778 11.1121 25.109 10.8654 25.4744C10.6187 25.8397 10.2676 26.1222 9.85798 26.285C9.58487 26.3927 9.29357 26.4467 9 26.444H8.97901C8.73031 26.4427 8.48381 26.4907 8.25379 26.5852C8.02376 26.6798 7.81478 26.819 7.63892 26.9949C7.46306 27.1708 7.32381 27.3797 7.22925 27.6098C7.13469 27.8398 7.08669 28.0863 7.08802 28.335C7.17114 28.9253 7.48473 29.4587 7.96021 29.8184C8.43569 30.178 9.03431 30.3347 9.625 30.254C9.79515 30.2481 9.96444 30.2273 10.131 30.192C10.9892 29.9677 11.7462 29.4595 12.2786 28.75C12.8111 28.0406 13.0875 27.1717 13.063 26.285C13.062 25.411 12.7794 24.5606 12.257 23.8599C11.7346 23.1592 11.0004 22.6455 10.163 22.395L10.165 22.394ZM8.99097 23.467C9.08892 23.4673 9.18587 23.4869 9.27619 23.5248C9.36651 23.5627 9.44842 23.6181 9.51722 23.6879C9.58601 23.7576 9.64032 23.8402 9.67701 23.9311C9.7137 24.0219 9.73208 24.1191 9.73102 24.217C9.73102 24.4142 9.65268 24.6033 9.51325 24.7427C9.37382 24.8822 9.18468 24.9605 8.98749 24.9605C8.7903 24.9605 8.60123 24.8822 8.4618 24.7427C8.32236 24.6033 8.24402 24.4142 8.24402 24.217C8.24376 24.1187 8.26284 24.0212 8.30024 23.9302C8.33763 23.8392 8.39261 23.7565 8.46198 23.6868C8.53134 23.6171 8.61376 23.5617 8.70453 23.5238C8.79531 23.4859 8.89261 23.4663 8.99097 23.466V23.467ZM8.98603 27.622C9.13319 27.6216 9.27715 27.6649 9.39966 27.7465C9.52218 27.828 9.61768 27.9441 9.67414 28.08C9.73059 28.2159 9.74543 28.3655 9.71674 28.5098C9.68805 28.6542 9.61714 28.7867 9.513 28.8907C9.40887 28.9947 9.27622 29.0654 9.13184 29.0939C8.98746 29.1224 8.83786 29.1074 8.70203 29.0508C8.5662 28.9941 8.45027 28.8984 8.3689 28.7758C8.28753 28.6532 8.24441 28.5092 8.245 28.362C8.245 28.1656 8.32293 27.9773 8.46167 27.8384C8.60042 27.6994 8.78864 27.6213 8.98499 27.621L8.98603 27.622ZM5.04602 31.008V32.643H12.94V31.008H5.04602ZM5.04602 33.301L8.99097 35.887L12.94 33.301H5.04602Z" fill="#F3C30E"/>
</svg>
