<svg xmlns="http://www.w3.org/2000/svg" width="238" height="300" viewBox="0 0 238 300">
  <g id="ic_object_1" transform="translate(-40 -1040)">
    <path id="Path_4" data-name="Path 4" d="M142.241,20C76.907,20,23.5,73.46,23.5,138.858c0,53.979,37.333,101.73,89.185,115.225l23.852,61.765A6.252,6.252,0,0,0,142.759,320h0a6.738,6.738,0,0,0,6.222-4.152l22.3-61.246c52.37-12.976,90.222-60.727,90.222-115.225C260.981,73.46,208.093,20,142.241,20Z" transform="translate(16.5 1020)" fill="#cee6ff"/>
    <path id="Subtraction_33" data-name="Subtraction 33" d="M90,120H16.261A16.279,16.279,0,0,1,0,103.739V14.4A14.4,14.4,0,0,1,14.4,0h72A9.6,9.6,0,0,1,96,9.6V90.4a9.6,9.6,0,0,1-9.6,9.6H16.261c-2.509,0-4.261,1.538-4.261,3.74A4.266,4.266,0,0,0,16.261,108H90a6,6,0,1,1,0,12ZM33,29a6,6,0,1,0,0,12H63a6,6,0,1,0,0-12Z" transform="translate(111 1101)" fill="#0b4d92"/>
  </g>
</svg>
