<svg xmlns="http://www.w3.org/2000/svg" width="20" height="20" viewBox="0 0 20 20">
  <path id="ic_object_502_outline" d="M9.707,19.943l-.969-.357C5.469,18.4,0,16.436,0,9.829V3.571a.743.743,0,0,1,.77-.714C7.3,2.858,9.362.3,9.362.3A.839.839,0,0,1,10,0a.787.787,0,0,1,.631.307c.015.022,2.069,2.551,8.6,2.551A.742.742,0,0,1,20,3.571V9.829c0,6.6-5.469,8.578-8.738,9.757l-.969.357a.783.783,0,0,1-.585,0ZM7.947,2.48A16.445,16.445,0,0,1,1,3.857V9.829a7.488,7.488,0,0,0,2.766,6.128,17.348,17.348,0,0,0,5.286,2.678l.028.01.005,0,.915.337.916-.337.006,0C14.139,17.485,19,15.733,19,9.829V3.857C13.077,3.8,10.626,1.747,9.994,1.09A7.224,7.224,0,0,1,7.947,2.48ZM9.266,14.442,5.84,10.952a2.955,2.955,0,0,1,.207-4.321A2.939,2.939,0,0,1,10,6.925a2.9,2.9,0,1,1,4.16,4.029l-3.425,3.49a1.026,1.026,0,0,1-1.469,0ZM6.65,7.35a2.014,2.014,0,0,0-.142,2.943l3.425,3.49a.081.081,0,0,0,.133,0l3.425-3.49a2.022,2.022,0,0,0-.142-2.945,1.978,1.978,0,0,0-2.666.207l-.684.7-.684-.7a2.08,2.08,0,0,0-1.479-.629A1.832,1.832,0,0,0,6.65,7.35Z" fill="#202125"/>
</svg>
