<svg xmlns="http://www.w3.org/2000/svg" width="20" height="20" viewBox="0 0 20 20">
  <path id="ic_object_7_outline" d="M0,10A10,10,0,1,1,10,20,10,10,0,0,1,0,10Zm1,0a9,9,0,1,0,9-9A9.01,9.01,0,0,0,1,10Zm6.5,1.4c0-.083,0-.167.011-.248a2.56,2.56,0,0,0,4.976,0,2.214,2.214,0,0,1,.013.244A2.553,2.553,0,0,1,10,14,2.553,2.553,0,0,1,7.5,11.4Zm.724-.512A1.776,1.776,0,1,1,10,12.734,1.811,1.811,0,0,1,8.223,10.886Zm-.713.262h0v0Zm2.5-2.509A1.159,1.159,0,0,1,8.89,7.462c.013-.318.388-.531.424-.847.014-.129-.13-.254-.091-.377.053-.172.392-.344.392-.344a.6.6,0,0,0-.134.251c-.009.156.18.269.18.424,0,.224-.3.391-.272.613.017.123.115.278.24.282s.228-.156.257-.282c.043-.193-.173-.369-.165-.565.01-.271.274-.485.285-.754.01-.206-.224-.4-.165-.6.042-.136.318-.266.318-.266a1.186,1.186,0,0,0-.077.3c-.011.406.358.724.378,1.129.013.263-.262.5-.212.755.025.121.112.285.228.282s.19-.167.211-.282c.03-.179-.18-.341-.166-.519s.21-.293.241-.472a1.3,1.3,0,0,0-.044-.391s.3.278.329.472c.022.147-.135.275-.135.421,0,.274.265.5.257.771a1.307,1.307,0,0,1-.347.847,1.169,1.169,0,0,1-.811.33Z" fill="#202125"/>
</svg>
