<svg xmlns="http://www.w3.org/2000/svg" width="20" height="20" viewBox="0 0 20 20">
  <path id="ic_object_405_outline" d="M5,20a5,5,0,0,1-5-5V5A5,5,0,0,1,5,0H15a5,5,0,0,1,5,5V15a5,5,0,0,1-5,5ZM1,5V15a4,4,0,0,0,4,4H15a4,4,0,0,0,4-4V7.833H14.667A2.169,2.169,0,0,0,12.5,10h-5a7.174,7.174,0,0,1,7.167-7.166h3.693A4,4,0,0,0,15,1H5A4.005,4.005,0,0,0,1,5ZM8.582,9h3.08a3.172,3.172,0,0,1,3.006-2.167H19V5a3.987,3.987,0,0,0-.174-1.167H14.667A6.176,6.176,0,0,0,8.582,9Zm-.3,6.17a1.491,1.491,0,0,1-.041-1.7l1.493-2.336A.325.325,0,0,1,10,11a.3.3,0,0,1,.263.139l1.492,2.336a1.49,1.49,0,0,1-.04,1.7A2.048,2.048,0,0,1,10,16,2.075,2.075,0,0,1,8.285,15.17Zm.8-1.156A.5.5,0,0,0,9.1,14.6a1.089,1.089,0,0,0,.9.4,1.063,1.063,0,0,0,.891-.4.488.488,0,0,0,.022-.589L10,12.585Z" fill="#202125"/>
</svg>
