<svg xmlns="http://www.w3.org/2000/svg" width="20" height="20" viewBox="0 0 20 20">
  <path id="ic_object_103_outline" d="M.433,20a.422.422,0,1,1,0-.843H.738V9.383c0-.012.006-.021.006-.032A.52.52,0,0,1,.755,9.3a.4.4,0,0,1,.069-.157c.006-.008.005-.02.012-.028L3.5,5.945a.435.435,0,0,1,.335-.157H9.568V.749A.421.421,0,0,1,9.807.371a.44.44,0,0,1,.454.04c.512.375.848.24,1.426-.044A2,2,0,0,1,14.022.4a.42.42,0,0,1,.173.338V3.493a.422.422,0,0,1-.24.377.443.443,0,0,1-.453-.04c-.514-.377-.842-.246-1.426.043a2.738,2.738,0,0,1-1.217.367,1.635,1.635,0,0,1-.427-.062V5.787h5.734a.437.437,0,0,1,.335.157l2.662,3.17c.007.009.006.02.013.029a.416.416,0,0,1,.068.156.488.488,0,0,1,.011.052c0,.011.006.02.006.031v9.775h.306a.422.422,0,1,1,0,.843Zm13.98-.843H18.4V9.8H14.413ZM6.453,9.6v9.553h7.094V9.6L10,7.235ZM1.6,19.156H5.587V9.8H1.6ZM14.113,8.96h3.8L15.962,6.633H10.629Zm-12.029,0h3.8L9.372,6.632H4.038Zm8.348-5.685c.418.232.736.1,1.251-.156a2.262,2.262,0,0,1,1.643-.312V.96c-.418-.23-.735-.1-1.252.157a2.265,2.265,0,0,1-1.642.311ZM7.672,12.661A2.328,2.328,0,1,1,10,14.99,2.331,2.331,0,0,1,7.672,12.661Zm.875.171a1.463,1.463,0,1,0,1.786-1.592v1.421a.333.333,0,1,1-.666,0V11.24A1.464,1.464,0,0,0,8.546,12.832Z" fill="#202125"/>
</svg>
