<svg xmlns="http://www.w3.org/2000/svg" width="20" height="20" viewBox="0 0 20 20">
  <path id="ic_object_703_outline" d="M12,20H.476a.475.475,0,1,1,0-.949H1.588V11.822A3.658,3.658,0,0,1,3.359,8.7L8.121,5.853a3.655,3.655,0,0,1,3.758,0L16.64,8.7a3.656,3.656,0,0,1,1.773,3.121V19.05h1.111a.475.475,0,1,1,0,.949Zm5.459-.949V11.822A2.7,2.7,0,0,0,16.15,9.515L11.388,6.666a2.7,2.7,0,0,0-2.776,0L3.849,9.515A2.7,2.7,0,0,0,2.54,11.822V19.05H7q0-.025,0-.05V13a1,1,0,0,1,1-1h4a1,1,0,0,1,1,1v6q0,.025,0,.05ZM8,19h4V13H8ZM0,2.5A2.5,2.5,0,1,1,2.5,5,2.5,2.5,0,0,1,0,2.5Zm.75,0A1.75,1.75,0,1,0,2.5.75,1.752,1.752,0,0,0,.75,2.5Z" fill="#202125"/>
</svg>
