<svg xmlns="http://www.w3.org/2000/svg" width="20" height="20.045" viewBox="0 0 20 20.045">
  <path id="ic_object_5_outline" d="M9.463,20.045a1.613,1.613,0,0,1-1.612-1.612v-.326a1.064,1.064,0,0,0-.537-.931,1.063,1.063,0,0,0-1.075,0l-.283.163a1.614,1.614,0,0,1-2.2-.59l-.537-.931a1.617,1.617,0,0,1,.492-2.141c.467.054.96.1,1.466.142a2.082,2.082,0,0,1-.585.5l-.284.164a.609.609,0,0,0-.223.835l.536.931a.618.618,0,0,0,.534.306.6.6,0,0,0,.3-.082l.281-.161a2.074,2.074,0,0,1,3.113,1.8v.326a.613.613,0,0,0,.612.612h1.075a.613.613,0,0,0,.612-.612v-.327a2.054,2.054,0,0,1,1.038-1.8,2.062,2.062,0,0,1,2.075,0l.283.163a.6.6,0,0,0,.3.082.617.617,0,0,0,.533-.305l.537-.931a.615.615,0,0,0-.224-.837l-.282-.163a2.077,2.077,0,0,1-.586-.5c.489-.04.982-.086,1.466-.142a1.617,1.617,0,0,1,.491,2.141l-.537.931a1.62,1.62,0,0,1-1.4.806,1.6,1.6,0,0,1-.8-.215l-.283-.164a1.075,1.075,0,0,0-1.612.931v.327a1.613,1.613,0,0,1-1.612,1.612ZM6.585,13.913c.354.019.739.036,1.148.05a2.685,2.685,0,0,0,4.534,0c.381-.013.767-.03,1.148-.05a3.688,3.688,0,0,1-6.83,0ZM0,12C0,9.7,1.2,9.5,1.2,9.5A7.656,7.656,0,0,1,6.4,2L7.9,5V1a.944.944,0,0,1,1-1h2a.944.944,0,0,1,1,1V5l1.6-3a7.656,7.656,0,0,1,5.2,7.5s1.2.2,1.3,2.5c0,0-3,1-10,1S0,12,0,12ZM4.454,4.256A6.611,6.611,0,0,0,2.2,9.5a1,1,0,0,1-.758.97c-.094.049-.28.261-.378.769A42.693,42.693,0,0,0,10,12a42.917,42.917,0,0,0,8.9-.751c-.145-.6-.39-.753-.437-.779a1,1,0,0,1-.76-.97,6.619,6.619,0,0,0-2.2-5.193,7.172,7.172,0,0,0-1.546-1.04l-1.174,2.2A1,1,0,0,1,10.9,5V1h-2V5a1,1,0,0,1-1.894.446L5.921,3.279A7.154,7.154,0,0,0,4.454,4.256Z" fill="#202125"/>
</svg>
