<svg xmlns="http://www.w3.org/2000/svg" width="20" height="20" viewBox="0 0 20 20">
  <path id="ic_object_408_outline" d="M14.295,19.377a1.737,1.737,0,0,0-1.286-.442,1.738,1.738,0,0,0-1.262.386,2.566,2.566,0,0,1-1.674.564l-.115,0a3.872,3.872,0,0,1-1.8-.435,3.146,3.146,0,0,0-1.512-.365,2.168,2.168,0,0,0-1.251.291,2.92,2.92,0,0,1-1.617.394,3.946,3.946,0,0,1-1.724-.365,3.458,3.458,0,0,0-1.563-.319.468.468,0,1,1,0-.935,4.422,4.422,0,0,1,1.961.4,2.916,2.916,0,0,0,1.326.285,1.943,1.943,0,0,0,1.129-.272,3.122,3.122,0,0,1,1.739-.412,4.146,4.146,0,0,1,1.94.458,2.89,2.89,0,0,0,1.367.341h.091a1.577,1.577,0,0,0,1.1-.371A2.715,2.715,0,0,1,13.009,18a2.72,2.72,0,0,1,1.909.651,1.564,1.564,0,0,0,1.159.414,1.964,1.964,0,0,0,1.267-.417A3.483,3.483,0,0,1,19.507,18a.468.468,0,1,1,0,.935,2.473,2.473,0,0,0-1.606.486A2.967,2.967,0,0,1,16.077,20,2.556,2.556,0,0,1,14.295,19.377Zm0-2a1.737,1.737,0,0,0-1.286-.442,1.734,1.734,0,0,0-1.262.386,2.576,2.576,0,0,1-1.674.564l-.115,0a3.872,3.872,0,0,1-1.8-.435,3.146,3.146,0,0,0-1.512-.365,2.168,2.168,0,0,0-1.251.291,2.92,2.92,0,0,1-1.617.394,3.946,3.946,0,0,1-1.724-.365,3.446,3.446,0,0,0-1.563-.319A.481.481,0,0,1,0,16.619a.447.447,0,0,1,.077-.25L.981.9a.955.955,0,0,1,1-.9h1a.956.956,0,0,1,1,.9V2h12V.9a.955.955,0,0,1,1-.9h1a.956.956,0,0,1,1,.9l.892,15.255-.025-.024a.456.456,0,0,1,.151.337.481.481,0,0,1-.493.467,2.473,2.473,0,0,0-1.606.486A2.967,2.967,0,0,1,16.077,18,2.56,2.56,0,0,1,14.295,17.377Zm.623-.726a1.564,1.564,0,0,0,1.159.413h0a1.568,1.568,0,0,1-1.159-.413Zm1.2.413h0Zm.035,0h0Zm.032,0h0Zm.107-.006h0Zm.024,0h0Zm.025,0h0ZM16.981,2V16.867a1.692,1.692,0,0,1-.613.182,2.016,2.016,0,0,0,.976-.4,3.4,3.4,0,0,1,1.569-.613l-.048.006L17.986,1h-1Zm-2,6v3l.857,6h.143V3h-12V16.832c.061,0,.117-.007.169-.013L4.982,11V8a2,2,0,1,1,4,0v3l.85,5.948h0a2.576,2.576,0,0,1-.92-.2,2.613,2.613,0,0,0,1.047.2h.091l.084,0L10.981,11V8a2,2,0,0,1,4,0Zm-11.2,8.836h0a3.171,3.171,0,0,1-.689-.066A3.139,3.139,0,0,0,3.781,16.836Zm.027,0,.148,0Zm-.716-.066-.018,0Zm-.027-.006-.01,0Zm-.023-.005h0Zm-.587-.208a4.124,4.124,0,0,0,.526.193V1h-1L1.089,16.18l-.079-.007A4.315,4.315,0,0,1,2.455,16.55Zm2.124.173h0Zm.013,0h0Zm.015-.006,0,0Zm.012,0,.006,0Zm.013-.005.005,0ZM8.59,16.61l.2.088L8.114,12H5.848l-.629,4.409a3.3,3.3,0,0,1,1.43-.256A4.146,4.146,0,0,1,8.59,16.61ZM4.642,16.7l.014-.006Zm.018-.008.005,0Zm.012-.005.007,0Zm.009,0,.027-.012Zm.031-.014.007,0Zm.011-.005.007,0Zm.018-.009h0Zm.012-.006,0,0Zm.014-.007h0Zm10.131,0c-.044-.034-.09-.069-.137-.1L14.114,12H11.849L11.2,16.54A2.707,2.707,0,0,1,13.009,16,2.71,2.71,0,0,1,14.9,16.637Zm-10.12,0,0,0Zm.015-.008h0Zm.009,0,.008,0Zm.009,0,.012-.006Zm.032-.017,0,0Zm.009,0,.016-.008Zm.058-.031-.037.02.037-.02ZM11.145,16.58ZM.179,16.259h0Zm.01-.008.007,0Zm.01-.007.008-.006Zm.008-.006a.5.5,0,0,1,.125-.061A.5.5,0,0,0,.208,16.238Zm.129-.062.008,0Zm.674,0-.03,0Zm-.66,0,.007,0Zm.016,0h0Zm.018,0h0Zm.014,0h0Zm.015,0h0Zm.033,0h0Zm.015,0h0Zm.154,0h0Zm-.038,0h0Zm-.1,0h0Zm.062,0h0Zm19.31-.023,0,0Zm-.01-.008,0,0Zm-.01-.008h0Zm-.01-.008h0Zm-.895-.07.023,0ZM19.378,16h0Zm.168,0h0Zm-.13,0h0Zm.119,0h0Zm-.012,0h0Zm-.064,0h0ZM11.981,8v3h2V8a1,1,0,0,0-2,0Zm-6,0v3h2V8a1,1,0,0,0-2,0Zm6.386,10a2.662,2.662,0,0,1,.641-.065A2.4,2.4,0,0,1,13.6,18v0Z" fill="#202125"/>
</svg>
