<svg xmlns="http://www.w3.org/2000/svg" width="20" height="20" viewBox="0 0 20 20">
  <path id="ic_object_101_outline" d="M3.167,20A2.159,2.159,0,0,1,1,17.852V7.754L.795,7.9A.5.5,0,1,1,.205,7.1l3.3-2.414V.5A.488.488,0,0,1,3.981,0H6.033a.487.487,0,0,1,.473.5V2.488L9.777.1a.5.5,0,0,1,.593,0l9.428,7a.5.5,0,1,1-.6.8l-.2-.15v10.1A2.159,2.159,0,0,1,16.834,20Zm13.667-1A1.159,1.159,0,0,0,18,17.852V7.009L10.069,1.121,2,7.023v10.83A1.159,1.159,0,0,0,3.167,19h3.7V12.88A2.841,2.841,0,0,1,9.851,9.989a2.981,2.981,0,0,1,2.236.859,2.892,2.892,0,0,1,.744,2.031V19Zm-5,0V12.88a1.767,1.767,0,0,0-1.98-1.891A1.833,1.833,0,0,0,7.871,12.88V19ZM4.455,3.988l1.1-.807V1h-1.1Z" transform="translate(0 0)" fill="#202125"/>
</svg>
