<svg xmlns="http://www.w3.org/2000/svg" width="20" height="20" viewBox="0 0 20 20">
  <path id="ic_object_104_outline" d="M42.13,39.031a.536.536,0,0,0,.536-.535V35.533A.536.536,0,0,0,42.13,35H39.91V29.262H42.13a.535.535,0,0,0,.274-.995l-2.345-1.4a.535.535,0,1,0-.549.919l.675.4H25.195l7.6-4.4,5.1,3.041a.535.535,0,1,0,.549-.919l-5.373-3.2a.537.537,0,0,0-.543,0l-9.6,5.56a.535.535,0,0,0,.269,1h2.221V35H23.2a.536.536,0,0,0-.536.535V42.1a.536.536,0,0,0,.536.535h2.96a.539.539,0,0,0,.52-.407c.034-.135.9-3.307,5.984-3.307a7.1,7.1,0,0,1,6.074,3.433.535.535,0,0,0,.471.28H42.13a.536.536,0,0,0,.536-.535V40.358a.536.536,0,0,0-1.071,0v1.2H39.513a8.165,8.165,0,0,0-6.847-3.713c-4.9,0-6.46,2.666-6.886,3.713H23.738V36.068H41.595V38.5A.536.536,0,0,0,42.13,39.031Zm-6.568-9.769V35H29.77V29.262ZM26.494,35V29.262h2.2V35Zm10.14,0V29.262h2.2V35Z" transform="translate(-22.666 -22.632)" fill="#202125"/>
</svg>
