<svg xmlns="http://www.w3.org/2000/svg" width="20" height="20" viewBox="0 0 20 20">
  <path id="ic_object_302_outline" d="M.712,20a.751.751,0,0,1,0-1.5H1.5V16.529a.7.7,0,0,1,.708-.7H3.333V5.667H2.548a.717.717,0,0,1-.714-.72V2.257A.721.721,0,0,1,2.245,1.6,19.852,19.852,0,0,1,10,0a19.854,19.854,0,0,1,7.755,1.6.721.721,0,0,1,.412.653V4.946a.717.717,0,0,1-.714.72h-.786V15.833h1.125a.7.7,0,0,1,.708.7V18.5h.788a.751.751,0,0,1,0,1.5Zm16.371-1.5V17.225H2.917V18.5Zm-1.75-2.667V5.667H13.667V15.833Zm-3,0V5.667H10.667V15.833Zm-3,0V5.667H7.667V15.833Zm-3,0V5.667H4.667V15.833ZM3.262,2.736v1.49H16.738V2.736A19.065,19.065,0,0,0,10,1.44,19.064,19.064,0,0,0,3.262,2.736Z" fill="#202125"/>
</svg>
