<svg xmlns="http://www.w3.org/2000/svg" width="20.001" height="20" viewBox="0 0 20.001 20">
  <path id="ic_object_1_outline" d="M16,18a2,2,0,0,1,1.5-1.937V9.37l-1-.46V11.5a4,4,0,0,1-1.9,3.122A7.988,7.988,0,0,1,10,16a8.42,8.42,0,0,1-4.6-1.211A3.865,3.865,0,0,1,3.5,11.5V8.32l1,.457V11.5a2.944,2.944,0,0,0,1.456,2.454A7.424,7.424,0,0,0,10,15c3.148,0,5.5-1.848,5.5-3.5V8.776L11.231,10.73a2.946,2.946,0,0,1-2.464,0L.824,7.093A1.5,1.5,0,0,1,.762,4.452L8.624.34a2.95,2.95,0,0,1,2.75,0l7.862,4.112a1.5,1.5,0,0,1-.062,2.642l-2.119.97,1.154.531a.5.5,0,0,1,.292.454v7.014A2,2,0,1,1,16,18Zm1,0a1,1,0,1,0,1-1A1,1,0,0,0,17,18ZM9.087,1.226,1.225,5.338A.475.475,0,0,0,1,5.77a.464.464,0,0,0,.242.415l1.049.482L9.184,9.821a1.946,1.946,0,0,0,1.631,0l3.844-1.759L11.9,6.794A2.786,2.786,0,0,1,10,7.5a2.3,2.3,0,0,1-2.5-2,2.3,2.3,0,0,1,2.5-2,2.3,2.3,0,0,1,2.5,2,1.619,1.619,0,0,1-.061.44l3.418,1.573,2.9-1.328A.462.462,0,0,0,19,5.772a.475.475,0,0,0-.227-.434L10.911,1.227a1.949,1.949,0,0,0-1.823,0ZM8.5,5.5c0,.542.688,1,1.5,1s1.5-.458,1.5-1-.687-1-1.5-1S8.5,4.958,8.5,5.5Z" transform="translate(0)" fill="#202125"/>
</svg>
