<svg xmlns="http://www.w3.org/2000/svg" width="20" height="20" viewBox="0 0 20 20">
  <g id="ic_object_403_outline" transform="translate(-2877 -1226)">
    <path id="Path_149" data-name="Path 149" d="M15.878,18.424a9.124,9.124,0,0,1-6.121-2.592,12.693,12.693,0,0,1-2.185-2.574l.857-.515a11.931,11.931,0,0,0,2.021,2.368,8.029,8.029,0,0,0,5.428,2.313c4.587,0,7.421-4.634,7.449-4.681l.857.515A12.693,12.693,0,0,1,22,15.832,9.124,9.124,0,0,1,15.878,18.424Z" transform="translate(2871.122 1216.477)"/>
    <path id="Path_150" data-name="Path 150" d="M8,29.5a.5.5,0,0,1-.5-.5V10a.5.5,0,0,1,1,0V29A.5.5,0,0,1,8,29.5Z" transform="translate(2871.5 1216.5)"/>
    <path id="Path_151" data-name="Path 151" d="M40,29.5a.5.5,0,0,1-.5-.5V10a.5.5,0,0,1,1,0V29A.5.5,0,0,1,40,29.5Z" transform="translate(2854.5 1216.5)"/>
    <path id="Path_152" data-name="Path 152" d="M23,30.987h-.039c-.058,0-5.813-.444-9.468-.491s-9.41.243-9.468.246a.5.5,0,1,1-.051-1c.058,0,5.848-.294,9.532-.247s9.474.489,9.532.494a.5.5,0,0,1-.038,1Z" transform="translate(2873.5 1210.853)"/>
    <path id="Path_153" data-name="Path 153" d="M16,28.73a.5.5,0,0,1-.5-.5V21a.5.5,0,0,1,1,0v7.23A.5.5,0,0,1,16,28.73Z" transform="translate(2867.061 1212.617)"/>
    <path id="Path_154" data-name="Path 154" d="M24,29.745a.5.5,0,0,1-.5-.5V23a.5.5,0,0,1,1,0v6.245A.5.5,0,0,1,24,29.745Z" transform="translate(2863 1211.602)"/>
    <path id="Path_155" data-name="Path 155" d="M32,28.73a.5.5,0,0,1-.5-.5V21a.5.5,0,0,1,1,0v7.23A.5.5,0,0,1,32,28.73Z" transform="translate(2858.939 1212.617)"/>
    <path id="Path_156" data-name="Path 156" d="M4,15.962a.5.5,0,0,1-.39-.812l1.969-2.462a.5.5,0,1,1,.781.625L4.39,15.774A.5.5,0,0,1,4,15.962Z" transform="translate(2873.5 1216.477)"/>
    <path id="Path_157" data-name="Path 157" d="M41.97,15.962a.5.5,0,0,1-.391-.188L39.61,13.312a.5.5,0,0,1,.781-.625l1.969,2.462a.5.5,0,0,1-.39.812Z" transform="translate(2854.5 1216.477)"/>
  </g>
</svg>
