<svg xmlns="http://www.w3.org/2000/svg" width="20" height="20" viewBox="0 0 20 20">
  <g id="ic_object_401_outline" transform="translate(0.005 -1.992)">
    <path id="Path_202" data-name="Path 202" d="M5.8,1.992a.544.544,0,0,0-.506.436L.027,21.137c-.222.789.777,1.184,1,.395L6.291,2.823A.617.617,0,0,0,5.8,1.992Zm1.581,0a.555.555,0,0,0-.52.492L3.174,21.193c-.206.842.895,1.146,1.024.283L7.883,2.767A.609.609,0,0,0,7.379,1.992Zm2.616,0a.585.585,0,0,0-.518.633V3.873a.535.535,0,1,0,1.053,0V2.626A.581.581,0,0,0,10,1.992Zm2.616,0a.609.609,0,0,0-.5.775l3.685,18.708c.13.863,1.23.56,1.024-.283L13.131,2.484A.555.555,0,0,0,12.611,1.992Zm1.581,0a.617.617,0,0,0-.494.831l5.265,18.708c.222.789,1.222.395,1-.395L14.7,2.428A.544.544,0,0,0,14.192,1.992ZM10,8.228a.585.585,0,0,0-.518.633V12.6a.535.535,0,1,0,1.053,0V8.862A.581.581,0,0,0,10,8.228Zm0,8.731a.585.585,0,0,0-.518.633v3.742a.535.535,0,1,0,1.053,0V17.592A.581.581,0,0,0,10,16.959Z" transform="translate(0 0)" fill="#202125"/>
  </g>
</svg>
