<svg xmlns="http://www.w3.org/2000/svg" width="20" height="20" viewBox="0 0 20 20">
  <path id="ic_object_102_outline" d="M50.72,83.13H49.83V72.112a.363.363,0,0,0-.361-.364H44.693v-.674a.364.364,0,0,0-.237-.342l-3-2.109V67.468a1.34,1.34,0,0,0,.356.053,2.236,2.236,0,0,0,1.014-.317c.489-.249.763-.363,1.189-.038a.358.358,0,0,0,.377.034.365.365,0,0,0,.2-.325V64.5a.367.367,0,0,0-.144-.291,1.621,1.621,0,0,0-1.947-.03c-.48.246-.762.363-1.188.039a.357.357,0,0,0-.378-.036.365.365,0,0,0-.2.326v4.108l-3.026,2.119a.365.365,0,0,0-.237.342v.674H32.7a.363.363,0,0,0-.361.364V83.13h-.9a.364.364,0,0,0,0,.729H50.72a.364.364,0,0,0,0-.729ZM41.457,65.1a1.834,1.834,0,0,0,1.369-.27c.43-.22.694-.336,1.045-.135v1.594a1.822,1.822,0,0,0-1.37.27c-.43.22-.694.335-1.043.135ZM34.905,83.13H33.059V80.264h1.846Zm0-3.6H33.059V77.669h1.846Zm0-2.6H33.059V75.073h1.846Zm0-2.6H33.059V72.478h1.846Zm2.568,8.786H35.627V80.264h1.846Zm0-3.6H35.627V77.669h1.846Zm0-2.6H35.627V75.073h1.846Zm0-2.6H35.627V72.478h1.846Zm4.443,8.484H40.25V79.217a.845.845,0,0,1,.411-.746.826.826,0,0,1,.845,0,.845.845,0,0,1,.411.746ZM43.97,72.112V83.13H42.636V79.217a1.556,1.556,0,1,0-3.112,0V83.13H38.19v-11.8l2.89-2.068,2.89,2.068Zm2.568,11.017H44.693V80.264h1.846Zm0-3.6H44.693V77.669h1.846Zm0-2.6H44.693V75.073h1.846Zm0-2.6H44.693V72.478h1.846ZM49.1,83.129H47.26V80.264h1.846Zm0-3.6H47.26V77.669h1.846Zm0-2.6H47.26V75.073h1.846Zm0-2.6H47.26V72.478h1.846Z" transform="translate(-31.08 -63.859)" fill="#202125"/>
</svg>
