<svg xmlns="http://www.w3.org/2000/svg" width="20" height="20" viewBox="0 0 20 20">
  <g id="ic_object_307_outline" transform="translate(-0.5 -0.5)">
    <path id="Path_203" data-name="Path 203" d="M23.413,10.5a.5.5,0,0,1,.487.388,12.047,12.047,0,0,1,.266,2.709,14.02,14.02,0,0,1-1.937,7.392c-1.292,2.05-3.031,3.178-4.9,3.178s-3.6-1.129-4.9-3.178A14.02,14.02,0,0,1,10.5,13.6a17.66,17.66,0,0,1,.259-2.673.5.5,0,0,1,.627-.406,22.756,22.756,0,0,0,5.947.742,22.756,22.756,0,0,0,5.947-.742A.5.5,0,0,1,23.413,10.5Zm-6.08,12.667c1.509,0,2.948-.963,4.05-2.712A13.015,13.015,0,0,0,23.167,13.6a12.29,12.29,0,0,0-.142-1.979,24.307,24.307,0,0,1-5.692.643,24.329,24.329,0,0,1-5.667-.637A14.2,14.2,0,0,0,11.5,13.6a13.015,13.015,0,0,0,1.783,6.858C14.386,22.2,15.824,23.167,17.333,23.167Z" transform="translate(-3.667 -3.667)" fill="#202125"/>
    <path id="Path_204" data-name="Path 204" d="M17,22.5a.5.5,0,0,1,.268.078,4.456,4.456,0,0,0,4.53,0,.5.5,0,0,1,.766.467,3.433,3.433,0,0,1-.957,2.094,2.855,2.855,0,0,1-4.149,0,3.433,3.433,0,0,1-.957-2.094A.5.5,0,0,1,17,22.5Zm2.533,1.7a5.564,5.564,0,0,1-1.744-.277,1.922,1.922,0,0,0,3.488,0A5.564,5.564,0,0,1,19.533,24.2Z" transform="translate(-5.867 -8.067)" fill="#202125"/>
    <path id="Path_205" data-name="Path 205" d="M17.533,19.767a.5.5,0,0,1-.5-.5.767.767,0,0,0-1.533,0,.5.5,0,0,1-1,0,1.767,1.767,0,0,1,3.533,0A.5.5,0,0,1,17.533,19.767Z" transform="translate(-5.133 -6.233)" fill="#202125"/>
    <path id="Path_206" data-name="Path 206" d="M25.533,19.767a.5.5,0,0,1-.5-.5.767.767,0,0,0-1.533,0,.5.5,0,0,1-1,0,1.767,1.767,0,0,1,3.533,0A.5.5,0,0,1,25.533,19.767Z" transform="translate(-8.067 -6.233)" fill="#202125"/>
    <path id="Path_207" data-name="Path 207" d="M7.777,14.167H7.333c-1.865,0-3.6-1.129-4.9-3.178A14.02,14.02,0,0,1,.5,3.6,12.047,12.047,0,0,1,.766.888a.5.5,0,0,1,.62-.37,22.683,22.683,0,0,0,5.947.805A23.126,23.126,0,0,0,13.285.58.5.5,0,0,1,13.9.951a12.047,12.047,0,0,1,.266,2.709,14.594,14.594,0,0,1-.659,4.591.5.5,0,1,1-.949-.316,13.607,13.607,0,0,0,.608-4.275,12.282,12.282,0,0,0-.142-1.982,24.417,24.417,0,0,1-5.691.646,23.737,23.737,0,0,1-5.692-.7A12.294,12.294,0,0,0,1.5,3.6a13.015,13.015,0,0,0,1.783,6.858c1.1,1.749,2.541,2.712,4.05,2.712h.443a.5.5,0,1,1,0,1Z" fill="#202125"/>
    <path id="Path_208" data-name="Path 208" d="M7,15.033a.5.5,0,0,1-.5-.545,3.433,3.433,0,0,1,.957-2.094A2.9,2.9,0,0,1,9.533,11.5a.5.5,0,1,1,0,1A2.029,2.029,0,0,0,7.79,13.614a5.564,5.564,0,0,1,1.744-.277.5.5,0,1,1,0,1,4.261,4.261,0,0,0-2.265.619A.5.5,0,0,1,7,15.033Z" transform="translate(-2.2 -4.033)" fill="#202125"/>
    <path id="Path_209" data-name="Path 209" d="M6.267,8.767A1.769,1.769,0,0,1,4.5,7a.5.5,0,0,1,1,0A.767.767,0,0,0,7.033,7a.5.5,0,0,1,1,0A1.769,1.769,0,0,1,6.267,8.767Z" transform="translate(-1.467 -2.2)" fill="#202125"/>
    <path id="Path_210" data-name="Path 210" d="M14.267,8.767A1.769,1.769,0,0,1,12.5,7a.5.5,0,0,1,1,0,.767.767,0,0,0,1.533,0,.5.5,0,0,1,1,0A1.769,1.769,0,0,1,14.267,8.767Z" transform="translate(-4.4 -2.2)" fill="#202125"/>
  </g>
</svg>
