<svg xmlns="http://www.w3.org/2000/svg" width="20" height="20" viewBox="0 0 20 20">
  <path id="ic_object_301_outline" d="M39,31.519V29.567H21v1.951H39m0-12.952V17.115l-9-3.622-9,3.622v1.452H39M39.167,32.5H20.833a.827.827,0,0,1-.833-.82V29.4a.827.827,0,0,1,.833-.82H22.5V19.551H20.833a.827.827,0,0,1-.833-.82V17.009a.82.82,0,0,1,.517-.762l9.167-3.689a.931.931,0,0,1,.633,0l9.167,3.689a.82.82,0,0,1,.517.762v1.722a.827.827,0,0,1-.833.82H37.5v9.033h1.667A.827.827,0,0,1,40,29.4v2.279A.827.827,0,0,1,39.167,32.5ZM33.058,19.551v9.033h2.775V19.551Zm-4.45,0v9.033h2.783V19.551Zm-4.442,0v9.033h2.775V19.551Z" transform="translate(-20 -12.502)" fill="#202125"/>
</svg>
