<svg xmlns="http://www.w3.org/2000/svg" width="20" height="20" viewBox="0 0 20 20">
  <g id="ic_object_705_outline" transform="translate(-2766 -1181)">
    <path id="Ellipse_25" data-name="Ellipse 25" d="M5,1A4,4,0,1,0,9,5,4,4,0,0,0,5,1M5,0A5,5,0,1,1,0,5,5,5,0,0,1,5,0Z" transform="translate(2766 1191)" fill="#202125"/>
    <path id="Ellipse_26" data-name="Ellipse 26" d="M3.5,1A2.5,2.5,0,1,0,6,3.5,2.5,2.5,0,0,0,3.5,1m0-1A3.5,3.5,0,1,1,0,3.5,3.5,3.5,0,0,1,3.5,0Z" transform="translate(2778 1194)" fill="#202125"/>
    <path id="Line_1" data-name="Line 1" d="M7.423.5H0A.5.5,0,0,1-.5,0,.5.5,0,0,1,0-.5H7.423a.5.5,0,0,1,.5.5A.5.5,0,0,1,7.423.5Z" transform="translate(2769.155 1181.5)" fill="#202125"/>
    <path id="Path_143" data-name="Path 143" d="M12.882,20.5a.515.515,0,0,1-.518-.513v-.634A5.868,5.868,0,0,0,6.47,13.525a5.714,5.714,0,0,0-4.176,1.742.522.522,0,0,1-.733.02.509.509,0,0,1-.02-.725A6.747,6.747,0,0,1,6.47,12.5a6.9,6.9,0,0,1,6.93,6.853v.634A.515.515,0,0,1,12.882,20.5Z" transform="translate(2764.6 1176.217)" fill="#202125"/>
    <path id="Subtraction_54" data-name="Subtraction 54" d="M17.574,14.753h-.965A3.535,3.535,0,0,0,15.536,13.6h1.537V8.949l-7.816-1a.5.5,0,0,1-.465-.315L6.933,1H2.1L1.067,8.043a.5.5,0,0,1-.591.39A.4.4,0,0,0,.4,8.425a.58.58,0,0,0-.4.2L1.265.454C1.31.235,1.446,0,1.693,0H7.272a.5.5,0,0,1,.465.314L9.6,6.948l7.978,1a.5.5,0,0,1,.5.5v5.8A.5.5,0,0,1,17.574,14.753Zm-7.032,0H9.394L9.446,13.6h2.17a3.536,3.536,0,0,0-1.073,1.152Z" transform="translate(2767.925 1181)" fill="#202125"/>
    <path id="Ellipse_27" data-name="Ellipse 27" d="M2,1A1,1,0,1,0,3,2,1,1,0,0,0,2,1M2,0A2,2,0,1,1,0,2,2,2,0,0,1,2,0Z" transform="translate(2769 1194)" fill="#202125"/>
    <path id="Path_146" data-name="Path 146" d="M24.237,13.448a.5.5,0,0,1-.5-.5V9.237A.738.738,0,0,0,23,8.5a.5.5,0,0,1,0-1,1.739,1.739,0,0,1,1.737,1.737v3.711A.5.5,0,0,1,24.237,13.448Z" transform="translate(2758.381 1177.124)" fill="#202125"/>
  </g>
</svg>
