<svg xmlns="http://www.w3.org/2000/svg" width="20" height="20" viewBox="0 0 20 20">
  <path id="ic_object_501_outline" d="M0,20V19H1.516V.574A.574.574,0,0,1,1.682.167.565.565,0,0,1,2.087,0h8a.57.57,0,0,1,.569.574V19H15.2V15.295a3.546,3.546,0,0,1-3.184-3.26c.018-.91.438-2.764,1.147-3.332a3.063,3.063,0,0,1-.047-.5,2.894,2.894,0,1,1,5.784,0,2.879,2.879,0,0,1-.047.5c.707.569,1.126,2.423,1.144,3.332a3.543,3.543,0,0,1-3.184,3.26V19h1.741v1Zm2.516-1H9.653V1H2.516ZM15.048,6.462a1.908,1.908,0,0,0-.93,1.7v.025a2,2,0,0,0,.031.336,1,1,0,0,1-.359.958,2.538,2.538,0,0,0-.5,1.046,6.407,6.407,0,0,0-.272,1.514,2.571,2.571,0,0,0,2.354,2.265,1,1,0,0,1,.637.394,1,1,0,0,1,.638-.394A2.569,2.569,0,0,0,19,12.045a6.4,6.4,0,0,0-.271-1.515,2.538,2.538,0,0,0-.5-1.048,1,1,0,0,1-.357-.956,2,2,0,0,0,.031-.336c0-.008,0-.017,0-.025a1.908,1.908,0,0,0-.93-1.7,1.885,1.885,0,0,0-1.926,0ZM5,17a1,1,0,0,1-1-1V14a1,1,0,0,1,1-1H7a1,1,0,0,1,1,1v2a1,1,0,0,1-1,1Zm0-1H7V14H5Zm0-4a1,1,0,0,1-1-1V9A1,1,0,0,1,5,8H7A1,1,0,0,1,8,9v2a1,1,0,0,1-1,1Zm0-1H7V9H5ZM5,7A1,1,0,0,1,4,6V4A1,1,0,0,1,5,3H7A1,1,0,0,1,8,4V6A1,1,0,0,1,7,7ZM5,6H7V4H5Z" fill="#202125"/>
</svg>
