<svg xmlns="http://www.w3.org/2000/svg" width="20" height="20" viewBox="0 0 20 20">
  <path id="ic_object_601_outline" d="M12.438,2.878a1.748,1.748,0,0,0-1.06.35l-7.9,6.061a.091.091,0,0,0-.043.069v11.4c0,.046.07.116.177.116H8.91c.106,0,.177-.07.177-.116V13.543a1,1,0,0,1,1-1h4.705a1,1,0,0,1,1,1v7.218c0,.046.07.116.177.116h5.294c.106,0,.177-.07.177-.116V9.36a.093.093,0,0,0-.044-.071L13.5,3.228a1.748,1.748,0,0,0-1.061-.35m0-1a2.743,2.743,0,0,1,1.669.556L22,8.5a1.086,1.086,0,0,1,.435.862v11.4a1.151,1.151,0,0,1-1.177,1.116H15.968a1.151,1.151,0,0,1-1.177-1.116V13.543H10.086v7.218A1.151,1.151,0,0,1,8.91,21.878H3.616a1.151,1.151,0,0,1-1.177-1.116V9.357a1.083,1.083,0,0,1,.435-.863l7.9-6.06A2.743,2.743,0,0,1,12.438,1.878Z" transform="translate(-2.439 -1.878)" fill="#212121"/>
</svg>
