<svg xmlns="http://www.w3.org/2000/svg" width="20" height="19.996" viewBox="0 0 20 19.996">
  <path id="ic_object_503_outline" d="M2.923,17.074a10.024,10.024,0,0,1,0-14.151A9.933,9.933,0,0,1,10,0a9.92,9.92,0,0,1,4.991,1.3l1.15-1.15a.511.511,0,0,1,.872.362V2.989h2.478a.511.511,0,0,1,.362.873L18.7,5.012A9.921,9.921,0,0,1,20,10,10.006,10.006,0,0,1,2.923,17.074ZM1,10A9,9,0,1,0,17.965,5.747l-1.1,1.1A.509.509,0,0,1,16.5,7H14a5.006,5.006,0,1,1-1-1V3.5a.511.511,0,0,1,.15-.362l1.1-1.1A9.053,9.053,0,0,0,1,10Zm5,0a4,4,0,1,0,7.159-2.452l-2.805,2.805a.5.5,0,0,1-.707-.707l2.806-2.8A4,4,0,0,0,6,10Zm8.023-6.288V5.977h2.265l1.966-1.966H16.5a.511.511,0,0,1-.511-.511V1.746Z" fill="#202125"/>
</svg>
