<svg xmlns="http://www.w3.org/2000/svg" width="20" height="20" viewBox="0 0 20 20">
  <path id="ic_object_304_outline" d="M49.426,38.118h0a10.114,10.114,0,0,0-1.408-.1,9.949,9.949,0,0,0-9.558,7.054h0a10,10,0,0,0,9.559,12.945l.051,0h0a9.968,9.968,0,0,0,5.282-1.543h0a10,10,0,0,0-3.928-18.355Zm5.586,4.129a9.057,9.057,0,0,1,1.776,8.125c-.054-.006-.109-.008-.163-.013-.081-.008-.161-.014-.242-.02-.139-.009-.277-.014-.414-.016-.049,0-.1-.006-.149-.006l-.1,0-.194.006q-.17.005-.338.018l-.19.016c-.121.012-.242.027-.361.044-.051.007-.1.013-.152.022a8,8,0,0,0-1.014.232c-.044.013-.088.029-.132.043-.12.038-.238.078-.356.121-.058.021-.115.044-.173.067q-.157.062-.313.131c-.033.015-.068.027-.1.043l-.01-.022c-.106-.249-.22-.5-.339-.746-.026-.056-.053-.111-.08-.165-.122-.248-.249-.5-.385-.743l-.053-.1q-.192-.345-.4-.687c-.028-.046-.054-.091-.083-.137q-.227-.366-.472-.729l-.042-.064A31.6,31.6,0,0,0,55.011,42.247Zm-6.3,14.59c.01-.037.019-.074.03-.11.04-.135.082-.267.127-.4.01-.028.02-.054.03-.081.037-.1.076-.207.117-.308.018-.044.037-.088.056-.132.035-.083.072-.167.109-.248.022-.047.044-.093.067-.139.039-.079.078-.157.119-.234.023-.044.047-.088.071-.132.045-.082.092-.162.14-.242.022-.036.043-.073.065-.109a7.67,7.67,0,0,1,.459-.659c.025-.033.052-.064.078-.1.058-.072.116-.143.176-.212.032-.038.065-.074.1-.11q.086-.095.174-.187l.1-.107c.062-.061.125-.121.189-.18.034-.031.067-.063.1-.093.078-.07.158-.137.239-.2.021-.017.042-.036.063-.053q.155-.123.316-.238l.088-.06q.094-.065.191-.127l0,.009c.009.026.017.052.026.078.047.138.091.276.133.414.017.054.032.109.048.163.032.111.064.223.093.334.016.058.031.117.045.175q.042.167.079.334c.012.053.024.107.036.16q.045.211.082.422c0,.023.009.045.013.067q.042.243.074.485c.006.048.011.1.017.144.014.114.026.228.037.342.006.059.01.117.015.175s.006.1.01.155a9.046,9.046,0,0,1-3.984,1.238C48.665,56.994,48.685,56.915,48.707,56.837Zm1.287-9.924-.019-.025c-.173-.233-.353-.465-.538-.7l-.122-.152c-.189-.233-.382-.465-.582-.7l-.042-.048q-.287-.329-.59-.654l-.128-.138q-.315-.335-.644-.664l-.043-.044c.015-.014.028-.03.043-.045.143-.138.281-.28.413-.427l.008-.009c.133-.149.258-.3.38-.464.021-.028.043-.056.064-.084q.172-.231.328-.475l.058-.093c.1-.169.205-.34.3-.516l.015-.031c.09-.172.173-.348.251-.527.013-.029.026-.058.039-.088q.114-.27.21-.549l.038-.112c.062-.189.12-.381.17-.576.006-.023.01-.045.016-.068q.07-.282.122-.572c0-.019.008-.036.012-.056a9.036,9.036,0,0,1,4.617,2.437A30.964,30.964,0,0,1,49.994,46.913Zm-1.977-7.975c.269,0,.542.013.818.038,0,.02-.007.039-.011.059-.032.176-.069.351-.113.523l-.007.03c-.046.177-.1.351-.156.523l-.032.095q-.086.248-.188.488l-.04.091c-.072.164-.149.325-.232.483l-.012.022c-.082.154-.17.3-.262.45l-.047.075c-.093.144-.191.285-.293.422l-.063.083c-.106.137-.215.271-.331.4-.013.015-.028.03-.042.045q-.168.184-.348.356l-.036.035a31.2,31.2,0,0,0-3.46-2.824A9.081,9.081,0,0,1,48.017,38.938ZM42.359,40.9A29.193,29.193,0,0,1,45.9,43.745c-.02.014-.038.03-.058.044-.067.047-.135.09-.2.135-.1.068-.206.135-.312.2-.073.043-.148.083-.223.123-.105.057-.211.112-.319.163-.078.037-.156.072-.235.106q-.164.071-.331.134c-.08.03-.161.06-.242.087-.115.039-.231.073-.348.106-.081.023-.162.046-.244.066-.123.03-.249.055-.374.08-.079.015-.157.032-.236.045-.14.023-.282.038-.424.053-.068.007-.134.017-.2.023-.211.017-.425.026-.641.026-.19,0-.38-.008-.57-.021-.06,0-.12-.011-.179-.016-.132-.012-.265-.026-.4-.044q-.1-.014-.2-.031c-.129-.021-.257-.045-.386-.071-.064-.013-.128-.026-.192-.041-.03-.007-.059-.016-.088-.023A9.046,9.046,0,0,1,42.359,40.9Zm-3.141,4.87c.044.011.088.019.132.029l.236.051q.2.042.409.076c.079.013.158.026.237.036.145.02.29.035.434.048.069.006.137.014.206.019.212.015.425.024.636.024h0c.222,0,.441-.009.659-.025l.057,0c.207-.016.412-.041.615-.071l.083-.012c.2-.032.392-.071.585-.116L43.6,45.8q.285-.07.563-.159l.092-.03q.278-.093.548-.2l.079-.034c.183-.079.364-.163.542-.255l.051-.028c.185-.1.368-.2.545-.314l0,0c.178-.113.351-.233.521-.36l.03-.021.056.055q.334.332.652.669l.117.125q.317.341.618.685l.024.027c.2.235.4.472.593.71l.108.134q.276.347.534.7l.036.05-.162.147q-.134.12-.269.237c-.108.094-.216.186-.324.277-.089.076-.179.151-.269.224-.109.089-.218.175-.327.261-.089.07-.178.141-.267.209-.111.084-.222.166-.333.247-.088.064-.176.13-.264.192-.114.081-.228.158-.343.236-.085.058-.17.117-.255.173-.12.079-.241.154-.361.229-.08.05-.159.1-.24.15-.132.08-.265.155-.4.231-.068.039-.136.08-.2.118q-.272.15-.545.287L44.7,50.8q-.3.151-.606.288c-.06.027-.12.05-.179.077-.143.062-.285.123-.428.18-.077.031-.154.058-.231.087-.126.048-.251.1-.377.139-.084.029-.169.056-.253.083-.119.039-.237.078-.356.113-.088.026-.176.049-.265.073-.115.032-.231.063-.346.092-.09.022-.18.042-.27.062-.114.026-.227.05-.341.072-.092.018-.184.034-.276.05-.112.02-.224.038-.337.054-.093.013-.186.025-.279.036-.06.008-.12.013-.18.02a9.091,9.091,0,0,1-.753-6.451Zm1.272,7.32q.3-.042.6-.1l.058-.012q.289-.055.576-.122c.074-.017.146-.038.219-.056.138-.035.277-.07.414-.109.084-.024.168-.05.252-.076.127-.039.253-.078.38-.12.088-.029.176-.061.264-.092.123-.044.246-.088.369-.135l.266-.1c.123-.049.245-.1.368-.154.088-.038.176-.076.263-.116.125-.057.25-.117.375-.177.084-.041.168-.081.252-.123.134-.067.267-.138.4-.21.075-.04.149-.078.224-.119.171-.1.342-.195.513-.3l.107-.062c.206-.124.412-.255.617-.39.063-.042.126-.086.189-.128.143-.1.285-.193.427-.293.079-.056.157-.114.235-.171.127-.093.253-.185.379-.281.084-.064.168-.13.251-.2.121-.095.242-.19.362-.288.085-.069.171-.14.256-.211q.179-.15.357-.3c.085-.073.169-.147.253-.222.044-.04.088-.077.132-.116l.014.021c.155.231.3.463.445.7l.094.156c.14.233.276.467.4.7.011.021.021.042.032.062.119.221.231.442.339.664.024.049.048.1.071.146q.165.348.311.7l.02.048-.029.019c-.047.029-.091.059-.138.089-.082.052-.163.105-.244.161-.05.035-.1.072-.149.108-.073.053-.146.107-.217.162-.05.04-.1.081-.15.121q-.1.083-.2.17c-.049.043-.1.086-.145.131q-.1.089-.191.181c-.046.045-.092.09-.137.137-.062.064-.123.13-.183.2-.042.046-.085.093-.126.14-.062.071-.122.145-.182.218-.036.045-.074.088-.109.134-.069.089-.136.18-.2.272-.024.032-.048.064-.071.1-.087.125-.171.253-.253.383-.022.035-.042.072-.063.107-.058.1-.116.193-.17.292-.029.051-.055.1-.082.157-.045.085-.089.171-.132.258-.028.058-.055.117-.082.175-.039.084-.076.168-.113.253-.026.062-.051.124-.076.187-.033.085-.066.17-.1.255q-.035.1-.068.194c-.029.087-.057.174-.084.262-.02.066-.04.131-.059.2-.026.091-.049.182-.072.274-.016.065-.033.13-.048.2,0,.021-.011.041-.015.062A9.108,9.108,0,0,1,40.49,53.091Zm13.016,2.155c0-.033-.01-.066-.014-.1-.025-.22-.055-.44-.091-.662,0-.028-.008-.056-.013-.083-.042-.244-.092-.488-.147-.733-.014-.063-.03-.127-.045-.191q-.075-.313-.165-.627c-.012-.043-.023-.086-.036-.13q-.109-.367-.24-.734c-.007-.022-.013-.043-.021-.064l.1-.047c.089-.04.178-.079.268-.115.052-.022.106-.042.159-.062q.134-.051.27-.1c.052-.017.105-.035.158-.051.1-.029.192-.055.289-.081.049-.013.1-.027.146-.038.115-.028.231-.051.348-.073l.093-.019c.146-.025.293-.045.44-.062.049-.005.1-.008.149-.012.1-.009.2-.017.3-.022l.183-.005c.084,0,.168,0,.252,0,.142,0,.285.008.428.017.046,0,.092,0,.138.008l.035,0A9.1,9.1,0,0,1,53.506,55.246Z" transform="translate(-38.017 -38.017)" fill="#202125"/>
</svg>
