<svg xmlns="http://www.w3.org/2000/svg" width="20" height="20" viewBox="0 0 20 20">
  <path id="ic_object_306_outline" d="M12.5,20H5a5,5,0,0,1-5-5V11H2V7.826A7.914,7.914,0,0,1,10,0a7.914,7.914,0,0,1,8,7.826V11h2v4a5,5,0,0,1-5,5ZM15,19a4,4,0,0,0,4-4V12H1v3a4,4,0,0,0,4,4H7.5V14.5a.5.5,0,0,1,1,0V19h1V14.5a.5.5,0,0,1,1,0V19h1V14.5a.5.5,0,0,1,1,0V19ZM3,7.826V11H17V7.826A6.922,6.922,0,0,0,10,1,6.922,6.922,0,0,0,3,7.826ZM13.5,6.5v-2a.5.5,0,1,1,1,0v2a.5.5,0,1,1-1,0Zm-8,0v-2a.5.5,0,1,1,1,0v2a.5.5,0,1,1-1,0Zm6-1v-2a.5.5,0,1,1,1,0v2a.5.5,0,1,1-1,0Zm-2,0v-2a.5.5,0,1,1,1,0v2a.5.5,0,1,1-1,0Zm-2,0v-2a.5.5,0,1,1,1,0v2a.5.5,0,1,1-1,0Z" fill="#202125"/>
</svg>
