<svg xmlns="http://www.w3.org/2000/svg" width="20" height="20" viewBox="0 0 20 20">
  <path id="ic_object_404_outline" d="M0,20V18.773H1.22L2.657,6.541A.593.593,0,0,1,3.268,6h2.98a.63.63,0,0,1,.61.613L7,13.217,11.813,9.5a.608.608,0,0,1,.646-.073.673.673,0,0,1,.323.542l.036,3.644L17.738,9.5a.6.6,0,0,1,.646-.073.593.593,0,0,1,.359.542v8.8H20V20Zm17.769-1a1.043,1.043,0,0,1-.025-.227V10.8L13.46,14.38a1,1,0,0,1-1.642-.757l-.028-2.842-4.18,3.227a1,1,0,0,1-.589.208L7.131,19ZM2.214,18.89c0,.037-.011.074-.019.11H6.13L6,13.277v-.011c0-.006,0-.012,0-.018v-.01L5.866,7H3.61ZM4.467,4.964a.649.649,0,0,1-.415-.881A4.005,4.005,0,0,1,8.985,1.7c2.072.477,2.787.367,3.691-1.322A.7.7,0,0,1,13.617.08a.662.662,0,0,1,.3.918c-1.43,2.68-3.238,2.5-5.271,2.02a2.632,2.632,0,0,0-3.276,1.5A.723.723,0,0,1,4.693,5,.484.484,0,0,1,4.467,4.964Z" transform="translate(0 0)" fill="#202125"/>
</svg>
