<svg xmlns="http://www.w3.org/2000/svg" width="20" height="20" viewBox="0 0 20 20">
  <path id="ic_object_3_outline" d="M10.5,1.5A8.976,8.976,0,0,0,4.153,16.847,8.976,8.976,0,1,0,16.847,4.153,8.93,8.93,0,0,0,10.5,1.5m2.123,14.174H12.1a2.194,2.194,0,0,1-2.217-2.217v-.522a2.193,2.193,0,0,1,2.174-2.217V9.593l-2.522.776v4.392a2.194,2.194,0,0,1-2.217,2.217H6.71a2.194,2.194,0,0,1-2.217-2.217v-.522a2.193,2.193,0,0,1,2.174-2.217V7.109A1.474,1.474,0,0,1,7.48,5.779l.075-.037,5.614-1.72h.15a1.446,1.446,0,0,1,1.522,1.435v8a2.194,2.194,0,0,1-2.217,2.217M10.5.5a10.058,10.058,0,0,1,10,10,10.058,10.058,0,0,1-10,10,10.058,10.058,0,0,1-10-10A10.058,10.058,0,0,1,10.5.5Zm2.123,14.174a1.189,1.189,0,0,0,1.217-1.217v-8a.452.452,0,0,0-.174-.348.523.523,0,0,0-.348-.087L7.928,6.674a.478.478,0,0,0-.261.435v5.913H6.71a1.189,1.189,0,0,0-1.217,1.217v.522A1.189,1.189,0,0,0,6.71,15.978h.609a1.189,1.189,0,0,0,1.217-1.217V9.63l4.522-1.391v3.478H12.1a1.189,1.189,0,0,0-1.217,1.217v.522A1.189,1.189,0,0,0,12.1,14.674Z" transform="translate(-0.5 -0.5)" fill="#202125"/>
</svg>
