<svg xmlns="http://www.w3.org/2000/svg" width="20" height="20" viewBox="0 0 20 20">
  <path id="ic_object_409_outline" d="M8,20a.5.5,0,1,1,0-1h4a.5.5,0,1,1,0,1ZM7,18.5a.5.5,0,1,1,0-1h6a.5.5,0,1,1,0,1ZM7.25,17a.5.5,0,0,1-.5-.5v-.4a2.878,2.878,0,0,0-.938-2.047L5.8,14.048A5.76,5.76,0,0,1,4.788,6.956,6.04,6.04,0,0,1,10,4a6.159,6.159,0,0,1,1.537.2A5.888,5.888,0,0,1,16,9.869a5.826,5.826,0,0,1-1.782,4.163l-.008.007a2.983,2.983,0,0,0-.959,2.111V16.5a.5.5,0,0,1-.5.5Zm-1.6-9.539a4.762,4.762,0,0,0,.841,5.86A3.886,3.886,0,0,1,7.747,16h4.507a3.994,3.994,0,0,1,1.272-2.69A4.82,4.82,0,0,0,15,9.868a4.887,4.887,0,0,0-3.713-4.7A5.134,5.134,0,0,0,10,5,5.035,5.035,0,0,0,5.651,7.461Zm4.187,6.262a.5.5,0,0,1-.311-.635L10.3,10.83H9a.5.5,0,0,1-.472-.666l1-2.831a.5.5,0,0,1,.943.334L9.707,9.83H11a.5.5,0,0,1,.473.662l-1,2.92A.5.5,0,0,1,10,13.75.51.51,0,0,1,9.838,13.723ZM17.5,10a.5.5,0,0,1,0-1h2a.5.5,0,0,1,0,1ZM.5,10a.5.5,0,1,1,0-1h2a.5.5,0,0,1,0,1ZM15.354,4.475a.5.5,0,0,1,0-.707l1.414-1.414a.5.5,0,0,1,.707.707L16.061,4.475a.5.5,0,0,1-.707,0Zm-11.086,0L2.854,3.061a.5.5,0,0,1,.707-.707L4.975,3.767a.5.5,0,0,1-.707.707ZM9.5,2.5V.5a.5.5,0,1,1,1,0v2a.5.5,0,0,1-1,0Z" fill="#202125"/>
</svg>
