<svg xmlns="http://www.w3.org/2000/svg" width="20" height="20" viewBox="0 0 20 20">
  <g id="ic_object_407_outline" transform="translate(-16.296 -15.705)">
    <path id="Ellipse_4" data-name="Ellipse 4" d="M2,1A1,1,0,1,0,3,2,1,1,0,0,0,2,1M2,0A2,2,0,1,1,0,2,2,2,0,0,1,2,0Z" transform="translate(24.287 23.717)" fill="#202125"/>
    <path id="Path_28" data-name="Path 28" d="M26.287,34.706a1.822,1.822,0,0,0,1.82-1.725h0a1.223,1.223,0,0,1,.75-1.062l.005,0a1.217,1.217,0,0,1,1.281.228,1.808,1.808,0,0,0,1.215.466h.022a1.812,1.812,0,0,0,1.339-3.033,1.222,1.222,0,0,1-.23-1.284l0,0a1.223,1.223,0,0,1,1.065-.75,1.8,1.8,0,0,0,1.191-.53L34.754,27a1.812,1.812,0,0,0-1.191-3.1,1.216,1.216,0,0,1-.846-2.034,1.826,1.826,0,0,0-1.344-3.05h-.01a1.793,1.793,0,0,0-1.215.471,1.217,1.217,0,0,1-2.041-.84,1.821,1.821,0,0,0-3.639,0,1.217,1.217,0,0,1-2.039.842,1.8,1.8,0,0,0-1.218-.474h0a1.829,1.829,0,0,0-1.348,3.05A1.216,1.216,0,0,1,19.02,23.9a1.821,1.821,0,0,0,0,3.637,1.217,1.217,0,0,1,.838,2.039A1.814,1.814,0,0,0,21.2,32.607h.024a1.806,1.806,0,0,0,1.21-.464,1.216,1.216,0,0,1,2.034.839,1.822,1.822,0,0,0,1.82,1.723m0-13.321a4.333,4.333,0,1,1-4.335,4.333,4.339,4.339,0,0,1,4.335-4.333m0,14.321a2.822,2.822,0,0,1-2.819-2.672.216.216,0,0,0-.363-.149,2.808,2.808,0,0,1-1.889.723h-.01A2.814,2.814,0,0,1,19.118,28.9a.217.217,0,0,0-.149-.365,2.821,2.821,0,0,1,0-5.635.216.216,0,0,0,.149-.363A2.829,2.829,0,0,1,21.2,17.814h.009a2.8,2.8,0,0,1,1.894.737.217.217,0,0,0,.364-.149,2.821,2.821,0,0,1,5.637,0,.217.217,0,0,0,.364.149,2.8,2.8,0,0,1,1.893-.737h.01a2.826,2.826,0,0,1,2.085,4.722.216.216,0,0,0,.149.363,2.823,2.823,0,0,1,0,5.638.217.217,0,0,0-.149.364,2.812,2.812,0,0,1-2.088,4.708h-.01a2.812,2.812,0,0,1-1.888-.726.217.217,0,0,0-.364.149A2.822,2.822,0,0,1,26.287,35.706Zm0-13.321a3.333,3.333,0,1,0,3.335,3.333A3.334,3.334,0,0,0,26.288,22.384Z" fill="#202125"/>
  </g>
</svg>
