<svg xmlns="http://www.w3.org/2000/svg" width="20" height="20" viewBox="0 0 20 20">
  <path id="ic_object_6_outline" d="M1.945,20A1.874,1.874,0,0,1,0,18.205V8.153A2.241,2.241,0,0,1,.886,6.39L8.375.545a2.661,2.661,0,0,1,3.226,0l7.511,5.846A2.242,2.242,0,0,1,20,8.154V18.205A1.874,1.874,0,0,1,18.056,20ZM8.99,1.334,1.5,7.178a1.243,1.243,0,0,0-.5.975V18.205A.881.881,0,0,0,1.945,19H18.056A.88.88,0,0,0,19,18.205V8.154a1.245,1.245,0,0,0-.5-.976L10.985,1.333a1.659,1.659,0,0,0-2,0ZM7.5,12.4c0-.083,0-.167.011-.248a2.56,2.56,0,0,0,4.976,0,2.186,2.186,0,0,1,.013.243A2.553,2.553,0,0,1,10,15,2.553,2.553,0,0,1,7.5,12.4Zm.724-.512A1.776,1.776,0,1,1,10,13.734,1.811,1.811,0,0,1,8.223,11.886Zm-.713.262h0v0Zm2.5-2.509A1.159,1.159,0,0,1,8.89,8.462c.013-.318.388-.531.424-.847.014-.129-.13-.254-.091-.377.053-.172.392-.344.392-.344a.6.6,0,0,0-.134.251c-.009.156.18.269.18.424,0,.224-.3.391-.272.613.017.123.115.278.24.282s.228-.156.257-.282c.043-.193-.173-.369-.165-.565.01-.271.274-.484.285-.754.01-.206-.224-.4-.165-.6.042-.136.318-.266.318-.266a1.2,1.2,0,0,0-.077.3c-.011.406.358.724.378,1.129.013.263-.262.5-.212.755.025.121.112.285.228.283s.19-.168.211-.283c.03-.179-.18-.341-.166-.519s.21-.293.241-.472a1.3,1.3,0,0,0-.044-.392s.3.278.329.472c.022.147-.135.275-.135.421,0,.274.265.5.257.771a1.309,1.309,0,0,1-.347.848,1.165,1.165,0,0,1-.808.329Z" fill="#202125"/>
</svg>
