<svg xmlns="http://www.w3.org/2000/svg" width="20" height="20" viewBox="0 0 20 20">
  <path id="ic_object_305_outline" d="M98.421,111.643h-.584v-6.171a6.205,6.205,0,0,0-6.11-6.283H89.442v12.454H88.289V92.59H86a6.206,6.206,0,0,0-6.11,6.283v12.77H79.31a.474.474,0,0,0,0,.947H98.421a.474.474,0,0,0,0-.947Zm-17.606,0V98.873A5.269,5.269,0,0,1,86,93.537h1.363v.947H85.986a4.339,4.339,0,0,0-4.248,4.389v12.77Zm1.842,0V98.873a3.4,3.4,0,0,1,3.331-3.442h1.381v.947H85.982a2.469,2.469,0,0,0-2.4,2.5v12.769Zm1.842,0V98.873a1.533,1.533,0,0,1,1.488-1.548h1.379v14.318Zm5.865,0v-7.72h1.381a1.531,1.531,0,0,1,1.49,1.548v6.171Zm3.789,0v-6.171a2.469,2.469,0,0,0-2.4-2.5H90.364v-.946h1.381a3.4,3.4,0,0,1,3.331,3.442v6.171Zm1.842,0v-6.171a4.339,4.339,0,0,0-4.248-4.39H90.364v-.946h1.363a5.269,5.269,0,0,1,5.189,5.336v6.171Z" transform="translate(-78.865 -92.59)" fill="#202125"/>
</svg>
