<svg xmlns="http://www.w3.org/2000/svg" width="20" height="20" viewBox="0 0 20 20">
  <g id="ic_object_701_outline" transform="translate(-48.001 -48)">
    <path id="Path_138" data-name="Path 138" d="M178.365,182.654a.5.5,0,0,1-.35-.143l-2.365-2.317a.5.5,0,1,1,.7-.714l1.986,1.945,4.979-5.752a.5.5,0,1,1,.756.654l-5.327,6.154a.5.5,0,0,1-.357.172Z" transform="translate(-121.845 -121.846)" fill="#202125"/>
    <path id="Path_139" data-name="Path 139" d="M58,49.1a34.07,34.07,0,0,1-8.993,2.838,16.815,16.815,0,0,0,1.09,6.6,15.043,15.043,0,0,0,3.082,4.842A16.411,16.411,0,0,0,58,66.908a16.411,16.411,0,0,0,4.821-3.53A15.043,15.043,0,0,0,65.9,58.537a16.815,16.815,0,0,0,1.09-6.6A34.07,34.07,0,0,1,58,49.1M58,48a34.341,34.341,0,0,0,9.957,3.095A16.738,16.738,0,0,1,58,68a16.738,16.738,0,0,1-9.957-16.905A34.341,34.341,0,0,0,58,48Z" transform="translate(0)" fill="#202125"/>
  </g>
</svg>
