<svg xmlns="http://www.w3.org/2000/svg" width="20" height="20" viewBox="0 0 20 20">
  <path id="ic_object_702_outline" d="M.75,20A.75.75,0,0,1,0,19.25c0-.414.336-1.75.75-1.75H1.6L2.956,9.009a1.523,1.523,0,0,1,.725-1.092,19.972,19.972,0,0,0,3.839-3l1.7-1.7A.75.75,0,0,1,10.262,3.2l1.756,1.64A20.826,20.826,0,0,0,16.253,7.9a1.557,1.557,0,0,1,.8,1.148L18.4,17.5h.85c.414,0,.75,1.336.75,1.75a.75.75,0,0,1-.75.75Zm.289-1H18.961a3.938,3.938,0,0,0-.143-.5H18.4a1,1,0,0,1-.987-.842L16.062,9.2l0-.016a.562.562,0,0,0-.285-.412,21.841,21.841,0,0,1-4.439-3.2L9.756,4.1,8.227,5.626A20.881,20.881,0,0,1,4.195,8.774a.525.525,0,0,0-.249.377l0,.016L2.587,17.658A1,1,0,0,1,1.6,18.5H1.182A3.982,3.982,0,0,0,1.039,19Zm5.246-1.5a1,1,0,0,1-.776-1.631,13.532,13.532,0,0,0,1.519-2.234A41.251,41.251,0,0,0,8.839,9.3c.069-.191.138-.377.2-.556a1,1,0,0,1,1.885.011c.058.167.12.341.184.519a30.561,30.561,0,0,0,1.859,4.353,17.055,17.055,0,0,0,1.557,2.246,1,1,0,0,1-.78,1.625ZM9.777,9.646A43.313,43.313,0,0,1,7.916,14.1a14.791,14.791,0,0,1-1.631,2.4h7.46A18.4,18.4,0,0,1,12.1,14.117a32.362,32.362,0,0,1-1.928-4.505c-.065-.181-.127-.357-.186-.527Q9.883,9.356,9.777,9.646ZM15,2.5A2.5,2.5,0,1,1,17.5,5,2.5,2.5,0,0,1,15,2.5Zm.75,0A1.75,1.75,0,1,0,17.5.75,1.751,1.751,0,0,0,15.75,2.5Z" fill="#202125"/>
</svg>
