<svg xmlns="http://www.w3.org/2000/svg" width="20" height="20" viewBox="0 0 20 20">
  <path id="ic_object_303_outline" d="M106.949,100.006h-.225V89.266a.021.021,0,0,0-.006-.017c0-.006,0-.012-.006-.012s0-.006-.006-.012-.006-.012-.006-.017a.02.02,0,0,0-.006-.012c0-.006,0-.006-.006-.012s-.006-.012-.006-.018a.02.02,0,0,0-.006-.012l-.006-.006c-.006-.006-.006-.012-.012-.017s-.006-.006-.006-.012l-.006-.006c-.006-.006-.006-.012-.012-.017s-.006-.006-.006-.012l-.006-.006c-.006-.006-.012-.012-.012-.017s-.006-.006-.006-.012c-3.325-3.271-6.746-4.8-10.16-4.559a11.436,11.436,0,0,0-6.052,2.443A12.9,12.9,0,0,0,88.159,89.1h0c0,.006-.006.006-.006.012s-.006.012-.012.017h0l-.006.006-.006.006c-.006.006-.006.012-.012.017h0c0,.006-.006.006-.006.012a.006.006,0,0,1-.006.006c0,.006-.006.012-.006.017a.02.02,0,0,1-.006.012v.006h0c0,.006-.006.012-.006.018s-.006.012-.006.023a.021.021,0,0,1-.006.017.035.035,0,0,1-.006.023v.041h0v10.67h-.225a.444.444,0,0,0-.445.437V102.4a.444.444,0,0,0,.445.437h5.08v1.189a.444.444,0,0,0,.445.437h8.062a.444.444,0,0,0,.445-.437v-1.189h5.08a.444.444,0,0,0,.445-.437v-1.959A.449.449,0,0,0,106.949,100.006ZM105.2,98.63l.634-.682v1.364ZM104,91.167l-.634.682v-1.37Zm1.838,4.419L105.2,94.9l.634-.682Zm-.107-2.554L104.6,94.251l-1.126-1.219,1.126-1.219Zm-.528-1.866.634-.682v1.37Zm-1.832,3.049L104,94.9l-.634.682Zm0,3.731.634.682-.634.682Zm.107-1.184,1.126-1.219,1.126,1.219L104.6,97.983ZM104.6,90.52l-.676-.729h1.352Zm-2.122.122H92.308v-.851h10.166v.851Zm-12.893.525-.634.682v-1.37Zm1.832,4.419-.634-.682.634-.682Zm0-3.731-.634-.682.634-.682Zm-.107,1.178-1.126,1.219L89.06,93.033l1.126-1.219ZM89.587,94.9l-.634.682V94.21Zm.6.653,1.126,1.219-1.126,1.219L89.06,96.77Zm1.233,2.4v1.364l-.634-.682ZM90.186,90.52,89.51,89.8h1.346Zm-.6,8.11-.634.682V97.948Zm.6.653.676.729H89.51Zm2.122-7.766h1.737v.461H93.82a.437.437,0,1,0,0,.875h1.346a.437.437,0,1,0,0-.875H94.94v-.461h2.009v.461h-.225a.437.437,0,1,0,0,.875H98.07a.437.437,0,1,0,0-.875h-.225v-.461h2.009v.461h-.225a.437.437,0,1,0,0,.875h1.346a.437.437,0,1,0,0-.875h-.225v-.461h1.737v8.489H92.308ZM104.6,99.283l.676.723h-1.346ZM96.511,85.36c2.875-.2,5.785.991,8.66,3.562H89.481A11.311,11.311,0,0,1,96.511,85.36ZM100.98,103.6H93.808v-1.259h7.172Zm5.525-1.632h-4.635v-.07a.444.444,0,0,0-.445-.437H93.363a.444.444,0,0,0-.445.437v.07H88.283V100.88h18.228v1.084Z" transform="translate(-87.4 -84.466)" fill="#202125"/>
</svg>
