<svg width="12" height="12" viewBox="0 0 12 12" fill="none" xmlns="http://www.w3.org/2000/svg">
<path fill-rule="evenodd" clip-rule="evenodd" d="M11.8536 0.146447C12.0488 0.341709 12.0488 0.658291 11.8536 0.853553L0.853553 11.8536C0.658291 12.0488 0.341709 12.0488 0.146447 11.8536C-0.0488155 11.6583 -0.0488155 11.3417 0.146447 11.1464L11.1464 0.146447C11.3417 -0.0488155 11.6583 -0.0488155 11.8536 0.146447Z" fill="#71717A"/>
<path fill-rule="evenodd" clip-rule="evenodd" d="M0.146447 0.146447C0.341709 -0.0488155 0.658291 -0.0488155 0.853553 0.146447L11.8536 11.1464C12.0488 11.3417 12.0488 11.6583 11.8536 11.8536C11.6583 12.0488 11.3417 12.0488 11.1464 11.8536L0.146447 0.853553C-0.0488155 0.658291 -0.0488155 0.341709 0.146447 0.146447Z" fill="#71717A"/>
</svg>
