<svg width="12" height="12" viewBox="0 0 12 12" fill="none" xmlns="http://www.w3.org/2000/svg">
<path fill-rule="evenodd" clip-rule="evenodd" d="M5.99999 3.67578C5.04469 3.67578 4.27026 4.45021 4.27026 5.40551C4.27026 6.36081 5.04469 7.13524 5.99999 7.13524C6.9553 7.13524 7.72972 6.36081 7.72972 5.40551C7.72972 4.45021 6.9553 3.67578 5.99999 3.67578ZM3.27026 5.40551C3.27026 3.89792 4.49241 2.67578 5.99999 2.67578C7.50758 2.67578 8.72972 3.89792 8.72972 5.40551C8.72972 6.9131 7.50758 8.13524 5.99999 8.13524C4.49241 8.13524 3.27026 6.9131 3.27026 5.40551Z" fill="#71717A"/>
<path fill-rule="evenodd" clip-rule="evenodd" d="M6.00002 8.13477C5.3271 8.13477 4.66583 8.32897 4.08933 8.69792C3.51263 9.06701 3.04243 9.59725 2.73335 10.232C2.61246 10.4803 2.31319 10.5836 2.06492 10.4627C1.81664 10.3418 1.71337 10.0425 1.83426 9.79426C2.22201 8.99792 2.8151 8.32617 3.55028 7.85565C4.28567 7.385 5.13364 7.13477 6.00002 7.13477C6.8664 7.13477 7.71437 7.385 8.44976 7.85565C9.18494 8.32617 9.77803 8.99792 10.1658 9.79426C10.2867 10.0425 10.1834 10.3418 9.93512 10.4627C9.68685 10.5836 9.38758 10.4803 9.2667 10.232C8.95761 9.59725 8.48741 9.06701 7.91071 8.69792C7.33422 8.32897 6.67295 8.13477 6.00002 8.13477Z" fill="#71717A"/>
<path fill-rule="evenodd" clip-rule="evenodd" d="M8.32434 1.68945C8.32434 1.41331 8.5482 1.18945 8.82434 1.18945H11.5C11.7762 1.18945 12 1.41331 12 1.68945C12 1.9656 11.7762 2.18945 11.5 2.18945H8.82434C8.5482 2.18945 8.32434 1.9656 8.32434 1.68945Z" fill="#71717A"/>
<path fill-rule="evenodd" clip-rule="evenodd" d="M10.3108 0C10.5869 0 10.8108 0.223858 10.8108 0.5V3.17568C10.8108 3.45182 10.5869 3.67568 10.3108 3.67568C10.0346 3.67568 9.81079 3.45182 9.81079 3.17568V0.5C9.81079 0.223858 10.0346 0 10.3108 0Z" fill="#71717A"/>
<path fill-rule="evenodd" clip-rule="evenodd" d="M6.78516 1.06233C6.52589 1.02034 6.26363 0.999494 6.00098 1.00001L6 1.00001C5.01109 1.00001 4.04439 1.29325 3.22215 1.84266C2.3999 2.39207 1.75904 3.17296 1.3806 4.08659C1.00217 5.00022 0.90315 6.00555 1.09608 6.97545C1.289 7.94536 1.76521 8.83627 2.46447 9.53553C3.16373 10.2348 4.05464 10.711 5.02455 10.9039C5.99445 11.0969 6.99978 10.9978 7.91341 10.6194C8.82704 10.241 9.60793 9.6001 10.1573 8.77785C10.7067 7.95561 11 6.98891 11 6L11 5.99902C11.0005 5.73637 10.9797 5.47411 10.9377 5.21484C10.8935 4.94225 11.0787 4.68548 11.3513 4.64133C11.6239 4.59718 11.8807 4.78237 11.9248 5.05496C11.9755 5.36774 12.0006 5.68413 12 6.00099L11.5 6H12C12 6.00033 12 6.00066 12 6.00099C11.9998 7.18733 11.6479 8.347 10.9888 9.33342C10.3295 10.3201 9.39245 11.0892 8.29609 11.5433C7.19974 11.9974 5.99334 12.1162 4.82946 11.8847C3.66557 11.6532 2.59647 11.0818 1.75736 10.2426C0.918246 9.40353 0.346802 8.33443 0.115291 7.17055C-0.11622 6.00666 0.00259972 4.80026 0.456725 3.70391C0.91085 2.60755 1.67988 1.67048 2.66658 1.01119C3.65314 0.351995 4.81299 0.000107294 5.99951 1.03176e-05C6.3162 -0.000584716 6.63242 0.0245586 6.94504 0.0751921C7.21763 0.119342 7.40282 0.37611 7.35867 0.648701C7.31452 0.921291 7.05775 1.10648 6.78516 1.06233Z" fill="#71717A"/>
</svg>
