<svg width="12" height="12" viewBox="0 0 12 12" fill="none" xmlns="http://www.w3.org/2000/svg">
<path d="M5.66582 9.87708C5.70379 9.91823 5.74902 9.95033 5.7987 9.97141C5.84838 9.99249 5.90145 10.0021 5.95463 9.99962C6.00596 10.0004 6.05693 9.99002 6.10459 9.96899C6.15226 9.94796 6.19567 9.91672 6.23234 9.87708L9.87583 6.12728C9.91513 6.08504 9.94636 6.03454 9.96769 5.97877C9.98901 5.923 10 5.86308 10 5.80254C10 5.74201 9.98901 5.68209 9.96769 5.62632C9.94636 5.57055 9.91513 5.52005 9.87583 5.47781C9.79702 5.39322 9.69141 5.34589 9.58146 5.34589C9.47151 5.34589 9.3659 5.39322 9.28709 5.47781L6.37674 8.48009V0.41681C6.3712 0.306194 6.32813 0.20193 6.2561 0.124737C6.18407 0.0475437 6.08834 0.003074 5.98795 0.000165637C5.93305 -0.00147187 5.87841 0.00904606 5.82726 0.0310976C5.7761 0.0531491 5.72947 0.0862872 5.69012 0.128554C5.65077 0.170821 5.6195 0.221359 5.59816 0.277183C5.57681 0.333007 5.56582 0.392985 5.56584 0.453572V8.57813L2.65549 5.44104C2.57203 5.37995 2.4716 5.35359 2.37215 5.36667C2.27269 5.37975 2.18069 5.43142 2.11259 5.51244C2.04449 5.59346 2.00472 5.69856 2.00039 5.80895C1.99607 5.91933 2.02746 6.02782 2.08897 6.11503L5.66582 9.87708Z" fill="currentColor"/>
<rect y="11" width="12" height="1" rx="0.5" fill="currentColor"/>
</svg>
