<svg width="12" height="8" viewBox="0 0 12 8" fill="none" xmlns="http://www.w3.org/2000/svg">
<path fill-rule="evenodd" clip-rule="evenodd" d="M1.07763 4C1.85831 5.72817 3.73808 7 6 7C8.26192 7 10.1417 5.72817 10.9224 4C10.1417 2.27183 8.26192 1 6 1C3.73808 1 1.85831 2.27183 1.07763 4ZM12 4C11.1702 6.32178 8.79969 8 6 8C3.20031 8 0.829846 6.32178 0 4C0.829846 1.67822 3.20031 0 6 0C8.79969 0 11.1702 1.67822 12 4Z" fill="currentColor"/>
<path fill-rule="evenodd" clip-rule="evenodd" d="M6 5C6.55228 5 7 4.55228 7 4C7 3.44772 6.55228 3 6 3C5.44772 3 5 3.44772 5 4C5 4.55228 5.44772 5 6 5ZM8 4C8 5.10457 7.10457 6 6 6C4.89543 6 4 5.10457 4 4C4 2.89543 4.89543 2 6 2C7.10457 2 8 2.89543 8 4Z" fill="currentColor"/>
</svg>
