<svg width="12" height="12" viewBox="0 0 12 12" fill="none" xmlns="http://www.w3.org/2000/svg">
<path fill-rule="evenodd" clip-rule="evenodd" d="M9 3H3V9C3 10.1046 3.89543 11 5 11H7C8.10457 11 9 10.1046 9 9V3ZM2 2V9C2 10.6569 3.34315 12 5 12H7C8.65685 12 10 10.6569 10 9V2H2Z" fill="currentColor"/>
<path d="M0 2.5C0 2.22386 0.223858 2 0.5 2H11.5C11.7761 2 12 2.22386 12 2.5C12 2.77614 11.7761 3 11.5 3H0.5C0.223858 3 0 2.77614 0 2.5Z" fill="currentColor"/>
<rect x="2" width="8" height="1" rx="0.5" fill="currentColor"/>
</svg>
