<svg width="70" height="58" viewBox="0 0 70 58" fill="none" xmlns="http://www.w3.org/2000/svg">
<path d="M2 56H68" stroke="currentColor" stroke-width="3" stroke-linecap="round" stroke-linejoin="round"/>
<path d="M39.7148 55.9985V4.34776C39.7148 3.72509 39.4665 3.12793 39.0245 2.68764C38.5824 2.24735 37.9829 2 37.3577 2H9.07199C8.44683 2 7.84729 2.24735 7.40524 2.68764C6.96319 3.12793 6.71484 3.72509 6.71484 4.34776V55.9985" stroke="currentColor" stroke-width="3" stroke-linecap="round" stroke-linejoin="round"/>
<path d="M63.2863 55.9957V23.1271C63.2863 22.5044 63.0379 21.9072 62.5959 21.4669C62.1538 21.0266 61.5543 20.7793 60.9291 20.7793H39.7148" stroke="currentColor" stroke-width="3" stroke-linecap="round" stroke-linejoin="round"/>
<path d="M16.1426 13.7363H25.5711" stroke="currentColor" stroke-width="3" stroke-linecap="round" stroke-linejoin="round"/>
<path d="M20.8584 32.5234H30.287" stroke="currentColor" stroke-width="3" stroke-linecap="round" stroke-linejoin="round"/>
<path d="M16.1426 44.2598H25.5711" stroke="currentColor" stroke-width="3" stroke-linecap="round" stroke-linejoin="round"/>
<path d="M49.1416 44.2598H53.8559" stroke="currentColor" stroke-width="3" stroke-linecap="round" stroke-linejoin="round"/>
<path d="M49.1416 32.5234H53.8559" stroke="currentColor" stroke-width="3" stroke-linecap="round" stroke-linejoin="round"/>
</svg>
