<svg width="32" height="32" viewBox="0 0 32 32" fill="none" xmlns="http://www.w3.org/2000/svg">
<path fill-rule="evenodd" clip-rule="evenodd" d="M0 31C0 30.4477 0.447715 30 1 30H31C31.5523 30 32 30.4477 32 31C32 31.5523 31.5523 32 31 32H1C0.447715 32 0 31.5523 0 31Z" fill="#7F39EB"/>
<path fill-rule="evenodd" clip-rule="evenodd" d="M7.16667 2C7.12246 2 7.08007 2.01756 7.04882 2.04882C7.01756 2.08007 7 2.12246 7 2.16667V30C7 30.5523 6.55228 31 6 31C5.44772 31 5 30.5523 5 30V2.16667C5 1.59203 5.22827 1.04093 5.6346 0.634602C6.04093 0.228274 6.59203 0 7.16667 0H25.8333C26.408 0 26.9591 0.228273 27.3654 0.634602C27.7717 1.04093 28 1.59203 28 2.16667V30C28 30.5523 27.5523 31 27 31C26.4477 31 26 30.5523 26 30V2.16667C26 2.12246 25.9824 2.08007 25.9512 2.04882C25.9199 2.01756 25.8775 2 25.8333 2H7.16667Z" fill="#7F39EB"/>
<path d="M20.5 17C21.3284 17 22 16.3284 22 15.5C22 14.6716 21.3284 14 20.5 14C19.6716 14 19 14.6716 19 15.5C19 16.3284 19.6716 17 20.5 17Z" fill="#7F39EB"/>
</svg>
