<svg width="38" height="38" viewBox="0 0 38 38" fill="none" xmlns="http://www.w3.org/2000/svg">
<path d="M12.4546 12.4551H25.5455" stroke="currentColor" stroke-width="2" stroke-linecap="round" stroke-linejoin="round"/>
<path d="M12.4546 19H25.5455" stroke="currentColor" stroke-width="2" stroke-linecap="round" stroke-linejoin="round"/>
<path d="M12.4546 25.5449H19" stroke="currentColor" stroke-width="2" stroke-linecap="round" stroke-linejoin="round"/>
<path d="M24.8704 37H2.63636C2.20237 37 1.78616 36.8276 1.47928 36.5207C1.1724 36.2138 1 35.7976 1 35.3636V2.63636C1 2.20237 1.1724 1.78616 1.47928 1.47928C1.78616 1.1724 2.20237 1 2.63636 1H35.3636C35.7976 1 36.2138 1.1724 36.5207 1.47928C36.8276 1.78616 37 2.20237 37 2.63636V24.8704C37.0007 25.0829 36.9596 25.2935 36.8788 25.49C36.7981 25.6866 36.6794 25.8653 36.5295 26.0159L26.0159 36.5295C25.8653 36.6794 25.6866 36.7981 25.49 36.8788C25.2935 36.9596 25.0829 37.0007 24.8704 37Z" stroke="currentColor" stroke-width="2" stroke-linecap="round" stroke-linejoin="round"/>
<path d="M36.8568 25.5449H25.5454V36.8563" stroke="currentColor" stroke-width="2" stroke-linecap="round" stroke-linejoin="round"/>
</svg>
