<svg width="32" height="32" viewBox="0 0 32 32" fill="none" xmlns="http://www.w3.org/2000/svg">
<path fill-rule="evenodd" clip-rule="evenodd" d="M15.4086 0.193595C15.7606 -0.0645317 16.2394 -0.0645317 16.5914 0.193595L31.5914 11.1936C31.9401 11.4493 32.0849 11.9002 31.9504 12.3111C31.8158 12.7221 31.4324 13 31 13H1.00001C0.567596 13 0.184169 12.7221 0.0496364 12.3111C-0.0848963 11.9002 0.0599447 11.4493 0.408642 11.1936L15.4086 0.193595ZM4.05465 11H27.9454L16 2.24007L4.05465 11Z" fill="#3F61E8"/>
<path fill-rule="evenodd" clip-rule="evenodd" d="M6 25V13H8V25H6Z" fill="#3F61E8"/>
<path fill-rule="evenodd" clip-rule="evenodd" d="M12 25V13H14V25H12Z" fill="#3F61E8"/>
<path fill-rule="evenodd" clip-rule="evenodd" d="M18 25V13H20V25H18Z" fill="#3F61E8"/>
<path fill-rule="evenodd" clip-rule="evenodd" d="M24 25V13H26V25H24Z" fill="#3F61E8"/>
<path fill-rule="evenodd" clip-rule="evenodd" d="M2 26C2 25.4477 2.44772 25 3 25H29C29.5523 25 30 25.4477 30 26C30 26.5523 29.5523 27 29 27H3C2.44772 27 2 26.5523 2 26Z" fill="#3F61E8"/>
<path fill-rule="evenodd" clip-rule="evenodd" d="M0 31C0 30.4477 0.447715 30 1 30H31C31.5523 30 32 30.4477 32 31C32 31.5523 31.5523 32 31 32H1C0.447715 32 0 31.5523 0 31Z" fill="#3F61E8"/>
</svg>
