<svg width="20" height="20" viewBox="0 0 20 20" fill="none" xmlns="http://www.w3.org/2000/svg">
<path fill-rule="evenodd" clip-rule="evenodd" d="M10 19C14.9706 19 19 14.9706 19 10C19 5.02944 14.9706 1 10 1C5.02944 1 1 5.02944 1 10C1 14.9706 5.02944 19 10 19ZM20 10C20 15.5228 15.5228 20 10 20C4.47715 20 0 15.5228 0 10C0 4.47715 4.47715 0 10 0C15.5228 0 20 4.47715 20 10Z" fill="currentColor"/>
<path d="M10 15C10.5523 15 11 14.5523 11 14C11 13.4477 10.5523 13 10 13C9.44772 13 9 13.4477 9 14C9 14.5523 9.44772 15 10 15Z" fill="currentColor"/>
<path fill-rule="evenodd" clip-rule="evenodd" d="M8.65722 4.7726C9.29803 4.50164 10.0038 4.43057 10.6848 4.56885C11.3657 4.70711 11.9897 5.04812 12.4785 5.5471C12.9672 6.04596 13.2989 6.68032 13.4331 7.36941C13.5674 8.05846 13.4986 8.77278 13.2349 9.42246C12.9713 10.0722 12.5241 10.6293 11.9485 11.0219C11.512 11.3197 11.0167 11.5126 10.5 11.5885V12C10.5 12.2761 10.2761 12.5 10 12.5C9.72386 12.5 9.5 12.2761 9.5 12V11.125C9.5 10.9924 9.55268 10.8652 9.64645 10.7714C9.74021 10.6777 9.86739 10.625 10 10.625C10.4921 10.625 10.9741 10.4761 11.385 10.1958C11.796 9.91547 12.1179 9.5159 12.3083 9.04648C12.4988 8.57696 12.5488 8.05975 12.4516 7.56067C12.3543 7.06163 12.1146 6.60461 11.7641 6.24688C11.4138 5.88926 10.9687 5.64692 10.4858 5.54885C10.0029 5.45079 9.50222 5.50102 9.04668 5.69364C8.59102 5.88632 8.19989 6.21332 7.92394 6.6349C7.64793 7.05659 7.5 7.55342 7.5 8.0625C7.5 8.33864 7.27614 8.5625 7 8.5625C6.72386 8.5625 6.5 8.33864 6.5 8.0625C6.5 7.36017 6.70397 6.6728 7.08724 6.08724C7.47059 5.50157 8.01653 5.04351 8.65722 4.7726Z" fill="currentColor"/>
</svg>
