<svg width="32" height="32" viewBox="0 0 32 32" fill="none" xmlns="http://www.w3.org/2000/svg">
<circle cx="16" cy="16" r="16" fill="#1E3A8A"/>
<path fill-rule="evenodd" clip-rule="evenodd" d="M16 9.5C14.067 9.5 12.5 11.067 12.5 13C12.5 14.933 14.067 16.5 16 16.5C17.933 16.5 19.5 14.933 19.5 13C19.5 11.067 17.933 9.5 16 9.5ZM11.5 13C11.5 10.5147 13.5147 8.5 16 8.5C18.4853 8.5 20.5 10.5147 20.5 13C20.5 15.4853 18.4853 17.5 16 17.5C13.5147 17.5 11.5 15.4853 11.5 13Z" fill="white"/>
<path fill-rule="evenodd" clip-rule="evenodd" d="M16 19.5C14.6707 19.5 13.3642 19.8565 12.2119 20.5343C11.0595 21.2122 10.1015 22.1878 9.43499 23.3641C9.29886 23.6044 8.99373 23.6888 8.75348 23.5527C8.51322 23.4165 8.42881 23.1114 8.56494 22.8712C9.31712 21.5436 10.3997 20.4401 11.7049 19.6724C13.0101 18.9046 14.4915 18.5 16 18.5C17.5085 18.5 18.9898 18.9046 20.295 19.6724C21.6002 20.4401 22.6828 21.5437 23.435 22.8712C23.5711 23.1114 23.4867 23.4165 23.2465 23.5527C23.0062 23.6888 22.7011 23.6044 22.5649 23.3641C21.8984 22.1878 20.9404 21.2122 19.788 20.5343C18.6357 19.8565 17.3293 19.5 16 19.5Z" fill="white"/>
</svg>
