<svg width="16" height="18" viewBox="0 0 16 18" fill="none" xmlns="http://www.w3.org/2000/svg">
<path fill-rule="evenodd" clip-rule="evenodd" d="M2.39556 6.74868L2.39556 6.75006L2.39556 7.50005C2.39556 10.6716 1.80322 12.7169 1.16432 14H14.8357C14.1968 12.7169 13.6044 10.6716 13.6044 7.50005V6.83443C13.6044 3.62611 11.0967 1.02429 8.03934 1.00008C7.30188 0.996033 6.57046 1.14063 5.88699 1.42605C5.20317 1.71162 4.58029 2.13277 4.05472 2.66621C3.5291 3.19969 3.11125 3.83491 2.82613 4.53579C2.541 5.2367 2.39451 5.98882 2.39556 6.74868ZM0.733279 15H15.2667C15.3957 14.9995 15.5222 14.9645 15.6337 14.8985C15.7453 14.8325 15.8378 14.7378 15.9021 14.6239C15.9663 14.5099 16.0001 14.3808 16 14.2493C15.9999 14.1179 15.9659 13.9888 15.9014 13.875C15.2943 12.8063 14.6044 10.8563 14.6044 7.50005V6.83443C14.6044 3.11258 11.6886 0.0282292 8.04599 0.000104358C7.17361 -0.00484305 6.30889 0.166167 5.50163 0.503284C4.69438 0.840401 3.96054 1.33696 3.34238 1.96437C2.72422 2.59178 2.23396 3.33763 1.89984 4.15898C1.56572 4.98032 1.39434 5.86092 1.39556 6.75006V7.50005C1.39556 10.8563 0.705684 12.8063 0.0985906 13.875C0.0341133 13.9888 0.000114806 14.1179 2.87342e-07 14.2493C-0.000113654 14.3808 0.0336607 14.5099 0.0979401 14.6239C0.162219 14.7378 0.254747 14.8325 0.366252 14.8985C0.477758 14.9645 0.604327 14.9995 0.733279 15Z" fill="#1E3A8A"/>
<rect x="4" y="17" width="8" height="1" rx="0.5" fill="#1E3A8A"/>
</svg>
