<svg width="20" height="20" viewBox="0 0 20 20" fill="none" xmlns="http://www.w3.org/2000/svg">
<path fill-rule="evenodd" clip-rule="evenodd" d="M8.20474 14.765C7.92033 14.4638 7.9339 13.9891 8.23503 13.7047L12.1577 10L8.23503 6.29526C7.9339 6.01085 7.92033 5.53617 8.20474 5.23503C8.48915 4.93389 8.96383 4.92033 9.26497 5.20474L13.765 9.45474C13.915 9.59642 14 9.79365 14 10C14 10.2063 13.915 10.4036 13.765 10.5453L9.26497 14.7953C8.96383 15.0797 8.48915 15.0661 8.20474 14.765Z" fill="white"/>
<path fill-rule="evenodd" clip-rule="evenodd" d="M0 10C0 9.58579 0.335786 9.25 0.75 9.25H12.75C13.1642 9.25 13.5 9.58579 13.5 10C13.5 10.4142 13.1642 10.75 12.75 10.75H0.75C0.335786 10.75 0 10.4142 0 10Z" fill="white"/>
<path fill-rule="evenodd" clip-rule="evenodd" d="M11.5 19.25C11.5 18.8358 11.8358 18.5 12.25 18.5H18.375C18.4176 18.5 18.4527 18.4835 18.474 18.4629C18.4944 18.4434 18.5 18.4234 18.5 18.4091V1.59091C18.5 1.57663 18.4944 1.55661 18.474 1.53706C18.4527 1.51653 18.4176 1.5 18.375 1.5H12.25C11.8358 1.5 11.5 1.16422 11.5 0.75C11.5 0.335787 11.8358 0 12.25 0H18.375C18.7966 0 19.2066 0.160664 19.5134 0.455536C19.8213 0.751385 20 1.15914 20 1.59091V18.4091C20 18.8409 19.8213 19.2486 19.5134 19.5445C19.2066 19.8393 18.7966 20 18.375 20H12.25C11.8358 20 11.5 19.6642 11.5 19.25Z" fill="white"/>
</svg>
