<svg width="58" height="58" viewBox="0 0 58 58" fill="none" xmlns="http://www.w3.org/2000/svg">
<path d="M18.7361 55.9997H4.39088C3.75679 55.9997 3.14866 55.7478 2.70028 55.2995C2.25191 54.8511 2.00001 54.243 2.00001 53.6089V40.2499C1.99893 39.9394 2.05908 39.6318 2.17703 39.3446C2.29498 39.0575 2.46841 38.7964 2.68739 38.5763L38.5504 2.71326C38.7729 2.48736 39.0381 2.30796 39.3305 2.18551C39.623 2.06306 39.9369 2 40.2539 2C40.571 2 40.8848 2.06306 41.1773 2.18551C41.4698 2.30796 41.7349 2.48736 41.9574 2.71326L55.2865 16.0424C55.5124 16.2648 55.6918 16.53 55.8142 16.8225C55.9367 17.1149 55.9998 17.4288 55.9998 17.7458C55.9998 18.0629 55.9367 18.3768 55.8142 18.6692C55.6918 18.9617 55.5124 19.2269 55.2865 19.4493L18.7361 55.9997Z" stroke="currentColor" stroke-width="3" stroke-linecap="round" stroke-linejoin="round"/>
<path d="M30.6904 10.5723L47.4265 27.3083" stroke="currentColor" stroke-width="3" stroke-linecap="round" stroke-linejoin="round"/>
<path d="M54.5994 56H18.7363" stroke="currentColor" stroke-width="3" stroke-linecap="round" stroke-linejoin="round"/>
</svg>
