<svg width="58" height="58" viewBox="0 0 58 58" fill="none" xmlns="http://www.w3.org/2000/svg">
<path d="M15.9961 22.0078L35.9922 42.004" stroke="currentColor" stroke-width="3" stroke-linecap="round" stroke-linejoin="round"/>
<path d="M23.4469 41.8516L15.6484 49.6501" stroke="currentColor" stroke-width="3" stroke-linecap="round" stroke-linejoin="round"/>
<path d="M16.4469 34.8535L8.64844 42.652" stroke="currentColor" stroke-width="3" stroke-linecap="round" stroke-linejoin="round"/>
<path d="M32.0192 19.0571L45.7416 3.76007C46.8685 2.63312 48.397 2 49.9908 2C51.5845 2 53.113 2.63312 54.2399 3.76007C55.3669 4.88702 56 6.4155 56 8.00925C56 9.603 55.3669 11.1315 54.2399 12.2584L38.9429 25.9808C38.7413 26.1625 38.5789 26.3832 38.4654 26.6297C38.3519 26.8762 38.2897 27.1432 38.2827 27.4144C38.2757 27.6857 38.324 27.9555 38.4246 28.2075C38.5252 28.4595 38.676 28.6884 38.8679 28.8802L41.1675 31.1798C41.9093 31.9327 42.3252 32.9472 42.3252 34.0042C42.3252 35.0612 41.9093 36.0758 41.1675 36.8287L21.9961 56L2 36.0039L21.1713 16.8325C21.9242 16.0907 22.9388 15.6748 23.9958 15.6748C25.0528 15.6748 26.0673 16.0907 26.8202 16.8325L29.1198 19.1321C29.3116 19.324 29.5405 19.4748 29.7925 19.5754C30.0445 19.676 30.3143 19.7243 30.5856 19.7173C30.8568 19.7103 31.1238 19.6481 31.3703 19.5346C31.6168 19.4211 31.8375 19.2587 32.0192 19.0571Z" stroke="currentColor" stroke-width="3" stroke-linecap="round" stroke-linejoin="round"/>
</svg>
