<svg width="20" height="20" viewBox="0 0 20 20" fill="none" xmlns="http://www.w3.org/2000/svg">
<path fill-rule="evenodd" clip-rule="evenodd" d="M10 11.5C12.7614 11.5 15 9.26142 15 6.5C15 3.73858 12.7614 1.5 10 1.5C7.23858 1.5 5 3.73858 5 6.5C5 9.26142 7.23858 11.5 10 11.5ZM16.5 6.5C16.5 10.0899 13.5899 13 10 13C6.41015 13 3.5 10.0899 3.5 6.5C3.5 2.91015 6.41015 0 10 0C13.5899 0 16.5 2.91015 16.5 6.5Z" fill="currentColor"/>
<path fill-rule="evenodd" clip-rule="evenodd" d="M10 13C8.05549 13 6.16611 13.6323 4.62973 14.7974C3.09331 15.9625 1.99725 17.5943 1.51467 19.4357C1.4095 19.837 0.990566 20.0792 0.578965 19.9767C0.167363 19.8741 -0.0810442 19.4656 0.024131 19.0643C0.591109 16.9009 1.87904 14.9831 3.68522 13.6133C5.49143 12.2436 7.7131 11.5 10 11.5C12.2869 11.5 14.5086 12.2436 16.3148 13.6133C18.121 14.9831 19.4089 16.9009 19.9759 19.0643C20.081 19.4656 19.8326 19.8741 19.421 19.9767C19.0094 20.0792 18.5905 19.837 18.4853 19.4357C18.0028 17.5943 16.9067 15.9625 15.3703 14.7974C13.8339 13.6323 11.9445 13 10 13Z" fill="currentColor"/>
</svg>
