<svg width="36" height="35" viewBox="0 0 36 35" fill="none" xmlns="http://www.w3.org/2000/svg">
<path d="M18.4209 1.31274L22.2246 10.8646C22.3903 11.3029 22.6791 11.684 23.0562 11.9621C23.4359 12.2422 23.8886 12.4059 24.3593 12.4339C24.3605 12.434 24.3616 12.4341 24.3628 12.4341L34.5668 13.0895C34.7675 13.1025 34.9122 13.2233 34.9744 13.4235C35.038 13.6285 34.9856 13.8284 34.8243 13.962L34.8227 13.9633L27.0035 20.467C27.0028 20.4676 27.002 20.4682 27.0013 20.4688C26.6385 20.7686 26.3674 21.1648 26.2196 21.6119C26.0715 22.06 26.0534 22.5407 26.1674 22.9987L26.1674 22.9987L26.1688 23.0044L28.6953 32.9097C28.7524 33.1344 28.6687 33.3212 28.5167 33.436C28.3688 33.5476 28.1929 33.5672 28.0173 33.4571C28.017 33.4569 28.0167 33.4567 28.0163 33.4565L19.297 27.9358C19.2968 27.9357 19.2966 27.9356 19.2964 27.9355C18.9087 27.6897 18.459 27.5594 18 27.5594C17.5413 27.5594 17.0918 27.6896 16.7042 27.9351C16.7038 27.9353 16.7034 27.9356 16.703 27.9358L8.58787 33.0606L8.58601 33.0617C8.0808 33.3823 7.30287 32.9349 7.49456 32.1869L7.49497 32.1852L9.83135 23.0038L9.83263 22.9987C9.94658 22.5407 9.92845 22.06 9.78038 21.6119C9.6326 21.1647 9.36147 20.7685 8.99854 20.4686C8.99787 20.4681 8.99719 20.4675 8.99652 20.467L1.17731 13.9633L1.17569 13.962C1.01435 13.8284 0.962021 13.6285 1.02562 13.4235C1.08779 13.2233 1.23248 13.1025 1.43317 13.0895L11.6407 12.4339C12.1114 12.4059 12.5641 12.2422 12.9438 11.9621C13.3209 11.684 13.6097 11.3029 13.7754 10.8646L17.5791 1.31274C17.5827 1.3037 17.5862 1.2946 17.5896 1.28545C17.6198 1.20243 17.6752 1.13023 17.7486 1.07898C17.822 1.0277 17.9098 1 18 1C18.0902 1 18.178 1.0277 18.2514 1.07898C18.3248 1.13023 18.3802 1.20244 18.4104 1.28545C18.4138 1.2946 18.4173 1.3037 18.4209 1.31274Z" stroke="currentColor" stroke-width="2" stroke-linecap="round" stroke-linejoin="round"/>
</svg>
