<svg width="18" height="14" viewBox="0 0 18 14" fill="none" xmlns="http://www.w3.org/2000/svg">
<path fill-rule="evenodd" clip-rule="evenodd" d="M0.5 11C0.5 10.7239 0.723858 10.5 1 10.5H10C10.2761 10.5 10.5 10.7239 10.5 11C10.5 11.2761 10.2761 11.5 10 11.5H1C0.723858 11.5 0.5 11.2761 0.5 11Z" fill="currentColor"/>
<path fill-rule="evenodd" clip-rule="evenodd" d="M13.5 11C13.5 10.7239 13.7239 10.5 14 10.5H17C17.2761 10.5 17.5 10.7239 17.5 11C17.5 11.2761 17.2761 11.5 17 11.5H14C13.7239 11.5 13.5 11.2761 13.5 11Z" fill="currentColor"/>
<path fill-rule="evenodd" clip-rule="evenodd" d="M12 9.5C11.1716 9.5 10.5 10.1716 10.5 11C10.5 11.8284 11.1716 12.5 12 12.5C12.8284 12.5 13.5 11.8284 13.5 11C13.5 10.1716 12.8284 9.5 12 9.5ZM9.5 11C9.5 9.61929 10.6193 8.5 12 8.5C13.3807 8.5 14.5 9.61929 14.5 11C14.5 12.3807 13.3807 13.5 12 13.5C10.6193 13.5 9.5 12.3807 9.5 11Z" fill="currentColor"/>
<path fill-rule="evenodd" clip-rule="evenodd" d="M0.5 3C0.5 2.72386 0.723858 2.5 1 2.5H4C4.27614 2.5 4.5 2.72386 4.5 3C4.5 3.27614 4.27614 3.5 4 3.5H1C0.723858 3.5 0.5 3.27614 0.5 3Z" fill="currentColor"/>
<path fill-rule="evenodd" clip-rule="evenodd" d="M7.5 3C7.5 2.72386 7.72386 2.5 8 2.5H17C17.2761 2.5 17.5 2.72386 17.5 3C17.5 3.27614 17.2761 3.5 17 3.5H8C7.72386 3.5 7.5 3.27614 7.5 3Z" fill="currentColor"/>
<path fill-rule="evenodd" clip-rule="evenodd" d="M6 1.5C5.17157 1.5 4.5 2.17157 4.5 3C4.5 3.82843 5.17157 4.5 6 4.5C6.82843 4.5 7.5 3.82843 7.5 3C7.5 2.17157 6.82843 1.5 6 1.5ZM3.5 3C3.5 1.61929 4.61929 0.5 6 0.5C7.38071 0.5 8.5 1.61929 8.5 3C8.5 4.38071 7.38071 5.5 6 5.5C4.61929 5.5 3.5 4.38071 3.5 3Z" fill="currentColor"/>
</svg>
