<svg xmlns="http://www.w3.org/2000/svg" xmlns:xlink="http://www.w3.org/1999/xlink" width="1024" height="1024" viewBox="0 0 1024 1024">
  <defs>
    <clipPath id="clip-logo_med_white">
      <rect width="1024" height="1024"/>
    </clipPath>
  </defs>
  <g id="logo_med_white" clip-path="url(#clip-logo_med_white)">
    <path id="Subtraction_6" data-name="Subtraction 6" d="M-984-2484c-23.048,0-45.422-.572-66.5-1.7-21.293-1.14-41.931-2.883-61.34-5.18-19.577-2.317-38.519-5.271-56.3-8.78-17.905-3.533-35.192-7.739-51.38-12.5a466.727,466.727,0,0,1-46.58-16.34,387.079,387.079,0,0,1-41.9-20.3,337.59,337.59,0,0,1-37.34-24.38,313.9,313.9,0,0,1-32.9-28.58,313.878,313.878,0,0,1-28.58-32.9A337.55,337.55,0,0,1-1431.2-2672a387.078,387.078,0,0,1-20.3-41.9,466.756,466.756,0,0,1-16.34-46.58c-4.761-16.189-8.967-33.476-12.5-51.38-3.509-17.782-6.463-36.724-8.78-56.3-2.3-19.411-4.041-40.049-5.18-61.34-1.128-21.076-1.7-43.45-1.7-66.5s.572-45.424,1.7-66.5c1.139-21.291,2.882-41.928,5.18-61.34,2.317-19.576,5.271-38.518,8.78-56.3,3.533-17.9,7.739-35.192,12.5-51.38a466.741,466.741,0,0,1,16.34-46.58,387.052,387.052,0,0,1,20.3-41.9,337.556,337.556,0,0,1,24.38-37.34,313.878,313.878,0,0,1,28.58-32.9,313.884,313.884,0,0,1,32.9-28.58A337.625,337.625,0,0,1-1308-3443.2a387.087,387.087,0,0,1,41.9-20.3,466.715,466.715,0,0,1,46.58-16.34c16.188-4.761,33.474-8.967,51.38-12.5,17.785-3.509,36.727-6.463,56.3-8.78,19.408-2.3,40.046-4.04,61.34-5.18,21.077-1.128,43.451-1.7,66.5-1.7s45.423.572,66.5,1.7c21.294,1.14,41.932,2.883,61.34,5.18,19.573,2.317,38.515,5.271,56.3,8.78,17.905,3.533,35.192,7.739,51.38,12.5a466.715,466.715,0,0,1,46.58,16.34,387.092,387.092,0,0,1,41.9,20.3,337.626,337.626,0,0,1,37.34,24.38,313.889,313.889,0,0,1,32.9,28.58,313.893,313.893,0,0,1,28.58,32.9A337.574,337.574,0,0,1-536.8-3320a387.074,387.074,0,0,1,20.3,41.9,466.708,466.708,0,0,1,16.34,46.58c4.761,16.188,8.967,33.475,12.5,51.38,3.509,17.782,6.463,36.724,8.78,56.3,2.3,19.411,4.04,40.049,5.18,61.34,1.128,21.077,1.7,43.451,1.7,66.5s-.572,45.423-1.7,66.5c-1.14,21.292-2.882,41.93-5.18,61.34-2.317,19.576-5.271,38.518-8.78,56.3-3.533,17.9-7.739,35.191-12.5,51.38a466.752,466.752,0,0,1-16.34,46.58,387.089,387.089,0,0,1-20.3,41.9,337.577,337.577,0,0,1-24.38,37.34,313.893,313.893,0,0,1-28.58,32.9,313.9,313.9,0,0,1-32.9,28.58A337.591,337.591,0,0,1-660-2548.8a387.079,387.079,0,0,1-41.9,20.3,466.716,466.716,0,0,1-46.58,16.34c-16.188,4.761-33.475,8.967-51.38,12.5-17.781,3.509-36.724,6.463-56.3,8.78-19.409,2.3-40.047,4.041-61.34,5.18C-938.578-2484.572-960.951-2484-984-2484Zm154.1-568a76.28,76.28,0,0,0-14.662,1.35,57.731,57.731,0,0,0-12.787,4.05,56.355,56.355,0,0,0-10.875,6.488,53.421,53.421,0,0,0-8.925,8.662,64.456,64.456,0,0,0-6.975,10.538,72.005,72.005,0,0,0-5.025,12.112,107.6,107.6,0,0,0-4.65,27.9c-.2,3.585-.3,6.865-.3,9.75s.1,6.166.3,9.751a107.1,107.1,0,0,0,4.8,28.65,75.5,75.5,0,0,0,5.1,12.188A64.482,64.482,0,0,0-877-2910.1a50.926,50.926,0,0,0,8.812,8.513,54.789,54.789,0,0,0,10.838,6.338,58.935,58.935,0,0,0,12.787,3.937A78.375,78.375,0,0,0-829.9-2890a79.016,79.016,0,0,0,15.938-1.5,50.418,50.418,0,0,0,13.013-4.5,63.841,63.841,0,0,0,10.537-6.825,55.958,55.958,0,0,0,8.512-8.475v11.1a7.252,7.252,0,0,0,1.95,5.1,6.843,6.843,0,0,0,5.25,2.1H-751a6.97,6.97,0,0,0,5.1-2.1,6.97,6.97,0,0,0,2.1-5.1v-198.6a6.975,6.975,0,0,0-2.1-5.1,6.973,6.973,0,0,0-5.1-2.1h-25.5a6.847,6.847,0,0,0-5.25,2.1,7.255,7.255,0,0,0-1.95,5.1v66.6a55.44,55.44,0,0,0-8.437-7.912,63.488,63.488,0,0,0-10.312-6.337,51.155,51.155,0,0,0-12.487-4.163A75.9,75.9,0,0,0-829.9-3052Zm-163.8,0a90.763,90.763,0,0,0-20.475,2.213,69.579,69.579,0,0,0-17.625,6.637,63.893,63.893,0,0,0-14.437,10.725,65.4,65.4,0,0,0-10.913,14.475,77.14,77.14,0,0,0-7.162,17.962,104.733,104.733,0,0,0-3.187,21.188,70.563,70.563,0,0,0-.3,7.35c0,3.086.1,5.66.3,7.65a115.143,115.143,0,0,0,1.875,16.687,85.988,85.988,0,0,0,4.125,14.662,69.071,69.071,0,0,0,6.375,12.638,62.351,62.351,0,0,0,8.625,10.613,62.505,62.505,0,0,0,10.613,8.4,65.091,65.091,0,0,0,12.338,6,77.069,77.069,0,0,0,14.062,3.6A99.925,99.925,0,0,0-993.7-2890a110.633,110.633,0,0,0,15.862-1.087,81.633,81.633,0,0,0,13.988-3.262A75.362,75.362,0,0,0-942.1-2905.3a58.7,58.7,0,0,0,13.351-13.5c3.085-4.578,4.75-8.514,4.95-11.7a5.065,5.065,0,0,0-1.651-4.5,7.044,7.044,0,0,0-4.95-1.8h-25.8a12.572,12.572,0,0,0-4.95.75c-1.1.5-2.559,1.961-4.351,4.35a38.666,38.666,0,0,1-5.1,5.4,34.7,34.7,0,0,1-9.3,5.85,34.666,34.666,0,0,1-14.1,2.55,32.26,32.26,0,0,1-9.488-1.35,26.985,26.985,0,0,1-8.062-4.05,32.736,32.736,0,0,1-6.45-6.262,35.565,35.565,0,0,1-4.65-7.987,53.284,53.284,0,0,1-4.05-19.35v-2.4h99.6a7.345,7.345,0,0,0,5.4-2.1,6.976,6.976,0,0,0,2.1-5.1v-6.3a110.732,110.732,0,0,0-2.1-22.012,85.069,85.069,0,0,0-6.3-19.237,66.051,66.051,0,0,0-10.425-15.9,63.9,63.9,0,0,0-14.475-12,65.484,65.484,0,0,0-18.45-7.538A93.835,93.835,0,0,0-993.7-3052Zm295.2,114.6a6.974,6.974,0,0,0-5.1,2.1,7.341,7.341,0,0,0-2.1,5.4v29.7a6.973,6.973,0,0,0,2.1,5.1,6.975,6.975,0,0,0,5.1,2.1h30a6.974,6.974,0,0,0,5.1-2.1,6.97,6.97,0,0,0,2.1-5.1v-29.7a7.338,7.338,0,0,0-2.1-5.4,6.973,6.973,0,0,0-5.1-2.1Zm-445.5-92.7h0v129.9a7.249,7.249,0,0,0,1.95,5.1,6.844,6.844,0,0,0,5.25,2.1h25.2a7.341,7.341,0,0,0,5.4-2.1,6.972,6.972,0,0,0,2.1-5.1v-195.3a7.34,7.34,0,0,0-2.1-5.4,7.342,7.342,0,0,0-5.4-2.1H-1135c-2.787,0-4.906.757-6.3,2.25a17.384,17.384,0,0,0-2.7,3.451l-58.5,108-57.9-108a17.444,17.444,0,0,0-2.7-3.451c-1.394-1.493-3.514-2.25-6.3-2.25h-23.7a7.342,7.342,0,0,0-5.4,2.1,7.339,7.339,0,0,0-2.1,5.4v195.3a6.971,6.971,0,0,0,2.1,5.1,7.341,7.341,0,0,0,5.4,2.1h25.2a6.974,6.974,0,0,0,5.1-2.1,6.972,6.972,0,0,0,2.1-5.1v-129.9l42,80.1a17.112,17.112,0,0,0,3.75,4.65,9.6,9.6,0,0,0,6.449,1.95h12.3a9.725,9.725,0,0,0,6.3-1.95,15.93,15.93,0,0,0,3.9-4.65Zm325.2,108a42.36,42.36,0,0,1-11.287-1.387,25.7,25.7,0,0,1-8.662-4.162,30.954,30.954,0,0,1-6.338-6.413,32.966,32.966,0,0,1-4.313-8.137,68.57,68.57,0,0,1-3.9-19.8c-.2-5.972-.2-12.028,0-18a68.573,68.573,0,0,1,3.9-19.8,32.968,32.968,0,0,1,4.313-8.137,30.953,30.953,0,0,1,6.338-6.413,25.7,25.7,0,0,1,8.662-4.162A42.36,42.36,0,0,1-818.8-3019.9a40.922,40.922,0,0,1,10.875,1.35,27.024,27.024,0,0,1,8.625,4.05,36,36,0,0,1,6.6,6.112,35.264,35.264,0,0,1,4.8,7.537,43.551,43.551,0,0,1,4.2,17.251c.2,3.578.3,7.464.3,11.55s-.1,7.972-.3,11.551a52.523,52.523,0,0,1-3.9,18.149,35.052,35.052,0,0,1-4.575,8.063,34.279,34.279,0,0,1-6.525,6.488,26.227,26.227,0,0,1-8.775,4.275A41.71,41.71,0,0,1-818.8-2922.1Zm-141.6-62.4h-66.3v-.9a52.572,52.572,0,0,1,3.75-20.55,32.517,32.517,0,0,1,4.688-7.875,29.219,29.219,0,0,1,6.563-5.925,28.812,28.812,0,0,1,8.25-3.712,36.833,36.833,0,0,1,9.75-1.238,36.831,36.831,0,0,1,9.75,1.238,28.805,28.805,0,0,1,8.25,3.712,29.97,29.97,0,0,1,6.6,5.925,33.644,33.644,0,0,1,4.8,7.875,44.155,44.155,0,0,1,2.925,9.562,59.211,59.211,0,0,1,.975,10.988v.9Z" transform="translate(1496 3508)" fill="#fff"/>
  </g>
</svg>
