<svg xmlns="http://www.w3.org/2000/svg" xmlns:xlink="http://www.w3.org/1999/xlink" width="1024" height="1024" viewBox="0 0 1024 1024">
  <defs>
    <linearGradient id="linear-gradient" x1="1" y1="1" x2="0" gradientUnits="objectBoundingBox">
      <stop offset="0" stop-color="#2563eb"/>
      <stop offset="1" stop-color="#1e3a8a"/>
    </linearGradient>
    <clipPath id="clip-App_icon_android">
      <rect width="1024" height="1024"/>
    </clipPath>
  </defs>
  <g id="App_icon_android" clip-path="url(#clip-App_icon_android)">
    <path id="squircle" d="M0,512C0,143.36,143.36,0,512,0s512,143.36,512,512-143.36,512-512,512S0,880.64,0,512" fill="url(#linear-gradient)"/>
    <path id="Path_19490" data-name="Path 19490" d="M20.6,0A4.873,4.873,0,0,1,17-1.4a4.629,4.629,0,0,1-1.4-3.4V-135a4.873,4.873,0,0,1,1.4-3.6,4.873,4.873,0,0,1,3.6-1.4H36.4a5.475,5.475,0,0,1,4.2,1.5,11.548,11.548,0,0,1,1.8,2.3L81-64.2l39-72a11.547,11.547,0,0,1,1.8-2.3A5.475,5.475,0,0,1,126-140h15.6a4.873,4.873,0,0,1,3.6,1.4,4.873,4.873,0,0,1,1.4,3.6V-4.8a4.629,4.629,0,0,1-1.4,3.4A4.873,4.873,0,0,1,141.6,0H124.8a4.545,4.545,0,0,1-3.5-1.4A4.815,4.815,0,0,1,120-4.8V-91.4L92-38a10.578,10.578,0,0,1-2.6,3.1,6.453,6.453,0,0,1-4.2,1.3H77a6.374,6.374,0,0,1-4.3-1.3A11.366,11.366,0,0,1,70.2-38l-28-53.4V-4.8a4.629,4.629,0,0,1-1.4,3.4A4.629,4.629,0,0,1,37.4,0ZM220.2,2Q198,2,185-10.8T171-47.2q-.2-2-.2-5.1a46.768,46.768,0,0,1,.2-4.9q.8-15.2,6.9-26.1a42.248,42.248,0,0,1,16.9-16.8q10.8-5.9,25.4-5.9,16.2,0,27.2,6.7A42.418,42.418,0,0,1,264-80.7q5.6,11.9,5.6,27.5V-49a4.629,4.629,0,0,1-1.4,3.4,4.873,4.873,0,0,1-3.6,1.4H198.2v1.6a35.36,35.36,0,0,0,2.7,12.9,22.335,22.335,0,0,0,7.4,9.5A19.216,19.216,0,0,0,220-16.6a23.007,23.007,0,0,0,9.4-1.7,23.01,23.01,0,0,0,6.2-3.9,25.6,25.6,0,0,0,3.4-3.6,9.531,9.531,0,0,1,2.9-2.9,8.342,8.342,0,0,1,3.3-.5h17.2a4.676,4.676,0,0,1,3.3,1.2,3.363,3.363,0,0,1,1.1,3q-.2,3.2-3.3,7.8a38.951,38.951,0,0,1-8.9,9A50,50,0,0,1,240.1-.9,62.842,62.842,0,0,1,220.2,2Zm-22-63h44.2v-.6a33.709,33.709,0,0,0-2.6-13.7,20.737,20.737,0,0,0-7.6-9.2,21.291,21.291,0,0,0-12-3.3,21.291,21.291,0,0,0-12,3.3,20.116,20.116,0,0,0-7.5,9.2,34.888,34.888,0,0,0-2.5,13.7ZM329.4,2a44.809,44.809,0,0,1-18.3-3.5A34.69,34.69,0,0,1,298-11.4a46.031,46.031,0,0,1-8-15.1,71.074,71.074,0,0,1-3.2-19.1q-.2-3.6-.2-6.5t.2-6.5a71.409,71.409,0,0,1,3.1-18.6,44.9,44.9,0,0,1,8-15.1,36.054,36.054,0,0,1,13.2-10.1,43.728,43.728,0,0,1,18.3-3.6q10.8,0,18.3,3.7a39.08,39.08,0,0,1,12.5,9.5v-44.4a4.815,4.815,0,0,1,1.3-3.4A4.545,4.545,0,0,1,365-142h17a4.629,4.629,0,0,1,3.4,1.4,4.629,4.629,0,0,1,1.4,3.4V-4.8a4.629,4.629,0,0,1-1.4,3.4A4.629,4.629,0,0,1,382,0H366.2a4.545,4.545,0,0,1-3.5-1.4,4.815,4.815,0,0,1-1.3-3.4v-7.4A39.357,39.357,0,0,1,348.7-2Q341,2,329.4,2Zm7.4-21.4q8.4,0,13.4-3.8a22.694,22.694,0,0,0,7.4-9.7A34.867,34.867,0,0,0,360.2-45q.2-3.6.2-7.7t-.2-7.7a28.894,28.894,0,0,0-2.8-11.5,23.352,23.352,0,0,0-7.6-9.1q-5-3.6-13-3.6-8.4,0-13.3,3.7a20.865,20.865,0,0,0-7.1,9.7A45.5,45.5,0,0,0,313.8-58q-.2,6,0,12a45.5,45.5,0,0,0,2.6,13.2,20.865,20.865,0,0,0,7.1,9.7Q328.4-19.4,336.8-19.4ZM417,0a4.629,4.629,0,0,1-3.4-1.4,4.629,4.629,0,0,1-1.4-3.4V-24.6a4.873,4.873,0,0,1,1.4-3.6,4.629,4.629,0,0,1,3.4-1.4h20a4.629,4.629,0,0,1,3.4,1.4,4.873,4.873,0,0,1,1.4,3.6V-4.8a4.629,4.629,0,0,1-1.4,3.4A4.629,4.629,0,0,1,437,0Z" transform="translate(285 603)" fill="#fff"/>
  </g>
</svg>
