<svg xmlns="http://www.w3.org/2000/svg" xmlns:xlink="http://www.w3.org/1999/xlink" width="1024" height="1024" viewBox="0 0 1024 1024">
  <defs>
    <linearGradient id="linear-gradient" x1="1" y1="1" x2="0" gradientUnits="objectBoundingBox">
      <stop offset="0" stop-color="#2563eb"/>
      <stop offset="1" stop-color="#1e3a8a"/>
    </linearGradient>
    <clipPath id="clip-logo_med">
      <rect width="1024" height="1024"/>
    </clipPath>
  </defs>
  <g id="logo_med" clip-path="url(#clip-logo_med)">
    <path id="squircle" d="M0,512C0,143.36,143.36,0,512,0s512,143.36,512,512-143.36,512-512,512S0,880.64,0,512" fill="url(#linear-gradient)"/>
    <path id="Path_19491" data-name="Path 19491" d="M30.9,0a7.31,7.31,0,0,1-5.4-2.1,6.943,6.943,0,0,1-2.1-5.1V-202.5a7.31,7.31,0,0,1,2.1-5.4,7.31,7.31,0,0,1,5.4-2.1H54.6q4.2,0,6.3,2.25a17.322,17.322,0,0,1,2.7,3.45l57.9,108,58.5-108a17.321,17.321,0,0,1,2.7-3.45Q184.8-210,189-210h23.4a7.31,7.31,0,0,1,5.4,2.1,7.31,7.31,0,0,1,2.1,5.4V-7.2a6.943,6.943,0,0,1-2.1,5.1A7.31,7.31,0,0,1,212.4,0H187.2a6.818,6.818,0,0,1-5.25-2.1A7.223,7.223,0,0,1,180-7.2V-137.1L138-57a15.866,15.866,0,0,1-3.9,4.65,9.68,9.68,0,0,1-6.3,1.95H115.5a9.561,9.561,0,0,1-6.45-1.95A17.049,17.049,0,0,1,105.3-57l-42-80.1V-7.2a6.943,6.943,0,0,1-2.1,5.1A6.943,6.943,0,0,1,56.1,0ZM330.3,3Q297,3,277.5-16.2t-21-54.6q-.3-3-.3-7.65a70.156,70.156,0,0,1,.3-7.35q1.2-22.8,10.35-39.15a63.372,63.372,0,0,1,25.35-25.2Q308.4-159,330.3-159q24.3,0,40.8,10.05a63.627,63.627,0,0,1,24.9,27.9q8.4,17.85,8.4,41.25v6.3a6.943,6.943,0,0,1-2.1,5.1,7.31,7.31,0,0,1-5.4,2.1H297.3v2.4a53.04,53.04,0,0,0,4.05,19.35,33.5,33.5,0,0,0,11.1,14.25A28.824,28.824,0,0,0,330-24.9a34.511,34.511,0,0,0,14.1-2.55,34.516,34.516,0,0,0,9.3-5.85,38.391,38.391,0,0,0,5.1-5.4q2.7-3.6,4.35-4.35a12.513,12.513,0,0,1,4.95-.75h25.8a7.013,7.013,0,0,1,4.95,1.8,5.045,5.045,0,0,1,1.65,4.5q-.3,4.8-4.95,11.7A58.426,58.426,0,0,1,381.9-12.3,75,75,0,0,1,360.15-1.35,94.263,94.263,0,0,1,330.3,3Zm-33-94.5h66.3v-.9a50.564,50.564,0,0,0-3.9-20.55,31.106,31.106,0,0,0-11.4-13.8q-7.5-4.95-18-4.95t-18,4.95a30.174,30.174,0,0,0-11.25,13.8A52.332,52.332,0,0,0,297.3-92.4ZM494.1,3q-15.6,0-27.45-5.25A52.035,52.035,0,0,1,447-17.1a69.045,69.045,0,0,1-12-22.65,106.61,106.61,0,0,1-4.8-28.65q-.3-5.4-.3-9.75t.3-9.75a107.112,107.112,0,0,1,4.65-27.9,67.35,67.35,0,0,1,12-22.65,54.08,54.08,0,0,1,19.8-15.15Q478.5-159,494.1-159q16.2,0,27.45,5.55A58.619,58.619,0,0,1,540.3-139.2v-66.6a7.223,7.223,0,0,1,1.95-5.1,6.818,6.818,0,0,1,5.25-2.1H573a6.944,6.944,0,0,1,5.1,2.1,6.944,6.944,0,0,1,2.1,5.1V-7.2a6.944,6.944,0,0,1-2.1,5.1A6.944,6.944,0,0,1,573,0H549.3a6.818,6.818,0,0,1-5.25-2.1,7.223,7.223,0,0,1-1.95-5.1V-18.3A59.036,59.036,0,0,1,523.05-3Q511.5,3,494.1,3Zm11.1-32.1q12.6,0,20.1-5.7a34.041,34.041,0,0,0,11.1-14.55,52.3,52.3,0,0,0,3.9-18.15q.3-5.4.3-11.55t-.3-11.55a43.341,43.341,0,0,0-4.2-17.25,35.027,35.027,0,0,0-11.4-13.65q-7.5-5.4-19.5-5.4-12.6,0-19.95,5.55A31.3,31.3,0,0,0,474.6-106.8,68.254,68.254,0,0,0,470.7-87q-.3,9,0,18a68.254,68.254,0,0,0,3.9,19.8,31.3,31.3,0,0,0,10.65,14.55Q492.6-29.1,505.2-29.1ZM625.5,0a6.944,6.944,0,0,1-5.1-2.1,6.944,6.944,0,0,1-2.1-5.1V-36.9a7.31,7.31,0,0,1,2.1-5.4,6.944,6.944,0,0,1,5.1-2.1h30a6.943,6.943,0,0,1,5.1,2.1,7.31,7.31,0,0,1,2.1,5.4V-7.2a6.943,6.943,0,0,1-2.1,5.1A6.943,6.943,0,0,1,655.5,0Z" transform="translate(168.6 617)" fill="#fff"/>
  </g>
</svg>
