<svg xmlns="http://www.w3.org/2000/svg" width="36" height="36" viewBox="0 0 36 36">
  <g id="gift_card" transform="translate(-408 -536)">
    <g id="Ellipse_1_copy_11" data-name="Ellipse 1 copy 11" transform="translate(408.03 536.008)" fill="none">
      <path d="M30.7,5.264a18,18,0,1,1-25.456,0A18,18,0,0,1,30.7,5.264Z" stroke="none"/>
      <path d="M 17.9697093963623 1.992023468017578 C 13.69593048095703 1.992023468017578 9.677986145019531 3.656299591064453 6.655986785888672 6.678298950195313 C 3.634040832519531 9.70024299621582 1.969764709472656 13.71818733215332 1.969764709472656 17.99196624755859 C 1.969764709472656 22.26580047607422 3.634040832519531 26.28374481201172 6.655986785888672 29.30574417114258 C 9.677986145019531 32.32774353027344 13.69598770141602 33.99201965332031 17.9697093963623 33.99201965332031 C 22.24337577819824 33.99201965332031 26.26137542724609 32.32774353027344 29.28343200683594 29.30574417114258 C 32.3054313659668 26.28374481201172 33.96970748901367 22.26580047607422 33.96970748901367 17.99196624755859 C 33.96970748901367 13.71818733215332 32.3054313659668 9.70024299621582 29.28343200683594 6.678298950195313 C 26.26143264770508 3.656299591064453 22.24343109130859 1.992023468017578 17.9697093963623 1.992023468017578 M 17.96968841552734 -0.007965087890625 C 22.57629203796387 -0.007965087890625 27.18290328979492 1.749382019042969 30.69765472412109 5.264076232910156 C 37.72709655761719 12.29341125488281 37.72709655761719 23.69052124023438 30.69765472412109 30.71996688842773 C 27.18290328979492 34.23466110229492 22.57629203796387 35.99200820922852 17.96968841552734 35.99200820922852 C 13.36308479309082 35.99200820922852 8.756486892700195 34.23466110229492 5.241764068603516 30.71996688842773 C -1.787567138671875 23.69052124023438 -1.787567138671875 12.29341125488281 5.241764068603516 5.264076232910156 C 8.756486892700195 1.749382019042969 13.36308479309082 -0.007965087890625 17.96968841552734 -0.007965087890625 Z" stroke="none" fill="#d29f96"/>
    </g>
    <g id="Rectangle_70" data-name="Rectangle 70" transform="translate(417 548)" fill="#fff" stroke="#d29f96" stroke-width="2">
      <rect width="18" height="12" rx="3" stroke="none"/>
      <rect x="1" y="1" width="16" height="10" rx="2" fill="none"/>
    </g>
  </g>
</svg>
