<svg xmlns="http://www.w3.org/2000/svg" width="21" height="21" viewBox="0 0 21 21">
  <g id="Group_3865" data-name="Group 3865" transform="translate(-47 -564)">
    <g id="Path_12288" data-name="Path 12288" transform="translate(-31.1 485.8)" fill="none">
      <path d="M97.6,86.285a2.6,2.6,0,0,1,.112-1.057,1.826,1.826,0,0,0-1.57-2.693,2.633,2.633,0,0,1-.956-.419,2.54,2.54,0,0,1-.419-.957,2.476,2.476,0,0,0-.915-1.547,1.454,1.454,0,0,0-.75-.183,4.76,4.76,0,0,0-1.027.159,4.017,4.017,0,0,1-.844.136.825.825,0,0,1-.218-.024,2.538,2.538,0,0,1-.82-.608,1.87,1.87,0,0,0-3.187,0,2.538,2.538,0,0,1-.82.608.8.8,0,0,1-.218.024,4.077,4.077,0,0,1-.844-.136,4.817,4.817,0,0,0-1.027-.159,1.44,1.44,0,0,0-.75.183,2.45,2.45,0,0,0-.915,1.547,2.636,2.636,0,0,1-.419.957,2.537,2.537,0,0,1-.956.419,2.474,2.474,0,0,0-1.546.915,2.43,2.43,0,0,0-.024,1.778,2.6,2.6,0,0,1,.112,1.057,2.539,2.539,0,0,1-.608.821,1.872,1.872,0,0,0,0,3.189,2.539,2.539,0,0,1,.608.821,2.6,2.6,0,0,1-.112,1.057,1.826,1.826,0,0,0,1.57,2.693,2.633,2.633,0,0,1,.956.419,2.54,2.54,0,0,1,.419.957,2.476,2.476,0,0,0,.915,1.547,1.454,1.454,0,0,0,.75.183,4.76,4.76,0,0,0,1.027-.159,4.016,4.016,0,0,1,.844-.136.825.825,0,0,1,.218.024,2.538,2.538,0,0,1,.82.608,1.87,1.87,0,0,0,3.187,0,2.538,2.538,0,0,1,.82-.608.8.8,0,0,1,.218-.024,4.077,4.077,0,0,1,.844.136,4.817,4.817,0,0,0,1.027.159,1.44,1.44,0,0,0,.75-.183,2.45,2.45,0,0,0,.915-1.547,2.636,2.636,0,0,1,.419-.957,2.537,2.537,0,0,1,.956-.419,2.474,2.474,0,0,0,1.546-.915,2.429,2.429,0,0,0,.024-1.778,2.6,2.6,0,0,1-.112-1.057,2.539,2.539,0,0,1,.608-.821A2.485,2.485,0,0,0,99.1,88.7C99.1,88.056,97.666,86.527,97.6,86.285Z" stroke="none"/>
      <path d="M 88.59998321533203 79.20000457763672 C 88.35494995117188 79.20000457763672 88.00540924072266 79.52674865722656 87.69701385498047 79.81503295898438 L 87.68675231933594 79.82463073730469 C 87.31723022460938 80.1712646484375 86.93523406982422 80.52957916259766 86.4583740234375 80.66222381591797 C 86.31301879882812 80.70407867431641 86.15653991699219 80.72362518310547 85.96759796142578 80.72362518310547 C 85.62672424316406 80.72362518310547 85.28322601318359 80.65092468261719 84.90195465087891 80.56293487548828 L 84.84827423095703 80.55087280273438 C 84.56819915771484 80.48786163330078 84.30365753173828 80.4283447265625 84.09660339355469 80.4283447265625 C 83.93119049072266 80.4283447265625 83.87303161621094 80.46229553222656 83.85112762451172 80.47507476806641 L 83.84642028808594 80.47779846191406 C 83.64141082763672 80.59597015380859 83.49677276611328 81.08510589599609 83.39115142822266 81.44225311279297 L 83.37257385253906 81.50218200683594 C 83.22386169433594 81.97917938232422 83.07009887695312 82.47241973876953 82.720458984375 82.82224273681641 C 82.37776947021484 83.16514587402344 81.89540863037109 83.32867431640625 81.34632873535156 83.49188995361328 L 81.32785797119141 83.49753570556641 C 80.95426940917969 83.61191558837891 80.48933410644531 83.75426483154297 80.37486267089844 83.95306396484375 C 80.26106262207031 84.14858245849609 80.37637329101562 84.64023590087891 80.46057891845703 84.99921417236328 L 80.46588134765625 85.0224609375 C 80.58071899414062 85.52786254882812 80.699462890625 86.05046844482422 80.56501770019531 86.54362487792969 C 80.43553161621094 87.02660369873047 80.07412719726562 87.41231536865234 79.72463226318359 87.78532409667969 L 79.71762084960938 87.79278564453125 C 79.44245147705078 88.08362579345703 79.09999084472656 88.44557952880859 79.09999084472656 88.70001220703125 C 79.09999084472656 88.94573211669922 79.42668914794922 89.29560852050781 79.71492004394531 89.60430145263672 L 79.72454071044922 89.61458587646484 C 80.07408142089844 89.98764038085938 80.43550872802734 90.37339019775391 80.56394195556641 90.85236358642578 C 80.699462890625 91.34953308105469 80.58071899414062 91.87212371826172 80.46588897705078 92.37750244140625 L 80.46108245849609 92.39863586425781 C 80.37712097167969 92.76020050048828 80.26213836669922 93.25540161132812 80.37242126464844 93.44279479980469 L 80.37722778320312 93.45104217529297 C 80.49532318115234 93.65615081787109 80.98403167724609 93.80084228515625 81.34087371826172 93.906494140625 L 81.40064239501953 93.92504119873047 C 81.87754821777344 94.07388305664062 82.37068939208984 94.22777557373047 82.72048187255859 94.57778167724609 C 83.0631103515625 94.92063140869141 83.22647094726562 95.40319061279297 83.38961029052734 95.95259094238281 L 83.39517974853516 95.97079467773438 C 83.50952911376953 96.34470367431641 83.65184020996094 96.81005096435547 83.84642028808594 96.92221069335938 L 83.85112762451172 96.92494201660156 C 83.90425109863281 96.95594024658203 83.98683166503906 96.97166442871094 84.09660339355469 96.97166442871094 C 84.31255340576172 96.97166442871094 84.59980773925781 96.90607452392578 84.87762451171875 96.8426513671875 L 84.89861297607422 96.83786010742188 C 85.22637176513672 96.76216888427734 85.59786987304688 96.6763916015625 85.96759796142578 96.6763916015625 C 86.14899444580078 96.6763916015625 86.30206298828125 96.69511413574219 86.44525146484375 96.73419952392578 C 86.92826080322266 96.86386108398438 87.31388092041016 97.22560119628906 87.68679809570312 97.57542419433594 L 87.69406890869141 97.58226013183594 C 87.98464202880859 97.85748291015625 88.34625244140625 98.20001220703125 88.59998321533203 98.20001220703125 C 88.84502410888672 98.20001220703125 89.194580078125 97.87325286865234 89.50298309326172 97.5849609375 L 89.51316833496094 97.57542419433594 C 89.88258361816406 97.22888946533203 90.26446533203125 96.87065887451172 90.74112701416016 96.73792266845703 C 90.88661956787109 96.69597625732422 91.04323577880859 96.6763916015625 91.23236083984375 96.6763916015625 C 91.57335662841797 96.6763916015625 91.91697692871094 96.7491455078125 92.29837799072266 96.83717346191406 L 92.35139465332031 96.84908294677734 C 92.63156890869141 96.91212463378906 92.89620971679688 96.97166442871094 93.10336303710938 96.97166442871094 C 93.268798828125 96.97166442871094 93.32695770263672 96.93772125244141 93.34885406494141 96.92494201660156 L 93.35355377197266 96.92221069335938 C 93.55854797363281 96.80405426025391 93.70320129394531 96.31491088867188 93.80882263183594 95.957763671875 L 93.82737731933594 95.89789581298828 C 93.97608947753906 95.42089080810547 94.12985992431641 94.92764282226562 94.47953033447266 94.57774353027344 C 94.82222747802734 94.23485565185547 95.30461120605469 94.07132720947266 95.85372924804688 93.90809631347656 L 95.87203979492188 93.90248870849609 C 96.24565887451172 93.78810119628906 96.71063232421875 93.645751953125 96.82511138916016 93.44695281982422 C 96.93891143798828 93.25143432617188 96.82360076904297 92.75978088378906 96.73938751220703 92.40080261230469 L 96.73413848876953 92.37778472900391 C 96.61927795410156 91.872314453125 96.50051116943359 91.34962463378906 96.63494873046875 90.85636138916016 C 96.76447296142578 90.37335205078125 97.12596130371094 89.98756408691406 97.47554016113281 89.61447143554688 L 97.48236083984375 89.60721588134766 C 97.73899078369141 89.33597564697266 98.05414581298828 89.00286865234375 98.09545135498047 88.75283050537109 C 97.98001861572266 88.45750427246094 97.43589782714844 87.75607299804688 97.22476959228516 87.48390960693359 C 96.87040710449219 87.027099609375 96.70867156982422 86.81861114501953 96.63602447509766 86.54761505126953 C 96.50050354003906 86.05038452148438 96.61927795410156 85.52767944335938 96.73415374755859 85.02217864990234 L 96.73888397216797 85.00140380859375 C 96.82283782958984 84.63980865478516 96.93782043457031 84.14459991455078 96.82753753662109 83.95722198486328 L 96.82273101806641 83.94895935058594 C 96.70465087890625 83.74386596679688 96.21592712402344 83.59915924072266 95.85909271240234 83.49349975585938 L 95.79904937744141 83.47486877441406 C 95.32225799560547 83.32606506347656 94.82923889160156 83.17218017578125 94.47953033447266 82.822265625 C 94.13693237304688 82.47948455810547 93.97355651855469 81.99702453613281 93.81047058105469 81.44777679443359 L 93.80480194091797 81.42926025390625 C 93.69045257568359 81.05533599853516 93.54814147949219 80.5899658203125 93.35355377197266 80.47779846191406 L 93.34885406494141 80.47507476806641 C 93.29572296142578 80.44406127929688 93.21312713623047 80.4283447265625 93.10336303710938 80.4283447265625 C 92.88748168945312 80.4283447265625 92.60025787353516 80.49391937255859 92.32250213623047 80.55734252929688 L 92.30133056640625 80.56217193603516 C 91.97354125976562 80.63785552978516 91.60201263427734 80.72362518310547 91.23236083984375 80.72362518310547 C 91.05094909667969 80.72362518310547 90.89788055419922 80.70490264892578 90.75472259521484 80.66580963134766 C 90.27172088623047 80.53615570068359 89.88613128662109 80.1744384765625 89.51322174072266 79.82463073730469 L 89.50591278076172 79.8177490234375 C 89.21533966064453 79.54253387451172 88.85371398925781 79.20000457763672 88.59998321533203 79.20000457763672 M 88.59998321533203 78.20000457763672 C 89.24332427978516 78.20000457763672 89.75090789794922 78.67243957519531 90.19358062744141 79.09173583984375 C 90.47688293457031 79.35748291015625 90.77198791503906 79.63504028320312 91.01397705078125 79.70000457763672 C 91.07888793945312 79.71772003173828 91.14973449707031 79.72362518310547 91.23236083984375 79.72362518310547 C 91.48024749755859 79.72362518310547 91.76944732666016 79.65866088867188 92.07637786865234 79.58779907226562 C 92.41280364990234 79.51103210449219 92.76693725585938 79.4283447265625 93.10336303710938 79.4283447265625 C 93.39257049560547 79.4283447265625 93.64045715332031 79.48740386962891 93.85294342041016 79.61141967773438 C 94.39594268798828 79.92441558837891 94.59071350097656 80.57992553710938 94.76776885986328 81.15866851806641 C 94.87992095947266 81.53662109375 95.00386810302734 81.93228912353516 95.18682861328125 82.11534881591797 C 95.36980438232422 82.29843139648438 95.76525115966797 82.41653442382812 96.14299011230469 82.53465270996094 C 96.72139739990234 82.70590972900391 97.37654876708984 82.90669250488281 97.68936157226562 83.45000457763672 C 98.00217437744141 83.98149871826172 97.84872436523438 84.64292144775391 97.71297454833984 85.22756958007812 C 97.62442779541016 85.61732482910156 97.53001403808594 86.02481079101562 97.600830078125 86.28465270996094 C 97.66574859619141 86.52677917480469 99.09999084472656 88.05630493164062 99.09999084472656 88.70001220703125 C 99.09999084472656 89.34370422363281 98.6278076171875 89.85158538818359 98.20874786376953 90.29449462890625 C 97.94315338134766 90.57794952392578 97.66574859619141 90.87324523925781 97.600830078125 91.11534881591797 C 97.53001403808594 91.37520599365234 97.62442779541016 91.78268432617188 97.71297454833984 92.17243957519531 C 97.84872436523438 92.75119018554688 98.00217437744141 93.41260528564453 97.68936157226562 93.95001220703125 C 97.37654876708984 94.49330902099609 96.72139739990234 94.68820190429688 96.14299011230469 94.86534881591797 C 95.76524353027344 94.97756958007812 95.36980438232422 95.10158538818359 95.18682861328125 95.28465270996094 C 95.00386810302734 95.46773529052734 94.88581848144531 95.86339569091797 94.76776885986328 96.24135589599609 C 94.59661865234375 96.82009124755859 94.39594268798828 97.47560119628906 93.85294342041016 97.78858947753906 C 93.64045715332031 97.91261291503906 93.39846801757812 97.97166442871094 93.10336303710938 97.97166442871094 C 92.76693725585938 97.97166442871094 92.418701171875 97.88899230957031 92.07637786865234 97.81222534179688 C 91.76944732666016 97.74135589599609 91.47434997558594 97.6763916015625 91.23236083984375 97.6763916015625 C 91.14973449707031 97.6763916015625 91.07301330566406 97.68228912353516 91.01397705078125 97.70001220703125 C 90.77198791503906 97.76496887207031 90.47688293457031 98.04251861572266 90.19358062744141 98.30827331542969 C 89.74501037597656 98.72756958007812 89.24332427978516 99.20001220703125 88.59998321533203 99.20001220703125 C 87.95664978027344 99.20001220703125 87.44905853271484 98.72756958007812 87.00639343261719 98.30827331542969 C 86.72309112548828 98.04251861572266 86.427978515625 97.76496887207031 86.18598937988281 97.70001220703125 C 86.12107086181641 97.68228912353516 86.05024719238281 97.6763916015625 85.96759796142578 97.6763916015625 C 85.71971893310547 97.6763916015625 85.43051147460938 97.74135589599609 85.12360382080078 97.81222534179688 C 84.78716278076172 97.88899230957031 84.43304443359375 97.97166442871094 84.09660339355469 97.97166442871094 C 83.80741119384766 97.97166442871094 83.55952453613281 97.91261291503906 83.34703826904297 97.78858947753906 C 82.80403137207031 97.47560119628906 82.60926055908203 96.82008361816406 82.43219757080078 96.24135589599609 C 82.32003784179688 95.86339569091797 82.19609832763672 95.46773529052734 82.01313781738281 95.28465270996094 C 81.83017730712891 95.10158538818359 81.43473052978516 94.98345947265625 81.05698394775391 94.86534881591797 C 80.47856903076172 94.69409942626953 79.82341766357422 94.49330902099609 79.51061248779297 93.95001220703125 C 79.19779968261719 93.41852569580078 79.35124206542969 92.75709533691406 79.48699951171875 92.17243957519531 C 79.57553100585938 91.78268432617188 79.66996765136719 91.37520599365234 79.59914398193359 91.11534881591797 C 79.53421783447266 90.87324523925781 79.25681304931641 90.57794952392578 78.99121856689453 90.29449462890625 C 78.57215881347656 89.84567260742188 78.09999084472656 89.34370422363281 78.09999084472656 88.70001220703125 C 78.09999084472656 88.05630493164062 78.57215881347656 87.54843139648438 78.99121856689453 87.10551452636719 C 79.25681304931641 86.82205200195312 79.53421783447266 86.52677917480469 79.59914398193359 86.28465270996094 C 79.66996765136719 86.02481079101562 79.57553100585938 85.61732482910156 79.48699951171875 85.22756958007812 C 79.35124969482422 84.64881896972656 79.19779968261719 83.98741149902344 79.51061248779297 83.45000457763672 C 79.82341766357422 82.90669250488281 80.47856903076172 82.71181488037109 81.05698394775391 82.53465270996094 C 81.43473052978516 82.42243957519531 81.83016967773438 82.29843139648438 82.01313781738281 82.11534881591797 C 82.19609832763672 81.93228912353516 82.31414794921875 81.53662109375 82.43219757080078 81.15866851806641 C 82.60334777832031 80.57992553710938 82.80403137207031 79.92441558837891 83.34703826904297 79.61141967773438 C 83.55952453613281 79.48740386962891 83.801513671875 79.4283447265625 84.09660339355469 79.4283447265625 C 84.43304443359375 79.4283447265625 84.78125762939453 79.51103210449219 85.12360382080078 79.58779907226562 C 85.43051147460938 79.65866088867188 85.72562408447266 79.72362518310547 85.96759796142578 79.72362518310547 C 86.05024719238281 79.72362518310547 86.12696838378906 79.71772003173828 86.18598937988281 79.70000457763672 C 86.427978515625 79.63504028320312 86.72309112548828 79.35748291015625 87.00639343261719 79.09173583984375 C 87.45496368408203 78.67243957519531 87.95664978027344 78.20000457763672 88.59998321533203 78.20000457763672 Z" stroke="none" fill="#cf9f96"/>
    </g>
    <g id="Ellipse_1224" data-name="Ellipse 1224" transform="translate(53 570)" fill="none" stroke="#cf9f96" stroke-width="1">
      <circle cx="2" cy="2" r="2" stroke="none"/>
      <circle cx="2" cy="2" r="1.5" fill="none"/>
    </g>
    <g id="Ellipse_1225" data-name="Ellipse 1225" transform="translate(58 575)" fill="none" stroke="#cf9f96" stroke-width="1">
      <circle cx="2" cy="2" r="2" stroke="none"/>
      <circle cx="2" cy="2" r="1.5" fill="none"/>
    </g>
    <path id="Path_12289" data-name="Path 12289" d="M59.387,560.105l-8,8" transform="translate(2.113 10.395)" fill="none" stroke="#cf9f96" stroke-linecap="round" stroke-width="1"/>
  </g>
</svg>
