<svg xmlns="http://www.w3.org/2000/svg" width="25" height="25" viewBox="0 0 25 25">
  <path id="ic_menu_org" d="M6,25a6,6,0,0,1-6-6V6A6,6,0,0,1,6,0H19a6,6,0,0,1,6,6V19a6,6,0,0,1-6,6ZM1.5,6V19A4.505,4.505,0,0,0,6,23.5H19A4.505,4.505,0,0,0,23.5,19V6A4.505,4.505,0,0,0,19,1.5H6A4.505,4.505,0,0,0,1.5,6ZM7.95,19A1.943,1.943,0,0,1,6,17.064V12.431a1.928,1.928,0,0,1,.572-1.368l4.55-4.517a2.013,2.013,0,0,1,2.756,0l4.55,4.517A1.928,1.928,0,0,1,19,12.431v4.633A1.943,1.943,0,0,1,17.05,19ZM12.16,7.628l-4.532,4.5a.423.423,0,0,0-.129.3v4.633a.444.444,0,0,0,.45.436h9.1a.443.443,0,0,0,.45-.436V12.433a.424.424,0,0,0-.129-.305l-4.532-4.5a.513.513,0,0,0-.679,0Z" fill="#fff"/>
</svg>
