<svg xmlns="http://www.w3.org/2000/svg" width="25" height="25" viewBox="0 0 25 25">
  <path id="ic_menu_duty" d="M0,12.5A12.5,12.5,0,1,1,12.5,25,12.5,12.5,0,0,1,0,12.5ZM4.721,4.721A11,11,0,1,0,20.278,20.278,11,11,0,0,0,4.721,4.721ZM8.154,18.274a2.478,2.478,0,0,1,0-3.505l5.1-5.1a.676.676,0,1,1,.956.957l-5.1,5.1A1.126,1.126,0,0,0,10.7,17.318l5.736-5.735a2.479,2.479,0,0,0-3.505-3.505l-4.779,4.78A.676.676,0,0,1,7.2,11.9l4.779-4.78a3.83,3.83,0,1,1,5.417,5.417l-5.736,5.736a2.479,2.479,0,0,1-3.5,0Z" fill="#fff"/>
</svg>
