<svg xmlns="http://www.w3.org/2000/svg" width="25" height="25" viewBox="0 0 25 25">
  <path id="ic_menu_funding" d="M0,12.5A12.5,12.5,0,1,1,12.5,25,12.5,12.5,0,0,1,0,12.5ZM4.721,4.721A11,11,0,1,0,20.278,20.278,11,11,0,0,0,4.721,4.721Zm7.439,14.2a.257.257,0,0,1-.18-.239V15.44l-1.68.969a.683.683,0,0,1-.095.05.345.345,0,0,1-.145.03c-.047,0-.092-.061-.135-.184a1.787,1.787,0,0,1-.065-.555,2.858,2.858,0,0,1,.034-.54.266.266,0,0,1,.115-.19l1.97-1.14V12.33l-1.68.97a.7.7,0,0,1-.095.049.332.332,0,0,1-.145.031c-.047,0-.092-.062-.135-.185a1.784,1.784,0,0,1-.065-.555,2.871,2.871,0,0,1,.034-.54.266.266,0,0,1,.115-.19l1.97-1.139V7.46H8.34A.276.276,0,0,1,8.09,7.3,1.238,1.238,0,0,1,8,6.74a1.3,1.3,0,0,1,.09-.57A.276.276,0,0,1,8.34,6h9a.272.272,0,0,1,.255.17,1.372,1.372,0,0,1,.085.57A1.308,1.308,0,0,1,17.6,7.3a.272.272,0,0,1-.255.165H13.7V9.78l1.67-.97a.7.7,0,0,1,.1-.05.317.317,0,0,1,.12-.03c.047,0,.1.051.145.155a1.442,1.442,0,0,1,.076.565,2.958,2.958,0,0,1-.035.545.3.3,0,0,1-.105.2L13.7,11.34v1.55l1.67-.97a.724.724,0,0,1,.1-.05.317.317,0,0,1,.12-.03c.047,0,.1.051.145.155a1.442,1.442,0,0,1,.076.565,2.94,2.94,0,0,1-.035.545.3.3,0,0,1-.105.205L13.7,14.45v4.23a.256.256,0,0,1-.18.239,1.922,1.922,0,0,1-.679.08A1.925,1.925,0,0,1,12.16,18.92Z" fill="#fff"/>
</svg>
