<svg xmlns="http://www.w3.org/2000/svg" width="25" height="25" viewBox="0 0 25 25">
  <path id="ic_menu_planning" d="M6,25a6,6,0,0,1-6-6V6A6,6,0,0,1,6,0H19a6,6,0,0,1,6,6V19a6,6,0,0,1-6,6ZM1.5,6V19A4.505,4.505,0,0,0,6,23.5H19A4.505,4.505,0,0,0,23.5,19V6A4.505,4.505,0,0,0,19,1.5H6A4.505,4.505,0,0,0,1.5,6ZM6.435,19h0A.432.432,0,0,1,6,18.519l.389-3.541a.435.435,0,0,1,.125-.26L14.77,6.455a1.539,1.539,0,0,1,2.184,0l1.591,1.573a1.545,1.545,0,0,1,0,2.189L10.276,18.48a.429.429,0,0,1-.26.126L6.483,19Zm9.4-11.485-7.989,8-.2,1.847,1.84-.205,8.008-8a.045.045,0,0,0,.013-.031.046.046,0,0,0-.012-.031L15.9,7.522l-.01-.011a.039.039,0,0,0-.027-.012A.045.045,0,0,0,15.831,7.515Z" fill="#e8f7ff"/>
</svg>
