<svg xmlns="http://www.w3.org/2000/svg" width="238" height="300" viewBox="0 0 238 300">
  <g id="ic_object_409" transform="translate(-2178 -1940)">
    <path id="Path_93" data-name="Path 93" d="M142.241,20C76.907,20,23.5,73.46,23.5,138.858c0,53.979,37.333,101.73,89.185,115.225l23.852,61.765A6.252,6.252,0,0,0,142.759,320h0a6.738,6.738,0,0,0,6.222-4.152l22.3-61.246c52.37-12.976,90.222-60.727,90.222-115.225C260.981,73.46,208.093,20,142.241,20Z" transform="translate(2154.5 1920)" fill="#d4f7fc"/>
    <path id="_111088_electricity_icon" data-name="111088_electricity_icon" d="M145.858,76.949l10.17-38.55a4.988,4.988,0,0,0-8.626-4.624L96.635,98.848a4.931,4.931,0,0,0-1.086,3.1,5.045,5.045,0,0,0,5.059,5h30.63L121.07,145.5a4.87,4.87,0,0,0-.228,1.5,4.993,4.993,0,0,0,8.853,3.125L180.46,85.05a4.915,4.915,0,0,0,1.089-3.1,5.046,5.046,0,0,0-5.058-5Z" transform="translate(2158.451 1969.051)" fill="#1ac1d8" fill-rule="evenodd"/>
  </g>
</svg>
