<svg xmlns="http://www.w3.org/2000/svg" width="238" height="300" viewBox="0 0 238 300">
  <g id="ic_object_2" transform="translate(-40 -1340)">
    <path id="Path_76" data-name="Path 76" d="M142.241,20C76.907,20,23.5,73.46,23.5,138.858c0,53.979,37.333,101.73,89.185,115.225l23.852,61.765A6.252,6.252,0,0,0,142.759,320h0a6.738,6.738,0,0,0,6.222-4.152l22.3-61.246c52.37-12.976,90.222-60.727,90.222-115.225C260.981,73.46,208.093,20,142.241,20Z" transform="translate(16.5 1320)" fill="#cff8e8"/>
    <path id="_5402357_activity_beat_pulse_signal_internet_icon" data-name="5402357_activity_beat_pulse_signal_internet_icon" d="M62,2a60,60,0,1,0,60,60A60,60,0,0,0,62,2ZM98,68H89.72L79.34,88.7A6,6,0,0,1,74,92h0a6,6,0,0,1-5.34-3.9L54.2,50.36,42.8,65.6A6,6,0,0,1,38,68H26a6,6,0,1,1,0-12h9L51.2,34.4a5.984,5.984,0,0,1,10.44,1.44l13.14,35.1,6-11.7A6,6,0,0,1,86,56H98a6,6,0,0,1,0,12Z" transform="translate(97 1399)" fill="#2eb77b"/>
  </g>
</svg>
