<svg xmlns="http://www.w3.org/2000/svg" width="238" height="300" viewBox="0 0 238 300">
  <g id="ic_object_302" transform="translate(-512 -1640)">
    <path id="Path_79" data-name="Path 79" d="M142.241,20C76.907,20,23.5,73.46,23.5,138.858c0,53.979,37.333,101.73,89.185,115.225l23.852,61.765A6.252,6.252,0,0,0,142.759,320h0a6.738,6.738,0,0,0,6.222-4.152l22.3-61.246c52.37-12.976,90.222-60.727,90.222-115.225C260.981,73.46,208.093,20,142.241,20Z" transform="translate(488.5 1620)" fill="#fce1e3"/>
    <path id="_5310258_building_education_school_university_icon" data-name="5310258_building_education_school_university_icon" d="M135.414,112.586l-14-14A2,2,0,0,0,120,98H96V74a2,2,0,0,0-.671-1.495l-18-16a2,2,0,0,0-2.657,0l-18,16A2,2,0,0,0,56,74V98H32a2,2,0,0,0-1.414.586l-14,14A2,2,0,0,0,18,116h2v38a2,2,0,0,0,2,2H66a2,2,0,0,0,2-2V132a8,8,0,0,1,16,0v22a2,2,0,0,0,2,2h44a2,2,0,0,0,2-2V116h2a2,2,0,0,0,1.414-3.414ZM76,74A10,10,0,1,1,66,84,10,10,0,0,1,76,74ZM52,126v16a2,2,0,0,1-2,2H34a2,2,0,0,1-2-2V126a2,2,0,0,1,2-2H50A2,2,0,0,1,52,126Zm48,16V126a2,2,0,0,1,2-2h16a2,2,0,0,1,2,2v16a2,2,0,0,1-2,2H102A2,2,0,0,1,100,142Z" transform="translate(555 1654.999)" fill="#ef4453"/>
  </g>
</svg>
