<svg xmlns="http://www.w3.org/2000/svg" width="238" height="300" viewBox="0 0 238 300">
  <g id="ic_object_401" transform="translate(-278 -1940)">
    <path id="Path_91" data-name="Path 91" d="M142.241,20C76.907,20,23.5,73.46,23.5,138.858c0,53.979,37.333,101.73,89.185,115.225l23.852,61.765A6.252,6.252,0,0,0,142.759,320h0a6.738,6.738,0,0,0,6.222-4.152l22.3-61.246c52.37-12.976,90.222-60.727,90.222-115.225C260.981,73.46,208.093,20,142.241,20Z" transform="translate(254.5 1920)" fill="#d4f7fc"/>
    <path id="_8665687_road_transportation_icon" data-name="8665687_road_transportation_icon" d="M119.451,112.589,93.262,38.725a10.007,10.007,0,0,0-9.417-6.686H66.7V48.827a3.345,3.345,0,0,1-3.333,3.357H56.7a3.346,3.346,0,0,1-3.333-3.357V32.04H36.239a10,10,0,0,0-9.417,6.686L.633,112.589a10.047,10.047,0,0,0,9.4,13.451H53.364V109.253A3.355,3.355,0,0,1,56.7,105.9h6.667a3.345,3.345,0,0,1,3.333,3.357V126.04h43.148A10.09,10.09,0,0,0,119.451,112.589ZM66.7,89.108a3.345,3.345,0,0,1-3.333,3.357H56.7a3.355,3.355,0,0,1-3.333-3.357V68.963A3.355,3.355,0,0,1,56.7,65.606h6.667A3.355,3.355,0,0,1,66.7,68.963Z" transform="translate(336.964 1981.96)" fill="#1ac1d8"/>
  </g>
</svg>
