<svg xmlns="http://www.w3.org/2000/svg" width="238" height="300" viewBox="0 0 238 300">
  <g id="ic_object_602" transform="translate(-1757 -1340)">
    <path id="Path_101" data-name="Path 101" d="M142.241,20C76.907,20,23.5,73.46,23.5,138.858c0,53.979,37.333,101.73,89.185,115.225l23.852,61.765A6.252,6.252,0,0,0,142.759,320h0a6.738,6.738,0,0,0,6.222-4.152l22.3-61.246c52.37-12.976,90.222-60.727,90.222-115.225C260.981,73.46,208.093,20,142.241,20Z" transform="translate(1733.5 1320)" fill="#fbe6d3"/>
    <path id="Subtraction_49" data-name="Subtraction 49" d="M40,120H6.666a6.66,6.66,0,0,1-4.583-2.083A6.659,6.659,0,0,1,0,113.333V6.666A6.652,6.652,0,0,1,6.666,0H93.334A6.652,6.652,0,0,1,100,6.666V113.333A7.169,7.169,0,0,1,93.334,120H60V100a7.029,7.029,0,0,0-6.667-6.666H46.667A7.029,7.029,0,0,0,40,100v20ZM42.526,45.2a2.342,2.342,0,0,1,1.305.254c.549.385,1.57,1.1-.166,4.576l-3.248,6.511c-1.929,3.867-2.211,7.605-.8,10.525a8.6,8.6,0,0,0,6.24,4.622,15.754,15.754,0,0,0,3.1.317,16.541,16.541,0,0,0,10.224-3.675A1.631,1.631,0,0,0,58.1,65.471a1.622,1.622,0,0,0-.513.083,12.542,12.542,0,0,1-3.374.607A2.347,2.347,0,0,1,52.9,65.9c-.545-.382-1.56-1.094.175-4.569l3.248-6.508c1.928-3.868,2.21-7.606.8-10.526a8.6,8.6,0,0,0-6.236-4.622,15.433,15.433,0,0,0-3.111-.317A16.374,16.374,0,0,0,37.55,43.038a1.633,1.633,0,0,0,1.071,2.857,1.625,1.625,0,0,0,.53-.089A12.444,12.444,0,0,1,42.526,45.2ZM54.841,20A8.159,8.159,0,1,0,63,28.159,8.169,8.169,0,0,0,54.841,20Z" transform="translate(1826 1401)" fill="#f58929"/>
  </g>
</svg>
