<svg xmlns="http://www.w3.org/2000/svg" width="238" height="300" viewBox="0 0 238 300">
  <g id="ic_object_503" transform="translate(-2030 -1040)">
    <path id="Path_98" data-name="Path 98" d="M142.241,20C76.907,20,23.5,73.46,23.5,138.858c0,53.979,37.333,101.73,89.185,115.225l23.852,61.765A6.252,6.252,0,0,0,142.759,320h0a6.738,6.738,0,0,0,6.222-4.152l22.3-61.246c52.37-12.976,90.222-60.727,90.222-115.225C260.981,73.46,208.093,20,142.241,20Z" transform="translate(2006.5 1020)" fill="#efd9ff"/>
    <path id="_3668854_activities_dumbbell_gym_sport_icon" data-name="3668854_activities_dumbbell_gym_sport_icon" d="M98.923,9.6V92.4A4.353,4.353,0,0,1,94.308,97H89.692a4.353,4.353,0,0,1-4.615-4.6V64.8H38.923V92.4A4.353,4.353,0,0,1,34.308,97H29.692a4.353,4.353,0,0,1-4.615-4.6V9.6A4.353,4.353,0,0,1,29.692,5h4.615a4.353,4.353,0,0,1,4.615,4.6V37.2H85.077V9.6A4.353,4.353,0,0,1,89.692,5h4.615A4.353,4.353,0,0,1,98.923,9.6ZM6.615,23.4V41.8A4.353,4.353,0,0,0,2,46.4v9.2a4.353,4.353,0,0,0,4.615,4.6V78.6a4.353,4.353,0,0,0,4.615,4.6h4.615V18.8H11.231A4.353,4.353,0,0,0,6.615,23.4ZM117.385,41.8V23.4a4.353,4.353,0,0,0-4.615-4.6h-4.615V83.2h4.615a4.353,4.353,0,0,0,4.615-4.6V60.2A4.353,4.353,0,0,0,122,55.6V46.4A4.353,4.353,0,0,0,117.385,41.8Z" transform="translate(2087 1110)" fill="#5f2d82"/>
  </g>
</svg>
