<svg xmlns="http://www.w3.org/2000/svg" width="238" height="300" viewBox="0 0 238 300">
  <g id="ic_object_407" transform="translate(-1706 -1940)">
    <path id="Path_87" data-name="Path 87" d="M142.241,20C76.907,20,23.5,73.46,23.5,138.858c0,53.979,37.333,101.73,89.185,115.225l23.852,61.765A6.252,6.252,0,0,0,142.759,320h0a6.738,6.738,0,0,0,6.222-4.152l22.3-61.246c52.37-12.976,90.222-60.727,90.222-115.225C260.981,73.46,208.093,20,142.241,20Z" transform="translate(1682.5 1920)" fill="#d4f7fc"/>
    <g id="_9034923_flower_icon" data-name="9034923_flower_icon" transform="translate(1748.704 1985.295)">
      <circle id="Ellipse_4" data-name="Ellipse 4" cx="12.005" cy="12.005" r="12.005" transform="translate(64.243 63.774)" fill="#1ac1d8"/>
      <path id="Path_28" data-name="Path 28" d="M131.254,87.757a16.871,16.871,0,0,0-11.09-28.883,1.3,1.3,0,0,1-1.145-.8h0a1.3,1.3,0,0,1,.25-1.377,16.957,16.957,0,0,0-12.508-28.333H106.7a16.8,16.8,0,0,0-11.357,4.419,1.3,1.3,0,0,1-1.379.248h0a1.307,1.307,0,0,1-.805-1.145,16.928,16.928,0,0,0-33.822,0,1.3,1.3,0,0,1-.8,1.145h0a1.3,1.3,0,0,1-1.381-.25,16.789,16.789,0,0,0-11.365-4.423h-.053A16.977,16.977,0,0,0,33.229,56.692a1.3,1.3,0,0,1,.25,1.377h0a1.3,1.3,0,0,1-1.146.8,16.927,16.927,0,0,0,0,33.808,1.308,1.308,0,0,1,1.146.808h0a1.3,1.3,0,0,1-.25,1.38,16.884,16.884,0,0,0,12.525,28.25h.063a16.857,16.857,0,0,0,11.335-4.338,1.3,1.3,0,0,1,1.378-.25h0a1.3,1.3,0,0,1,.8,1.145,16.935,16.935,0,0,0,33.822,0,1.308,1.308,0,0,1,.805-1.145h0a1.3,1.3,0,0,1,1.378.25,16.856,16.856,0,0,0,11.327,4.355h.063a16.869,16.869,0,0,0,12.525-28.25A1.3,1.3,0,0,1,119,93.5h0a1.308,1.308,0,0,1,1.146-.8,16.838,16.838,0,0,0,11.1-4.943ZM76.248,95.779a20,20,0,1,1,20.009-20A20,20,0,0,1,76.248,95.779Z" fill="#1ac1d8"/>
    </g>
  </g>
</svg>
