<svg xmlns="http://www.w3.org/2000/svg" width="238" height="300" viewBox="0 0 238 300">
  <g id="ic_object_306" transform="translate(-1464 -1640)">
    <path id="Path_83" data-name="Path 83" d="M142.241,20C76.907,20,23.5,73.46,23.5,138.858c0,53.979,37.333,101.73,89.185,115.225l23.852,61.765A6.252,6.252,0,0,0,142.759,320h0a6.738,6.738,0,0,0,6.222-4.152l22.3-61.246c52.37-12.976,90.222-60.727,90.222-115.225C260.981,73.46,208.093,20,142.241,20Z" transform="translate(1440.5 1620)" fill="#fce1e3"/>
    <path id="Subtraction_43" data-name="Subtraction 43" d="M73,84H65V55a3,3,0,0,0-3-3H58a3,3,0,0,0-3,3V84H47V55a3,3,0,0,0-3-3H40a3,3,0,0,0-3,3V84H5a5.006,5.006,0,0,1-5-5V46H10V30a20.055,20.055,0,0,1,3.929-11.677A34.761,34.761,0,0,1,24.645,8.787,59.116,59.116,0,0,1,40.538,2.358a81.511,81.511,0,0,1,38.925,0A59.115,59.115,0,0,1,95.355,8.787a34.761,34.761,0,0,1,10.715,9.536A20.055,20.055,0,0,1,110,30V46h10V79a5.005,5.005,0,0,1-5,5H83V55a3,3,0,0,0-3-3H76a3,3,0,0,0-3,3V84ZM94,28a3,3,0,0,0-3,3v8a3,3,0,0,0,3,3h4a3,3,0,0,0,3-3V31a3,3,0,0,0-3-3ZM22,28a3,3,0,0,0-3,3v8a3,3,0,0,0,3,3h4a3,3,0,0,0,3-3V31a3,3,0,0,0-3-3Zm54-5a3,3,0,0,0-3,3v8a3,3,0,0,0,3,3h4a3,3,0,0,0,3-3V26a3,3,0,0,0-3-3ZM58,23a3,3,0,0,0-3,3v8a3,3,0,0,0,3,3h4a3,3,0,0,0,3-3V26a3,3,0,0,0-3-3ZM40,23a3,3,0,0,0-3,3v8a3,3,0,0,0,3,3h4a3,3,0,0,0,3-3V26a3,3,0,0,0-3-3Z" transform="translate(1523 1719)" fill="#ef4453"/>
  </g>
</svg>
