<svg xmlns="http://www.w3.org/2000/svg" width="238" height="300" viewBox="0 0 238 300">
  <g id="ic_object_408" transform="translate(-1940 -1940)">
    <path id="Path_94" data-name="Path 94" d="M142.241,20C76.907,20,23.5,73.46,23.5,138.858c0,53.979,37.333,101.73,89.185,115.225l23.852,61.765A6.252,6.252,0,0,0,142.759,320h0a6.738,6.738,0,0,0,6.222-4.152l22.3-61.246c52.37-12.976,90.222-60.727,90.222-115.225C260.981,73.46,208.093,20,142.241,20Z" transform="translate(1916.5 1920)" fill="#d4f7fc"/>
    <g id="Group_34" data-name="Group 34" transform="translate(1159 1361)">
      <path id="Path_65" data-name="Path 65" d="M14,0H28V91a5,5,0,0,1-5,5H0Z" transform="translate(932 652)" fill="#1ac1d8"/>
      <path id="Subtraction_23" data-name="Subtraction 23" d="M87,96H0L12,5a5.006,5.006,0,0,1,5-5H29L28,6H95a5.005,5.005,0,0,1,5,5L87,96ZM69.538,20.977a68.423,68.423,0,0,0-5.417,7.663,96.015,96.015,0,0,0-9.663,20.77A176.358,176.358,0,0,0,48.55,76.7c-1.17,8.08-1.657,14.123-1.661,14.183H67.282a.129.129,0,0,1,0-.028c-.076-.84-.463-5.348-.6-11.567a163.023,163.023,0,0,1,1.193-24.7,148.159,148.159,0,0,1,5.4-23.358c1.929-6.149,3.585-10.211,3.6-10.251Zm-30,0a68.422,68.422,0,0,0-5.417,7.663,96.015,96.015,0,0,0-9.663,20.77A176.358,176.358,0,0,0,18.551,76.7c-1.17,8.08-1.657,14.123-1.661,14.183H37.283a.129.129,0,0,1,0-.028c-.076-.841-.464-5.348-.6-11.567a162.955,162.955,0,0,1,1.193-24.7,148.127,148.127,0,0,1,5.4-23.358c1.929-6.15,3.585-10.211,3.6-10.251ZM68.8,13.235a2.5,2.5,0,1,0,0,5h5.107c4.468,0,4.468,2.52,4.468,3.469v5.413a2.5,2.5,0,1,0,5,0V21.7a8.021,8.021,0,0,0-2.64-6.249,10.039,10.039,0,0,0-6.828-2.219Zm-30,0a2.5,2.5,0,0,0,0,5h5.107c4.468,0,4.468,2.52,4.468,3.469v5.413a2.5,2.5,0,0,0,5,0V21.7a8.023,8.023,0,0,0-2.64-6.249,10.04,10.04,0,0,0-6.829-2.219Z" transform="translate(840 652)" fill="#1ac1d8"/>
    </g>
  </g>
</svg>
