<svg xmlns="http://www.w3.org/2000/svg" width="238" height="300" viewBox="0 0 238 300">
  <g id="ic_object_3" transform="translate(-36 -1640)">
    <path id="Path_81" data-name="Path 81" d="M142.241,20C76.907,20,23.5,73.46,23.5,138.858c0,53.979,37.333,101.73,89.185,115.225l23.852,61.765A6.252,6.252,0,0,0,142.759,320h0a6.738,6.738,0,0,0,6.222-4.152l22.3-61.246c52.37-12.976,90.222-60.727,90.222-115.225C260.981,73.46,208.093,20,142.241,20Z" transform="translate(12.5 1620)" fill="#fce1e3"/>
    <path id="_2559795_media_music_network_social_icon" data-name="2559795_media_music_network_social_icon" d="M60.5.5a60.346,60.346,0,0,0-60,60,60.346,60.346,0,0,0,60,60,60.346,60.346,0,0,0,60-60A60.346,60.346,0,0,0,60.5.5ZM80.543,43.8V78.239a7.133,7.133,0,0,1-7.3,7.3h-3.13a7.133,7.133,0,0,1-7.3-7.3v-3.13a7.133,7.133,0,0,1,7.3-7.3h5.739V46.935l-27.13,8.348V86.065a7.133,7.133,0,0,1-7.3,7.3H37.761a7.133,7.133,0,0,1-7.3-7.3v-3.13a7.133,7.133,0,0,1,7.3-7.3H43.5V40.152a2.869,2.869,0,0,1,1.565-2.609L77.413,27.63a3.137,3.137,0,0,1,2.087.522,2.711,2.711,0,0,1,1.043,2.087V43.8Z" transform="translate(94.5 1700.5)" fill="#ef4453"/>
  </g>
</svg>
