<svg xmlns="http://www.w3.org/2000/svg" width="238" height="300" viewBox="0 0 238 300">
  <g id="ic_object_406" transform="translate(-1468 -1940)">
    <path id="Path_86" data-name="Path 86" d="M142.241,20C76.907,20,23.5,73.46,23.5,138.858c0,53.979,37.333,101.73,89.185,115.225l23.852,61.765A6.252,6.252,0,0,0,142.759,320h0a6.738,6.738,0,0,0,6.222-4.152l22.3-61.246c52.37-12.976,90.222-60.727,90.222-115.225C260.981,73.46,208.093,20,142.241,20Z" transform="translate(1444.5 1920)" fill="#d4f7fc"/>
    <path id="Subtraction_46" data-name="Subtraction 46" d="M52,112A17,17,0,0,1,35,95c0-.329.01-.666.029-1H33.971c.019.341.029.678.029,1a17,17,0,0,1-29.021,12.02A16.887,16.887,0,0,1,0,95c0-.329.01-.666.029-1H0l.032-.059A16.918,16.918,0,0,1,7.2,81.108l.034-.061,60.9-45.995c0-.018,0-.192,0-.5C68.081,26.585,68,12.411,68,7a7.053,7.053,0,0,1,1.094-4A6.243,6.243,0,0,1,71.5.917,9,9,0,0,1,75,0h45V32H107a3.8,3.8,0,0,0-3.019,1.179,5.165,5.165,0,0,0-.926,3.657L103,94a17,17,0,1,1-34,0h-.029c.019.341.029.678.029,1a17,17,0,0,1-17,17ZM86,84A10,10,0,1,0,96,94,10.012,10.012,0,0,0,86,84ZM52,84A10,10,0,1,0,62,94,10.011,10.011,0,0,0,52,84ZM17,84A10,10,0,1,0,27,94,10.011,10.011,0,0,0,17,84Z" transform="translate(1527 2005)" fill="#1ac1d8"/>
  </g>
</svg>
