<svg xmlns="http://www.w3.org/2000/svg" width="238" height="300" viewBox="0 0 238 300">
  <g id="ic_object_702" transform="translate(-522 -2240)">
    <path id="Path_103" data-name="Path 103" d="M142.241,20C76.907,20,23.5,73.46,23.5,138.858c0,53.979,37.333,101.73,89.185,115.225l23.852,61.765A6.252,6.252,0,0,0,142.759,320h0a6.738,6.738,0,0,0,6.222-4.152l22.3-61.246c52.37-12.976,90.222-60.727,90.222-115.225C260.981,73.46,208.093,20,142.241,20Z" transform="translate(498.5 2220)" fill="#fbf5d7"/>
    <path id="_8673854_ic_fluent_tent_filled_icon" data-name="8673854_ic_fluent_tent_filled_icon" d="M63.57,3.21a4.5,4.5,0,0,0-6.252.108l-10.2,10.2A119.6,119.6,0,0,1,24.084,31.5a9.154,9.154,0,0,0-4.352,6.555L11.6,95H6.5a4.5,4.5,0,0,0,0,9h111a4.5,4.5,0,0,0,0-9h-5.1l-8.1-56.728a9.352,9.352,0,0,0-4.78-6.887A124.9,124.9,0,0,1,74.109,13.046Zm11.007,77.5A110.387,110.387,0,0,0,84.471,95H39.709a88.986,88.986,0,0,0,9.785-14.426c3.73-7.184,7.939-17.925,11.168-26.7.425-1.157.836-2.284,1.228-3.369.356,1.022.73,2.08,1.119,3.167C66.138,62.407,70.369,73.22,74.577,80.706Z" transform="translate(579 2308)" fill="#8f5806"/>
  </g>
</svg>
