<svg xmlns="http://www.w3.org/2000/svg" width="238" height="300" viewBox="0 0 238 300">
  <g id="ic_object_4" transform="translate(-40 -1940)">
    <path id="Path_92" data-name="Path 92" d="M142.241,20C76.907,20,23.5,73.46,23.5,138.858c0,53.979,37.333,101.73,89.185,115.225l23.852,61.765A6.252,6.252,0,0,0,142.759,320h0a6.738,6.738,0,0,0,6.222-4.152l22.3-61.246c52.37-12.976,90.222-60.727,90.222-115.225C260.981,73.46,208.093,20,142.241,20Z" transform="translate(16.5 1920)" fill="#d4f7fc"/>
    <g id="Street_sign" transform="translate(55.098 1971.098)">
      <path id="Path_22" data-name="Path 22" d="M157.571,84.173,144.957,71.568a4.535,4.535,0,0,0-3.21-1.33h-33.3v-35.8a4.541,4.541,0,0,0-9.082,0v5.547h-33.3a4.535,4.535,0,0,0-3.21,1.33L50.232,53.921a4.533,4.533,0,0,0,0,6.416L62.847,72.942a4.535,4.535,0,0,0,3.21,1.33h33.3v66.556H83.718a4.537,4.537,0,1,0,0,9.075h40.367a4.537,4.537,0,1,0,0-9.075H108.443v-36.3h33.3a4.535,4.535,0,0,0,3.21-1.33l12.615-12.605a4.533,4.533,0,0,0,0-6.416Z" fill="#1ac1d8"/>
    </g>
  </g>
</svg>
