<svg xmlns="http://www.w3.org/2000/svg" width="238" height="300" viewBox="0 0 238 300">
  <g id="ic_object_201" transform="translate(-278 -1340)">
    <path id="Path_75" data-name="Path 75" d="M142.241,20C76.907,20,23.5,73.46,23.5,138.858c0,53.979,37.333,101.73,89.185,115.225l23.852,61.765A6.252,6.252,0,0,0,142.759,320h0a6.738,6.738,0,0,0,6.222-4.152l22.3-61.246c52.37-12.976,90.222-60.727,90.222-115.225C260.981,73.46,208.093,20,142.241,20Z" transform="translate(254.5 1320)" fill="#cff8e8"/>
    <path id="Subtraction_40" data-name="Subtraction 40" d="M98.577,102H21.423a4.291,4.291,0,0,1-4.286-4.249v-34H4.262a4.272,4.272,0,0,1-3.028-7.267L56.957,1.243a4.348,4.348,0,0,1,6.087,0l55.723,55.245a4.272,4.272,0,0,1-3.028,7.267H102.864v34A4.293,4.293,0,0,1,98.577,102ZM46,59a3,3,0,0,0-3,3v6a3,3,0,0,0,3,3h8v8a3,3,0,0,0,3,3h6a3,3,0,0,0,3-3V71h8a3,3,0,0,0,3-3V62a3,3,0,0,0-3-3H66V51a3,3,0,0,0-3-3H57a3,3,0,0,0-3,3v8Z" transform="translate(337.002 1410)" fill="#2eb77b"/>
  </g>
</svg>
