<svg xmlns="http://www.w3.org/2000/svg" width="238" height="300" viewBox="0 0 238 300">
  <g id="ic_object_7" transform="translate(-46 -2240)">
    <path id="Path_102" d="M142.241,20C76.907,20,23.5,73.46,23.5,138.858c0,53.979,37.333,101.73,89.185,115.225l23.852,61.765A6.252,6.252,0,0,0,142.759,320h0a6.738,6.738,0,0,0,6.222-4.152l22.3-61.246c52.37-12.976,90.222-60.727,90.222-115.225C260.981,73.46,208.093,20,142.241,20Z" transform="translate(22.5 2220)" fill="#fbf5d7"/>
    <path id="rect2887_3_" d="M917.929,288.173s-1.683.775-1.943,1.576c-.36,1.16,1.07,2.3,1.01,3.518-.071,1.593-1.683,2.855-1.747,4.455-.047,1.16,1.272,2.2,1.01,3.339-.175.744-.8,1.691-1.569,1.668s-1.367-.937-1.474-1.668c-.2-1.312,1.653-2.293,1.663-3.619,0-.913-1.151-1.583-1.1-2.5a3.564,3.564,0,0,1,.822-1.482s-2.071,1.015-2.394,2.03c-.239.727.636,1.465.555,2.226-.222,1.867-2.515,3.125-2.593,5.006A6.956,6.956,0,0,0,917,309.669a7.279,7.279,0,0,0,4.986-1.948,7.58,7.58,0,0,0,2.125-5c.05-1.6-1.562-2.943-1.569-4.556,0-.866.959-1.624.828-2.493-.182-1.14-2.02-2.784-2.02-2.784a7.4,7.4,0,0,1,.273,2.314c-.192,1.052-1.387,1.739-1.475,2.787s1.2,2.006,1.01,3.065c-.125.677-.589,1.651-1.29,1.668s-1.239-.954-1.39-1.668c-.31-1.515,1.37-2.909,1.293-4.461-.121-2.388-2.38-4.265-2.309-6.667a6.941,6.941,0,0,1,.469-1.749Zm-.976,23.867A10.909,10.909,0,1,0,927.8,322.935a10.883,10.883,0,0,0-10.847-10.895Zm-15.224,12.451c-.04.484-.067.984-.067,1.478a15.3,15.3,0,1,0,30.592,0,12.4,12.4,0,0,0-.077-1.438,15.8,15.8,0,0,1-30.448-.04Zm-13.773,19.3V408.17h13.426V343.791Zm15.715,0,13.281,8.74,13.295-8.74Zm28.842,0V408.17h13.443V343.791Zm-28.842,10.973v5.547h26.576v-5.547Zm11.14,7.536a9.888,9.888,0,0,0-1.683.21,13.257,13.257,0,0,0-9.881,13.208,13.759,13.759,0,0,0,9.763,13.168,7.386,7.386,0,0,1-3.622-6.166v-.084a7.441,7.441,0,0,1,4.663-6.931,7.623,7.623,0,0,1,2.879-.531H917a6.351,6.351,0,0,0,6.349-6.406,7.575,7.575,0,0,0-8.538-6.484Zm6.094.233a7.39,7.39,0,0,1,3.622,6.163v.071a7.417,7.417,0,0,1-4.656,6.927,7.646,7.646,0,0,1-2.888.538h-.071a6.348,6.348,0,0,0-6.366,6.4,7.594,7.594,0,0,0,8.541,6.491,9.815,9.815,0,0,0,1.7-.21,13.271,13.271,0,0,0,9.871-13.215,13.741,13.741,0,0,0-9.763-13.158Zm-3.953,3.629a2.491,2.491,0,0,1,1.772.747,2.5,2.5,0,1,1-1.772-.751Zm-.017,14.054a2.515,2.515,0,1,1-2.495,2.5,2.5,2.5,0,0,1,2.495-2.5ZM903.672,391.67v5.53h26.576v-5.53Zm0,7.756,13.281,8.747,13.295-8.747Z" transform="translate(-751.956 2012.827)" fill="#8f5806"/>
  </g>
</svg>
